<svg width="296" height="547" viewBox="0 0 296 547" fill="none" xmlns="http://www.w3.org/2000/svg">
<path fill-rule="evenodd" clip-rule="evenodd" d="M2.282 385.971C4.97241 401.872 11.6599 417.108 21.2568 430.259L21.2906 430.271C32.2198 445.247 46.9229 457.507 63.7274 464.927C79.0522 471.694 95.8083 474.705 112.008 477.615L112.009 477.615C130.234 480.892 149.07 484.278 165.354 493.055C176.272 498.941 185.991 507.236 195.393 515.268L195.499 515.359C203.997 522.611 212.779 530.104 222.582 535.969C268.239 563.298 333.8 533.49 376.058 499.656C377.138 498.794 377.306 497.21 376.45 496.139C375.588 495.059 374.012 494.885 372.933 495.747C349.336 514.626 322.842 529.009 298.301 536.247C269.582 544.714 244.287 543.131 225.143 531.674C215.666 526 207.002 518.606 198.629 511.458C189.031 503.26 179.105 494.781 167.718 488.644C150.732 479.499 131.492 476.035 112.884 472.692C96.9701 469.834 80.5133 466.876 65.7373 460.353C35.6622 447.08 12.7061 417.558 7.23525 385.142C1.76445 352.725 13.7744 317.307 37.8212 294.906C39.5155 293.325 41.3268 291.744 43.0949 290.2L43.5079 289.84C51.0361 283.293 58.8213 276.523 62.3117 266.869C66.3277 255.731 63.4702 244.199 60.6897 233.043C58.5309 224.368 56.3098 215.405 57.4708 206.919C59.3875 192.955 70.9641 179.827 88.4447 171.787C96.9346 167.886 106.152 165.199 115.075 162.599L115.169 162.571L115.371 162.512L115.371 162.512C122.523 160.423 129.903 158.266 136.99 155.474C162.914 145.246 164.223 129.262 164.006 124.604C163.577 115.484 157.508 108.016 152.151 101.439C151.926 101.163 151.703 100.887 151.481 100.611L151.473 100.601C151.238 100.309 151.003 100.017 150.766 99.7272C137.966 83.8505 133.035 69.3748 136.124 56.7461C139.372 43.4694 154.664 29.4621 177.61 28.4019C192.652 27.705 207.716 31.9502 222.294 36.0586L222.294 36.0586L222.324 36.0669L223.35 36.3546L223.351 36.3548C226.437 37.2199 229.602 38.1072 232.719 38.9291C249.553 43.3694 271.312 47.3841 290.362 38.9164C298.689 35.2138 305.774 29.404 312.628 23.7838L312.654 23.7625C319.492 18.1533 325.952 12.8573 333.576 9.41066C360.465 -2.73495 391.272 12.949 407.241 23.3806C452.578 52.9857 485.809 100.166 498.426 152.807C498.738 154.152 500.097 154.979 501.436 154.659C502.78 154.346 503.608 152.987 503.287 151.649C490.376 97.7735 456.366 49.4909 409.97 19.1979C393.151 8.21117 360.577 -8.26396 331.517 4.85937C323.286 8.57611 316.26 14.3348 309.479 19.9026L309.405 19.9629C302.522 25.6028 296.022 30.9283 288.32 34.3533C270.692 42.1916 250.017 38.3391 233.975 34.101C230.546 33.1862 227.049 32.2104 223.663 31.252C208.699 27.0321 193.226 22.6755 177.368 23.4043C158.741 24.2589 136.362 34.6973 131.257 55.5564C127.783 69.7782 133.022 85.676 146.868 102.868C147.323 103.44 147.797 104.023 148.266 104.597C153.376 110.87 158.654 117.356 159.002 124.839C159.178 128.66 157.988 141.821 135.147 150.827C128.206 153.565 120.866 155.703 113.758 157.77C104.627 160.423 95.1938 163.172 86.3419 167.243C67.3038 175.999 54.6562 190.577 52.5034 206.236C51.204 215.65 53.5397 225.055 55.7999 234.156L55.8216 234.244C58.5333 245.152 61.0947 255.464 57.5896 265.166C54.5471 273.6 47.5813 279.662 40.2109 286.068L39.8192 286.409C38.0119 287.983 36.1582 289.596 34.3928 291.243C9.1472 314.767 -3.4598 351.945 2.282 385.971ZM32.6634 390.044C34.2608 394.846 36.541 399.124 39.3175 402.929L39.3036 402.926C53.8191 422.8 81.7364 429.773 94.5944 431.989C101.04 433.099 107.675 433.922 114.111 434.72L114.907 434.819L114.917 434.82L114.917 434.82C133.002 437.045 151.698 439.344 167.597 448.003C181.093 455.35 192.017 467.012 202.579 478.295L202.681 478.404L202.681 478.404C213.164 489.589 224.004 501.155 237.584 508.891C254.428 518.486 281.414 519.094 313.594 510.602C343.034 502.834 373.66 488.345 397.634 470.849C398.749 470.036 398.994 468.471 398.18 467.356C397.367 466.241 395.802 465.997 394.687 466.81C371.197 483.953 341.175 498.15 312.317 505.765C281.414 513.92 255.751 513.497 240.059 504.547C227.104 497.157 216.502 485.836 206.243 474.882L206.234 474.872L206.194 474.83C195.375 463.275 184.186 451.325 169.995 443.604C153.269 434.493 134.08 432.132 115.529 429.849L115.526 429.849C108.904 429.036 102.059 428.189 95.4591 427.05C52.1412 419.568 40.4358 397.557 37.4146 388.446C29.8828 365.742 43.6627 341.35 54.6855 324.987C55.9727 323.069 57.29 321.142 58.6073 319.215C70.9302 301.173 83.6711 282.516 84.1676 260.6C84.3023 254.882 83.5526 249.189 82.8246 243.679L82.7958 243.459L82.7958 243.458C81.912 236.666 81.0767 230.245 81.7745 223.784C84.7621 196.139 114.068 180.384 126.533 174.903C130.19 173.299 133.993 171.774 137.686 170.304C148.753 165.892 160.179 161.329 169.639 153.596C176.226 148.22 181.511 140.686 184.161 132.934C187.175 124.087 186.743 115.625 182.905 108.448C179.89 102.824 174.98 98.1995 170.232 93.729C162.899 86.8366 156.573 80.8814 157.81 72.6869C159.283 62.9333 171.91 58.0639 183.616 58.3109C198.105 58.6063 212.838 62.9333 227.084 67.1198C248.153 73.3097 269.942 79.705 291.258 73.087C303.973 69.1288 315.425 60.8479 326.506 52.8356L326.522 52.8242L326.539 52.8114C343.234 40.7394 359.004 29.3361 377.245 33.6595C384.842 35.4689 391.708 40.077 398.001 44.7817C440.047 76.2559 471.419 121.314 486.324 171.679C486.705 172.998 488.103 173.76 489.424 173.366C490.751 172.979 491.506 171.587 491.111 170.265C475.907 118.88 443.899 72.8999 400.993 40.7905C394.273 35.7542 386.879 30.8131 378.396 28.8081C357.932 23.9511 340.474 36.5761 323.598 48.7803L323.588 48.7875L323.572 48.7992C312.815 56.5755 301.702 64.6087 289.762 68.3231C269.882 74.4998 249.777 68.5965 228.475 62.3416L228.452 62.3349C213.904 58.0664 198.85 53.6496 183.699 53.3356C170.237 53.0576 154.845 58.769 152.849 71.962C151.222 82.7437 159.133 90.1917 166.79 97.3924L166.884 97.4811C171.308 101.656 175.873 105.964 178.481 110.834C185.518 123.971 177.539 140.689 166.461 149.751C157.613 156.987 146.566 161.396 135.872 165.665L135.824 165.684C132.093 167.169 128.238 168.707 124.511 170.35C111.253 176.187 80.0523 193.027 76.7948 223.271C76.0212 230.365 76.9481 237.421 77.8464 244.259L77.8465 244.259L77.8593 244.357C78.5598 249.676 79.282 255.178 79.1642 260.513C78.6992 280.942 66.3877 298.977 54.4821 316.416L54.4774 316.423C53.1521 318.356 51.8326 320.297 50.5373 322.22C38.927 339.458 24.4487 365.251 32.6634 390.044ZM73.5749 388.513C73.2507 388.069 72.9345 387.619 72.6286 387.148C59.8313 367.73 71.9171 342.271 80.2575 328.831C81.4089 326.973 82.5994 325.105 83.7965 323.226L83.7968 323.226L83.797 323.225L83.7973 323.225L83.7976 323.224L83.8007 323.219L84.3545 322.35C93.6393 307.812 103.231 292.778 102.023 276.365C101.643 271.209 100.14 265.968 98.686 260.894L98.6859 260.894L98.6257 260.683C96.5265 253.413 94.3586 245.896 95.1472 238.054C95.7997 231.586 99.8513 215.272 123.333 203.631C130.082 200.291 137.255 197.805 144.185 195.409C150.888 193.093 157.817 190.697 164.213 187.552C190.657 174.543 209.265 147.148 211.615 117.764C211.641 117.433 211.665 117.1 211.689 116.766C211.718 116.372 211.747 115.976 211.778 115.578C212.151 110.168 212.579 104.037 216.104 99.199C223.182 89.4792 236.882 90.9872 247.892 92.1991L247.9 92.2L249.716 92.3978C270.171 94.5913 291.255 90.1485 309.097 79.8888C313.035 77.6301 317.025 74.9922 320.89 72.4374L321.192 72.2382C334.098 63.6981 347.451 54.8699 363.072 56.0722C374.614 56.9591 384.583 63.2399 393.626 69.8987C429.279 96.1229 471.776 135.798 484.058 210.423C484.282 211.782 483.357 213.076 481.992 213.292C480.633 213.516 479.345 212.599 479.114 211.232C467.142 138.387 425.545 99.5904 390.657 73.9222C382.21 67.7073 372.97 61.848 362.687 61.0576C348.772 59.9857 336.72 67.9627 323.958 76.4095L323.953 76.4126C319.93 79.0763 315.764 81.8321 311.596 84.2298C292.852 94.9997 270.687 99.6745 249.197 97.3694L247.367 97.1695L247.342 97.1667C237.11 96.0475 225.522 94.78 220.16 102.144C217.485 105.816 217.144 110.724 216.785 115.907L216.784 115.923C216.732 116.667 216.678 117.424 216.62 118.159C214.138 149.262 194.435 178.261 166.441 192.03C159.819 195.289 152.781 197.727 145.977 200.085L145.837 200.133C139.044 202.479 132.029 204.911 125.575 208.111C110.828 215.419 101.321 226.802 100.143 238.555C99.4569 245.415 101.385 252.127 103.428 259.239L103.444 259.296L103.451 259.321C105.005 264.702 106.608 270.255 107.026 275.995C108.353 294.055 98.3129 309.79 88.6042 325.004L88.5879 325.03L88.3207 325.448L88.3187 325.452C87.0355 327.463 85.7628 329.458 84.5216 331.451C76.8045 343.879 65.5477 367.284 76.8112 384.381C87.2409 400.216 108.906 400.388 129.849 400.554L129.85 400.554L130.797 400.562L130.8 400.562L130.801 400.562C134.977 400.599 139.259 400.637 143.32 400.826C163.652 401.747 183.555 407.884 200.881 418.563C211.901 425.352 221.889 433.983 231.549 442.334C246.039 454.861 259.735 466.691 276.834 473.141C307.275 484.624 344.882 479.091 382.739 457.58C383.94 456.901 385.47 457.319 386.149 458.52C386.827 459.721 386.409 461.252 385.208 461.93C346.032 484.194 306.919 489.835 275.065 477.824C257.171 471.073 242.532 458.435 228.375 446.212L228.273 446.124L228.17 446.035C218.693 437.85 208.895 429.388 198.253 422.833C181.645 412.595 162.566 406.724 143.088 405.835C138.811 405.639 134.437 405.6 129.805 405.563L129.766 405.563C109.104 405.397 85.7719 405.209 73.583 388.507L73.5749 388.513ZM89.9341 377.206C90.3218 377.839 90.7279 378.446 91.1524 379.028L91.1744 379.024C103.119 395.392 127.769 390.351 147.726 386.271L147.749 386.266C149.981 385.813 152.183 385.37 154.316 384.952C178.122 380.355 203.167 383.816 224.833 394.708C237.533 401.086 249.206 410.064 260.504 418.753L260.505 418.754L260.561 418.797C276.233 430.857 292.443 443.316 311.754 449.217C341.53 458.313 357.948 454.551 389.34 445.879C390.665 445.506 391.445 444.132 391.08 442.801C390.708 441.476 389.334 440.696 388.003 441.061C357.555 449.466 341.653 453.122 313.203 444.434C294.776 438.809 279.652 427.179 263.645 414.87L263.599 414.835C252.106 405.99 240.208 396.845 227.069 390.241C204.42 378.866 178.241 375.242 153.358 380.043C151.628 380.378 149.853 380.739 148.049 381.105L148.046 381.105L148.033 381.108L148.014 381.112L147.392 381.238L146.738 381.371L146.65 381.389C126.54 385.503 103.796 390.157 94.2007 374.587C87.5219 363.739 92.7577 349.098 99.8801 339.011C102.556 335.213 105.653 331.517 108.643 327.948L108.734 327.84C114.497 320.949 120.451 313.828 124.083 305.304C128.804 294.236 129.304 281.725 129.787 269.623L129.791 269.546L129.793 269.495C130.437 253.333 131.047 238.06 141.27 227.31C147.353 220.916 156.089 217.345 163.798 214.193L163.817 214.185L163.821 214.184C190.662 203.212 227.409 188.191 241.881 156.659C243.392 153.376 244.647 149.92 245.865 146.57L245.986 146.236L245.999 146.2C248.8 138.471 251.446 131.169 256.815 125.755C265.466 117.016 278.13 115.845 291.541 114.612L291.718 114.596C300.102 113.815 308.763 113.009 316.667 110.228C322.36 108.224 327.636 105.192 332.739 102.259L332.764 102.244L332.77 102.241L332.771 102.24C339.947 98.1172 346.731 94.2195 354.392 93.0839C369.689 90.8216 384.499 100.514 394.308 108.001C429.029 134.509 461.597 167.143 464.756 226.044C464.826 227.429 466.006 228.486 467.385 228.408C468.77 228.338 469.828 227.158 469.75 225.779C466.478 164.857 433.014 131.267 397.341 104.03C386.809 95.9938 370.827 85.596 353.655 88.1378C345.058 89.4128 337.544 93.7311 330.282 97.9045L330.271 97.911L330.117 97.9994C325.244 100.796 320.214 103.682 315.006 105.51C307.624 108.1 299.215 108.876 291.082 109.624L291.078 109.624C277.37 110.889 263.197 112.197 253.259 122.223C247.121 128.407 244.159 136.578 241.296 144.475L241.28 144.52L241.091 145.039C239.925 148.235 238.727 151.519 237.329 154.559C223.681 184.289 187.985 198.888 161.924 209.538C154.141 212.717 144.463 216.673 137.644 223.852C126.122 235.985 125.45 252.923 124.8 269.308L124.799 269.338L124.797 269.378C124.333 281.045 123.853 293.1 119.488 303.334C116.124 311.221 110.629 317.782 104.816 324.722L104.809 324.73C101.749 328.374 98.5896 332.153 95.7876 336.117C87.746 347.507 81.9763 364.283 89.9341 377.206ZM116.248 361.134C114.763 359.099 113.711 356.759 113.25 354.125C112.255 348.487 114.195 342.9 115.755 338.406L140.267 267.718C142.496 261.289 145.023 253.997 149.781 248.185C157.816 238.348 170.138 234.591 182.055 230.957L182.059 230.955C185.08 230.039 188.206 229.082 191.158 228.054C214.016 220.088 233.619 204.371 246.361 183.782C247.98 181.165 249.552 178.383 251.07 175.679L251.098 175.628C256.413 166.212 261.906 156.481 271.188 150.387C278.078 145.867 286.119 144.01 293.891 142.225L293.949 142.212C301.462 140.481 308.567 138.845 314.639 134.982C318.215 132.706 321.282 129.75 324.527 126.614L324.628 126.517C327.765 123.492 331.008 120.365 334.802 117.878C344.536 111.505 356.786 109.919 370.227 113.307C381.361 116.112 393.189 122.311 403.528 130.761C427.325 150.224 454.963 188.536 454.531 232.441C454.523 233.821 453.391 234.932 452.005 234.916C450.625 234.908 449.513 233.775 449.529 232.389C449.936 190.249 423.296 153.388 400.355 134.624C383.525 120.859 356.974 109.311 337.536 122.048C334.109 124.29 331.147 127.152 328.02 130.175L328.02 130.175L327.997 130.198L327.901 130.29C324.645 133.427 321.283 136.666 317.324 139.187C310.521 143.521 302.637 145.338 295.021 147.083L294.977 147.093C287.31 148.859 280.073 150.525 273.944 154.554C265.674 159.983 260.716 168.767 255.463 178.072L255.432 178.128L255.301 178.36L255.301 178.36L255.301 178.36L255.301 178.361C253.798 181.024 252.245 183.776 250.612 186.399C237.275 207.955 216.746 224.422 192.807 232.756C189.883 233.771 186.84 234.702 183.884 235.606L183.884 235.606L183.527 235.715L183.486 235.727C172.301 239.142 160.734 242.672 153.657 251.324C149.455 256.457 147.188 263.002 144.997 269.33L120.485 340.018C119.042 344.165 117.413 348.871 118.178 353.227C119.784 362.281 131.673 366.85 141.342 365.291C147.648 364.27 153.471 361.643 159.627 358.866L159.676 358.844L159.852 358.764C163.662 357.045 167.586 355.275 171.651 353.93C199.396 344.688 228.657 355.843 248.317 366.837C258.38 372.467 268.058 379.01 277.416 385.353L277.508 385.415L277.508 385.415C289.292 393.389 301.475 401.633 314.377 407.96C351.91 426.362 373.309 435.294 412.2 420.815C413.492 420.33 414.928 420.991 415.413 422.284C415.898 423.576 415.237 425.011 413.945 425.497C373.133 440.685 350.983 431.47 312.175 412.439C298.988 405.975 286.675 397.646 274.767 389.591L274.615 389.489C265.341 383.209 255.755 376.723 245.882 371.201C227.103 360.703 199.253 350.004 173.237 358.665C169.442 359.934 165.654 361.635 161.984 363.283L161.983 363.283L161.735 363.395C155.536 366.198 149.115 369.089 142.14 370.218C132.573 371.765 121.602 368.419 116.261 361.101L116.248 361.134ZM143.706 318.046C142.423 325.617 143.653 332.358 147.078 337.051L147.082 337.023C147.672 337.831 148.328 338.578 149.051 339.263C157.239 347.005 169.073 343.951 179.508 341.251L179.908 341.149L179.916 341.147C181.237 340.81 182.538 340.478 183.806 340.17C214.045 332.943 244.049 347.424 273.074 361.433L273.086 361.438L273.548 361.661C281.198 365.35 289.087 369.155 296.834 372.469C311.604 378.799 323.615 385.843 334.203 392.056C359.828 407.102 380.073 418.981 418.49 408.315C419.82 407.95 420.595 406.568 420.23 405.237C419.865 403.906 418.483 403.132 417.152 403.497C380.779 413.601 362.306 402.759 336.734 387.751L336.729 387.748C326.011 381.458 313.855 374.334 298.796 367.881C291.001 364.545 282.995 360.682 275.255 356.946C245.448 342.549 214.622 327.671 182.639 335.314C181.476 335.591 180.299 335.894 179.101 336.202L179.086 336.206L179.078 336.208C178.806 336.278 178.533 336.348 178.259 336.419L178.247 336.422C168.616 338.909 158.664 341.479 152.487 335.642C147.267 330.711 148.063 322.269 148.638 318.866C151.418 302.489 163.913 287.787 186.848 273.922C190.364 271.801 194.036 269.691 197.581 267.661C212.375 259.18 227.673 250.405 238.313 236.673C243.377 230.143 247.474 222.474 251.439 215.049C259.591 199.79 267.296 185.377 282.347 181.166C286.844 179.904 291.605 179.759 296.637 179.606L296.638 179.606L296.718 179.603C303.347 179.408 310.207 179.206 316.5 176.26C324.769 172.391 329.91 164.864 334.875 157.588L334.884 157.576C339.149 151.334 343.175 145.441 348.984 141.721C365.905 130.896 389.04 143.785 403.379 160.346C423.343 183.411 436.691 212.728 440.955 242.93C441.143 244.291 442.411 245.247 443.779 245.053C445.148 244.859 446.097 243.597 445.903 242.229C441.499 211.088 427.739 180.834 407.154 157.071C391.45 138.944 365.711 125.083 346.285 137.514C339.612 141.789 335.095 148.39 330.742 154.774C325.943 161.804 321.414 168.439 314.373 171.734C309.023 174.241 302.989 174.424 296.595 174.618L296.559 174.619L296.55 174.619C291.404 174.774 286.101 174.933 280.985 176.366C263.886 181.151 255.326 197.164 247.043 212.658L247.017 212.705C243.152 219.945 239.156 227.429 234.353 233.621C224.342 246.552 209.504 255.067 195.151 263.303L195.093 263.336L194.518 263.667C191.121 265.616 187.631 267.619 184.258 269.659C160.002 284.328 146.738 300.148 143.706 318.046ZM204.602 311.871C204 311.047 203.444 310.166 202.948 309.215C196.554 297.144 203.976 281.972 214.606 273.212C218.911 269.665 223.685 266.727 228.308 263.882L228.412 263.818C234.523 260.064 240.288 256.513 245.098 251.703C250.863 245.931 255.168 238.307 259.334 230.929L259.396 230.82C265.86 219.356 272.55 207.504 284.887 201.967C289.319 199.983 294.06 199.048 298.63 198.152C303.421 197.219 307.947 196.33 312.031 194.327C317.68 191.566 322.049 186.917 326.676 181.993C330.049 178.405 333.534 174.698 337.617 171.693C359.899 155.321 392.379 165.799 409.695 184.879C427.68 204.691 434.508 231.67 440.533 255.476L440.542 255.512C440.877 256.852 440.071 258.208 438.737 258.55C437.402 258.893 436.041 258.079 435.698 256.744L435.697 256.74C429.816 233.501 423.148 207.147 405.999 188.244C385.63 165.796 356.182 164.273 340.587 175.728C336.876 178.449 333.56 181.978 330.347 185.398L330.327 185.419C325.597 190.456 320.704 195.66 314.235 198.822C309.554 201.111 304.497 202.103 299.596 203.055L299.561 203.062L299.56 203.062C295.078 203.939 290.831 204.769 286.938 206.524C276.093 211.393 270.096 222.021 263.75 233.275L263.713 233.34C259.371 241.028 254.885 248.973 248.632 255.239C243.444 260.441 237.187 264.294 231.139 268.018L231.139 268.018L231.03 268.085C226.518 270.858 221.854 273.729 217.782 277.072C208.707 284.536 202.218 297.17 207.357 306.876C212.47 316.528 225.162 317.924 237.448 319.271C240.34 319.587 243.33 319.918 246.16 320.353C259.704 322.44 272.196 328.378 284.28 334.13L284.298 334.139C287.956 335.882 291.746 337.689 295.483 339.337C311.205 346.289 324.304 354.506 336.968 362.45L336.969 362.45L337.137 362.555C366.447 380.954 389.605 395.486 426.122 381.402C427.408 380.909 428.854 381.55 429.356 382.83C429.849 384.117 429.208 385.563 427.927 386.064C389.079 401.047 363.792 385.181 334.501 366.803L334.485 366.793C321.919 358.904 308.928 350.756 293.465 343.917C289.677 342.242 285.861 340.427 282.177 338.675L282.173 338.673L282.134 338.654L282.125 338.65C270.37 333.057 258.215 327.274 245.402 325.301C242.703 324.887 239.924 324.58 236.972 324.253L236.907 324.246L236.894 324.245C224.985 322.935 211.602 321.464 204.602 311.871ZM236.85 291.259C236.806 293.828 237.698 296.136 239.119 298.083L239.081 298.098C241.038 300.78 243.978 302.757 246.808 303.75C250.626 305.086 254.558 305.238 258.371 305.385L258.439 305.388L258.645 305.396C259.542 305.43 260.428 305.463 261.318 305.516C278.796 306.536 294.458 314.14 311.038 322.189L311.05 322.195C319.944 326.512 329.145 330.976 338.576 334.282C349.826 338.22 359.437 345.555 368.734 352.65L368.755 352.666L368.756 352.667C385.682 365.581 403.197 378.944 429.863 370.328C431.189 369.905 431.903 368.492 431.478 367.181C431.061 365.863 429.643 365.141 428.331 365.565C404.153 373.371 388.445 361.388 371.806 348.694L371.789 348.681C362.172 341.339 352.234 333.76 340.224 329.551C331.057 326.337 321.996 321.944 313.229 317.683L313.216 317.677C296.922 309.765 280.07 301.582 261.599 300.507C260.868 300.466 260.138 300.438 259.407 300.409C259.145 300.399 258.883 300.389 258.621 300.378L258.606 300.377C254.997 300.242 251.579 300.114 248.469 299.021C245.124 297.847 241.754 294.823 241.817 291.347C241.861 288.456 244.108 285.751 246.604 283.013L281.677 244.506C287.864 237.701 294.273 230.672 302.417 226.412C305.585 224.754 308.93 223.556 312.479 222.286L312.518 222.272C315.791 221.108 319.166 219.896 322.385 218.302C329.095 214.975 334.814 210.137 340.342 205.46L340.36 205.444L340.685 205.17C343.51 202.785 346.421 200.328 349.4 198.154C355.451 193.738 367.212 186.937 378.156 191.009C382.999 192.81 387.031 196.639 390.005 199.78C406.553 217.266 423.462 238.451 423.395 262.974C423.401 264.356 424.515 265.475 425.895 265.483C427.269 265.483 428.388 264.37 428.396 262.99C428.465 236.706 410.871 214.548 393.64 196.348C390.306 192.814 385.722 188.483 379.912 186.323C366.776 181.437 353.325 189.112 346.467 194.117C343.25 196.477 340.164 199.086 337.178 201.611L337.156 201.63L337.07 201.703C331.552 206.37 326.336 210.781 320.193 213.823C317.28 215.266 314.233 216.361 311.009 217.52L310.869 217.57L310.783 217.601C307.247 218.866 303.595 220.174 300.139 221.984C291.215 226.652 284.202 234.345 278.016 241.136L242.944 279.643L242.938 279.651C240.545 282.276 236.933 286.238 236.85 291.259Z" fill="url(#paint0_linear_96_1351)" fill-opacity="0.4"/>
<defs>
<linearGradient id="paint0_linear_96_1351" x1="235" y1="-187" x2="83.2632" y2="534.107" gradientUnits="userSpaceOnUse">
<stop stop-color="#E7BCFF"/>
<stop offset="1" stop-color="#E7BCFF" stop-opacity="0"/>
</linearGradient>
</defs>
</svg>
