<svg width="322" height="507" viewBox="0 0 322 507" fill="none" xmlns="http://www.w3.org/2000/svg">
<path fill-rule="evenodd" clip-rule="evenodd" d="M-59.7633 2.0264C-75.7011 4.48614 -91.0331 10.9521 -104.321 20.3575L-104.334 20.3911C-119.467 31.1022 -131.938 45.6261 -139.601 62.3213C-146.589 77.5465 -149.843 94.2571 -152.987 110.413L-152.988 110.414C-156.528 128.589 -160.187 147.375 -169.199 163.53C-175.242 174.362 -183.678 183.959 -191.845 193.243L-191.937 193.348C-199.311 201.741 -206.932 210.413 -212.938 220.13C-240.925 265.386 -212.071 331.372 -178.852 374.116C-178.006 375.208 -176.424 375.399 -175.341 374.559C-174.249 373.713 -174.052 372.14 -174.898 371.048C-193.433 347.18 -207.431 320.48 -214.312 295.837C-222.363 266.998 -220.414 241.728 -208.68 222.753C-202.869 213.359 -195.351 204.803 -188.082 196.534C-179.746 187.056 -171.124 177.254 -164.823 165.958C-155.433 149.106 -151.69 129.918 -148.078 111.36C-144.989 95.4894 -141.794 79.0772 -135.057 64.3973C-121.35 34.5177 -91.498 11.9917 -59.0058 6.99115C-26.5137 1.99063 8.72667 14.5125 30.7775 38.8814C32.3338 40.5984 33.8885 42.4324 35.4062 44.2227L35.7607 44.6409C42.1971 52.2632 48.8544 60.1456 58.456 63.7756C69.5351 67.9525 81.1077 65.2624 92.3021 62.6439C101.007 60.611 110.002 58.5201 118.47 59.8039C132.405 61.9227 145.364 73.6883 153.15 91.2835C156.928 99.8291 159.48 109.084 161.951 118.044L161.977 118.139L162.033 118.341L162.033 118.342C164.019 125.523 166.068 132.934 168.758 140.06C178.609 166.129 194.573 167.67 199.233 167.52C208.358 167.224 215.913 161.264 222.567 156.003C222.847 155.781 223.126 155.563 223.405 155.345L223.415 155.337C223.711 155.106 224.006 154.875 224.299 154.642C240.359 142.074 254.905 137.353 267.488 140.625C280.716 144.065 294.5 159.559 295.228 182.517C295.707 197.568 291.244 212.568 286.925 227.086L286.924 227.086L286.916 227.115L286.613 228.137L286.613 228.138C285.703 231.211 284.77 234.363 283.903 237.468C279.219 254.235 274.89 275.934 283.081 295.105C286.662 303.485 292.369 310.653 297.889 317.588L297.91 317.615C303.419 324.533 308.621 331.069 311.957 338.742C323.712 365.804 307.583 396.381 296.921 412.197C266.662 457.1 219.005 489.644 166.187 501.497C164.838 501.789 163.991 503.137 164.292 504.479C164.585 505.828 165.932 506.675 167.275 506.374C221.332 494.245 270.102 460.939 301.064 414.986C312.293 398.328 329.239 365.996 316.538 336.749C312.941 328.465 307.284 321.356 301.815 314.495L301.756 314.421C296.217 307.456 290.986 300.88 287.673 293.129C280.091 275.389 284.243 254.772 288.713 238.793C289.677 235.378 290.703 231.895 291.711 228.524C296.147 213.622 300.727 198.215 300.228 182.347C299.644 163.71 289.531 141.183 268.748 135.776C254.578 132.096 238.606 137.104 221.214 150.7C220.636 151.146 220.047 151.612 219.466 152.072C213.119 157.091 206.558 162.274 199.071 162.514C195.248 162.635 182.105 161.254 173.43 138.284C170.794 131.305 168.762 123.934 166.798 116.797C164.278 107.628 161.666 98.1568 157.724 89.2468C149.245 70.0838 134.852 57.2263 119.225 54.8468C109.831 53.4112 100.393 55.6104 91.26 57.7384L91.1723 57.7589C80.2257 60.3122 69.8774 62.724 60.2281 59.0787C51.8381 55.9143 45.8782 48.8613 39.5795 41.3989L39.2441 41.0023C37.6971 39.1724 36.1104 37.2955 34.4899 35.5064C11.3341 9.92262 -25.6577 -3.22177 -59.7633 2.0264ZM-64.2765 32.3456C-69.1004 33.8732 -73.4112 36.0912 -77.2556 38.8123L-77.2532 38.7984C-97.3349 53.0245 -104.712 80.8377 -107.114 93.6624C-108.318 100.091 -109.237 106.713 -110.128 113.137L-110.238 113.932L-110.239 113.942L-110.24 113.942C-112.726 131.993 -115.296 150.653 -124.184 166.426C-131.726 179.813 -143.545 190.567 -154.979 200.964L-155.09 201.065L-155.091 201.065C-166.426 211.385 -178.148 222.056 -186.08 235.522C-195.918 252.226 -196.917 279.2 -188.892 311.5C-181.552 341.049 -167.508 371.882 -150.361 396.108C-149.564 397.234 -148.003 397.501 -146.876 396.704C-145.75 395.907 -145.483 394.345 -146.28 393.219C-163.08 369.483 -176.841 339.258 -184.037 310.293C-191.743 279.275 -190.948 253.621 -181.772 238.06C-174.195 225.214 -162.722 214.777 -151.621 204.678L-151.61 204.668L-151.568 204.63C-139.857 193.979 -127.746 182.964 -119.82 168.887C-110.468 152.295 -107.829 133.141 -105.278 114.625L-105.277 114.623C-104.369 108.014 -103.422 101.181 -102.188 94.5985C-94.0787 51.3936 -71.9006 40.0084 -62.7475 37.1195C-39.9363 29.9174 -15.7466 44.0494 0.455329 55.3081C2.3538 56.6229 4.26148 57.968 6.16914 59.3131C24.0312 71.8961 42.5017 84.906 64.4076 85.72C70.1238 85.9376 75.8263 85.2704 81.3463 84.6223L81.5675 84.5968L81.5677 84.5967C88.3722 83.8115 94.8043 83.0692 101.255 83.8606C128.854 87.2484 144.182 116.78 149.482 129.323C151.034 133.003 152.503 136.827 153.919 140.541C158.17 151.671 162.567 163.162 170.162 172.733C175.442 179.397 182.899 184.791 190.611 187.552C199.414 190.694 207.882 190.385 215.113 186.651C220.78 183.718 225.476 178.876 230.014 174.193C237.012 166.961 243.059 160.721 251.234 162.077C260.966 163.692 265.651 176.388 265.235 188.089C264.73 202.573 260.19 217.241 255.797 231.425C249.303 252.402 242.592 274.096 248.901 295.506C252.674 308.276 260.788 319.848 268.639 331.043L268.65 331.059L268.663 331.077C280.492 347.945 291.665 363.878 287.078 382.055C285.159 389.625 280.452 396.423 275.656 402.648C243.576 444.233 198.068 474.949 147.493 489.123C146.168 489.484 145.386 490.871 145.761 492.198C146.129 493.531 147.51 494.305 148.837 493.93C200.437 479.472 246.876 448.134 279.604 405.698C284.737 399.05 289.785 391.729 291.912 383.276C297.065 362.884 284.695 345.246 272.736 328.195L272.729 328.185L272.718 328.168C265.098 317.299 257.227 306.071 253.686 294.079C247.798 274.111 253.992 254.094 260.555 232.885L260.562 232.862C265.041 218.377 269.675 203.389 270.209 188.244C270.681 174.788 265.194 159.315 252.031 157.127C241.274 155.344 233.712 163.147 226.401 170.698L226.311 170.791C222.073 175.154 217.699 179.657 212.791 182.194C199.554 189.039 182.954 180.819 174.053 169.611C166.946 160.659 162.697 149.549 158.584 138.794L158.566 138.747C157.135 134.994 155.653 131.118 154.064 127.366C148.419 114.026 132.034 82.5843 101.84 78.8889C94.7574 78.0126 87.6895 78.8371 80.8394 79.6363L80.8387 79.6363L80.7411 79.6477C75.4119 80.2711 69.9001 80.9135 64.5675 80.7184C44.1474 79.9575 26.2931 67.3859 9.02773 55.2289L9.02091 55.2241C7.10748 53.8709 5.18586 52.5234 3.2816 51.2004C-13.7861 39.3416 -39.3666 24.491 -64.2765 32.3456ZM-63.338 73.275C-62.8891 72.9572 -62.4344 72.6476 -61.9599 72.3486C-42.3577 59.834 -17.0772 72.2874 -3.75932 80.8216C-1.91794 81.9998 -0.0671749 83.2173 1.79394 84.4415L1.79436 84.4418L1.79477 84.4421L1.79518 84.4423L1.7956 84.4426L1.80053 84.4458L2.66165 85.0122C17.0635 94.5066 31.9568 104.315 48.3858 103.345C53.547 103.039 58.8091 101.613 63.9039 100.233L63.9042 100.233L64.1151 100.175C71.4148 98.1818 78.9624 96.123 86.7926 97.0251C93.2504 97.7713 109.504 102.059 120.803 125.707C124.045 132.503 126.427 139.712 128.722 146.675C130.942 153.411 133.236 160.375 136.288 166.816C148.913 193.446 176.036 212.448 205.382 215.224C205.713 215.254 206.046 215.283 206.38 215.312C206.773 215.347 207.169 215.381 207.566 215.418C212.97 215.869 219.094 216.386 223.88 219.981C233.497 227.199 231.79 240.876 230.419 251.867L230.418 251.876L230.194 253.688C227.704 274.109 231.841 295.255 241.841 313.244C244.042 317.214 246.622 321.243 249.121 325.144L249.316 325.448C257.668 338.478 266.302 351.957 264.873 367.559C263.819 379.086 257.394 388.963 250.605 397.909C223.867 433.178 183.581 475.096 108.786 486.295C107.424 486.5 106.143 485.556 105.947 484.188C105.742 482.826 106.678 481.551 108.048 481.341C181.059 470.425 220.454 429.395 246.625 394.883C252.962 386.526 258.955 377.372 259.894 367.102C261.167 353.203 253.366 341.037 245.105 328.154L245.102 328.149C242.497 324.088 239.801 319.882 237.464 315.68C226.967 296.782 222.614 274.551 225.23 253.097L225.457 251.271L225.46 251.245C226.727 241.031 228.162 229.463 220.877 223.994C217.244 221.266 212.342 220.854 207.164 220.42L207.148 220.419C206.405 220.356 205.649 220.291 204.914 220.223C173.852 217.29 145.141 197.169 131.779 168.978C128.616 162.309 126.28 155.237 124.021 148.399L123.975 148.259C121.728 141.433 119.397 134.384 116.291 127.884C109.198 113.033 97.9542 103.361 86.2189 102.013C79.3703 101.228 72.6307 103.058 65.4896 104.998L65.4323 105.014L65.4076 105.02C60.0045 106.496 54.4286 108.018 48.6839 108.353C30.6058 109.419 15.0185 99.1511 -0.0536257 89.223L-0.0789742 89.2062L-0.493778 88.9331L-0.496962 88.9309C-2.48932 87.6188 -4.46551 86.3173 -6.4408 85.0474C-18.7559 77.151 -41.9952 65.5562 -59.2533 76.5708C-75.2381 86.77 -75.7235 108.43 -76.1927 129.369L-76.1927 129.37L-76.2148 130.317L-76.2149 130.319L-76.2149 130.32C-76.3123 134.495 -76.4123 138.776 -76.6599 142.834C-77.8762 163.15 -84.3006 182.963 -95.2299 200.132C-102.177 211.053 -110.953 220.915 -119.443 230.453C-132.178 244.759 -144.205 258.283 -150.902 275.287C-162.825 305.558 -157.837 343.241 -136.877 381.406C-136.216 382.616 -136.656 384.141 -137.867 384.801C-139.078 385.462 -140.602 385.022 -141.263 383.812C-162.957 344.317 -168.031 305.126 -155.559 273.45C-148.55 255.655 -135.701 241.202 -123.273 227.223L-123.184 227.122L-123.094 227.021C-114.772 217.663 -106.169 207.989 -99.4613 197.443C-88.9839 180.985 -82.8362 161.993 -81.6654 142.53C-81.4075 138.256 -81.305 133.883 -81.2013 129.252L-81.2004 129.213C-80.7349 108.555 -80.2094 85.2288 -63.3322 73.2831L-63.338 73.275ZM-52.2691 89.7963C-52.9077 90.1748 -53.5209 90.5721 -54.1086 90.988L-54.1052 91.0101C-70.644 102.716 -65.9615 127.437 -62.1704 147.451L-62.1662 147.473C-61.7457 149.712 -61.3344 151.92 -60.9472 154.06C-56.6954 177.93 -60.5196 202.922 -71.7244 224.427C-78.2858 237.034 -87.432 248.576 -96.2836 259.746L-96.2846 259.747L-96.3286 259.803C-108.614 275.298 -121.307 291.326 -127.487 310.549C-137.013 340.19 -133.49 356.661 -125.273 388.176C-124.92 389.506 -123.557 390.306 -122.221 389.961C-120.891 389.607 -120.091 388.245 -120.436 386.909C-128.399 356.342 -131.825 340.389 -122.725 312.067C-116.834 293.724 -104.986 278.77 -92.4462 262.943L-92.4104 262.898C-83.3998 251.534 -74.0841 239.77 -67.2902 226.728C-55.5882 204.246 -51.5848 178.123 -56.0249 153.173C-56.3349 151.438 -56.6696 149.657 -57.0096 147.849L-57.0102 147.846L-57.0126 147.833L-57.0163 147.813L-57.1335 147.19L-57.2565 146.534L-57.2733 146.446C-61.0963 126.278 -65.4202 103.469 -49.7127 94.1004C-38.7688 87.5795 -24.2054 93.0268 -14.2219 100.295C-10.4637 103.025 -6.81314 106.175 -3.28765 109.217L-3.18056 109.31C3.62638 115.172 10.6596 121.229 19.1304 124.983C30.1284 129.864 42.6309 130.545 54.7253 131.204L54.8024 131.209L54.8528 131.211C71.004 132.09 86.2665 132.921 96.8672 143.298C103.172 149.474 106.617 158.261 109.656 166.015L109.664 166.034L109.665 166.037C120.247 193.035 134.734 229.995 166.053 244.923C169.313 246.481 172.751 247.787 176.083 249.052L176.416 249.179L176.451 249.192C184.139 252.104 191.401 254.856 196.737 260.303C205.35 269.079 206.337 281.759 207.376 295.187L207.39 295.365C208.049 303.759 208.729 312.43 211.395 320.374C213.317 326.095 216.272 331.415 219.131 336.559L219.145 336.585L219.149 336.591L219.149 336.592C223.168 343.827 226.967 350.666 227.991 358.343C230.032 373.671 220.126 388.34 212.497 398.039C185.489 432.372 152.386 464.464 93.4462 466.769C92.0603 466.819 90.9858 467.984 91.0438 469.364C91.0936 470.75 92.2584 471.824 93.6386 471.766C154.602 469.377 188.673 436.403 216.424 401.129C224.612 390.714 235.24 374.885 232.947 357.678C231.797 349.063 227.588 341.488 223.52 334.166L223.514 334.155L223.428 334C220.702 329.086 217.889 324.015 216.137 318.782C213.654 311.362 213 302.943 212.37 294.801L212.37 294.796C211.304 281.071 210.202 266.881 200.321 256.798C194.226 250.571 186.099 247.492 178.244 244.515L178.199 244.498L177.683 244.301C174.504 243.089 171.238 241.843 168.219 240.401C138.689 226.324 124.609 190.421 114.338 164.208C111.272 156.38 107.457 146.645 100.377 139.724C88.4124 128.026 71.4865 127.109 55.1121 126.222L55.082 126.22L55.0422 126.218C43.3836 125.585 31.3368 124.931 21.167 120.418C13.3289 116.939 6.84845 111.35 -0.00630368 105.437L-0.0140337 105.43C-3.61363 102.318 -7.34647 99.1037 -11.2692 96.2445C-22.5413 88.0388 -39.232 82.0266 -52.2691 89.7963ZM-36.5806 116.341C-34.5237 114.885 -32.1688 113.867 -29.5281 113.444C-23.8768 112.531 -18.3183 114.551 -13.8475 116.177L56.4776 141.711C62.8741 144.032 70.1283 146.665 75.871 151.507C85.5901 159.683 89.1688 172.058 92.6298 184.026L92.6312 184.031C93.5039 187.064 94.4157 190.205 95.4004 193.171C103.034 216.142 118.466 235.971 138.868 249.01C141.461 250.666 144.22 252.279 146.902 253.835L146.953 253.864C156.29 259.315 165.94 264.948 171.899 274.318C176.319 281.272 178.06 289.339 179.731 297.136L179.744 297.194C181.366 304.732 182.899 311.861 186.673 317.987C188.897 321.596 191.808 324.705 194.897 327.996L194.993 328.098C197.972 331.279 201.051 334.566 203.483 338.396C209.715 348.222 211.123 360.493 207.541 373.884C204.574 384.976 198.204 396.713 189.606 406.928C169.8 430.441 131.091 457.521 87.1981 456.453C85.8183 456.425 84.7236 455.276 84.7598 453.891C84.7878 452.511 85.9364 451.416 87.3219 451.452C129.452 452.47 166.695 426.366 185.789 403.7C199.797 387.071 211.728 360.69 199.274 341.069C197.082 337.61 194.263 334.608 191.286 331.437L191.286 331.437L191.263 331.413L191.172 331.316C188.083 328.015 184.893 324.606 182.43 320.611C178.195 313.746 176.492 305.836 174.858 298.196L174.849 298.152C173.194 290.46 171.633 283.2 167.693 277.013C162.384 268.666 153.673 263.581 144.445 258.194L144.39 258.161L144.16 258.027L144.159 258.027L144.159 258.027L144.159 258.027C141.517 256.485 138.789 254.893 136.189 253.222C114.829 239.574 98.6611 218.808 90.675 194.751C89.7021 191.813 88.8157 188.756 87.9549 185.789L87.9547 185.788L87.8508 185.43L87.8389 185.389C84.5872 174.155 81.2244 162.538 72.6763 155.336C67.6042 151.061 61.0928 148.699 54.7973 146.416L-15.5278 120.883C-19.6539 119.38 -24.3349 117.683 -28.7019 118.385C-37.778 119.859 -42.5195 131.681 -41.1001 141.372C-40.1707 147.691 -37.6286 153.552 -34.9407 159.748L-34.9195 159.797L-34.8427 159.974C-33.1792 163.808 -31.466 167.757 -30.1796 171.842C-21.3404 199.718 -32.9186 228.814 -44.1962 248.313C-49.9714 258.294 -56.654 267.875 -63.1318 277.14L-63.1954 277.231L-63.1958 277.232C-71.3393 288.899 -79.7586 300.961 -86.2719 313.77C-105.216 351.032 -114.458 372.3 -100.544 411.396C-100.077 412.695 -100.759 414.121 -102.058 414.588C-103.357 415.054 -104.783 414.372 -105.25 413.073C-119.845 372.045 -110.31 350.032 -90.7192 311.503C-84.0646 298.412 -75.558 286.22 -67.3312 274.43L-67.2265 274.28C-60.813 265.097 -54.189 255.606 -48.525 245.815C-37.7557 227.19 -26.6543 199.498 -34.9372 173.36C-36.1508 169.546 -37.7967 165.734 -39.3919 162.04L-39.3921 162.04L-39.5001 161.789C-42.2132 155.55 -45.0102 149.089 -46.038 142.098C-47.4463 132.509 -43.942 121.588 -36.5469 116.354L-36.5806 116.341ZM6.10585 144.42C-1.44664 143.027 -8.2044 144.159 -12.9467 147.516L-12.9188 147.521C-13.735 148.098 -14.4911 148.744 -15.187 149.457C-23.0465 157.531 -20.1647 169.409 -17.6164 179.881L-17.52 180.283L-17.5181 180.291C-17.1999 181.617 -16.8865 182.923 -16.5969 184.195C-9.80935 214.536 -24.7233 244.326 -39.1513 273.146L-39.1569 273.157L-39.3866 273.617C-43.1859 281.212 -47.1046 289.045 -50.5312 296.743C-57.0741 311.42 -64.291 323.328 -70.6566 333.824C-86.0726 359.229 -98.2442 379.299 -88.1352 417.867C-87.7899 419.203 -86.4192 419.997 -85.0832 419.651C-83.7472 419.306 -82.9531 417.935 -83.2984 416.599C-92.8751 380.084 -81.7663 361.769 -66.3892 336.418L-66.3863 336.413C-59.9411 325.786 -52.6422 313.735 -45.9713 298.771C-42.5226 291.025 -38.544 283.076 -34.6968 275.391C-19.8696 245.796 -4.54634 215.189 -11.7248 183.099C-11.9846 181.932 -12.2705 180.751 -12.5617 179.548L-12.5652 179.533L-12.5671 179.525C-12.6332 179.252 -12.6996 178.978 -12.766 178.703L-12.7688 178.691C-15.1163 169.024 -17.5417 159.037 -11.6158 152.944C-6.61004 147.796 1.81985 148.715 5.21396 149.339C21.549 152.356 36.0684 165.063 49.6 188.197C51.6691 191.743 53.7259 195.445 55.7041 199.019C63.9702 213.935 72.5225 229.358 86.099 240.196C92.5553 245.354 100.164 249.561 107.531 253.634C122.67 262.006 136.969 269.919 140.962 285.029C142.159 289.544 142.235 294.307 142.315 299.341L142.315 299.341L142.316 299.422C142.416 306.053 142.519 312.915 145.373 319.25C149.121 327.574 156.573 332.824 163.776 337.894L163.789 337.903C169.968 342.258 175.802 346.368 179.437 352.231C190.017 369.307 176.793 392.253 160.026 406.351C136.675 425.979 107.167 438.9 76.9064 442.726C75.5433 442.894 74.5683 444.148 74.7426 445.519C74.9169 446.891 76.1647 447.857 77.5361 447.683C108.737 443.731 139.187 430.412 163.246 410.173C181.599 394.733 195.832 369.197 183.683 349.593C179.505 342.859 172.97 338.247 166.65 333.802C159.69 328.902 153.121 324.277 149.93 317.189C147.5 311.803 147.404 305.767 147.303 299.371L147.303 299.335L147.302 299.325C147.222 294.178 147.14 288.874 145.782 283.738C141.244 266.571 125.358 257.78 109.985 249.272L109.939 249.247C102.755 245.277 95.3296 241.173 89.2081 236.281C76.4238 226.084 68.1247 211.124 60.097 196.653L60.0646 196.594L59.7426 196.014C57.8425 192.589 55.8904 189.071 53.8993 185.668C39.5841 161.203 23.9579 147.711 6.10585 144.42ZM11.3975 205.399C12.2301 204.809 13.1194 204.266 14.077 203.784C26.239 197.565 41.3022 205.207 49.907 215.962C53.3914 220.318 56.2599 225.134 59.0381 229.798L59.1004 229.902C62.7659 236.068 66.2329 241.884 70.9723 246.762C76.6605 252.611 84.2208 257.026 91.5378 261.298L91.6458 261.361C103.015 267.991 114.769 274.852 120.127 287.268C122.047 291.728 122.912 296.482 123.742 301.065C124.606 305.868 125.429 310.407 127.373 314.52C130.051 320.208 134.636 324.644 139.493 329.342C143.032 332.766 146.688 336.304 149.633 340.431C165.681 362.948 154.734 395.273 135.405 412.31C115.333 430.007 88.2588 436.443 64.368 442.123L64.332 442.131C62.9869 442.446 61.6431 441.621 61.3199 440.281C60.9967 438.942 61.8302 437.593 63.1696 437.269L63.1736 437.268C86.4963 431.725 112.944 425.439 132.093 408.566C154.834 388.525 156.783 359.101 145.555 343.342C142.889 339.593 139.408 336.225 136.035 332.963L136.014 332.943C131.047 328.14 125.914 323.173 122.846 316.658C120.625 311.945 119.706 306.874 118.825 301.96L118.819 301.924L118.819 301.924C118.007 297.429 117.238 293.17 115.54 289.252C110.829 278.338 100.289 272.188 89.1279 265.679L89.0631 265.642C81.4394 261.189 73.5605 256.588 67.385 250.244C62.2596 244.982 58.4976 238.669 54.8615 232.568L54.8614 232.568L54.7963 232.459C52.0887 227.906 49.2853 223.201 46.0016 219.081C38.6698 209.9 26.1309 203.228 16.3515 208.226C6.62676 213.198 5.04697 225.869 3.52243 238.134C3.16474 241.021 2.79032 244.006 2.31433 246.83C0.0310933 260.342 -6.08701 272.746 -12.0139 284.746L-12.0229 284.764C-13.8191 288.396 -15.6803 292.16 -17.3825 295.872C-24.5618 311.492 -32.9673 324.47 -41.0941 337.018L-41.0946 337.019L-41.2021 337.185C-60.0235 366.226 -74.8894 389.171 -61.3361 425.888C-60.8615 427.182 -61.5234 428.618 -62.8112 429.101C-64.1047 429.575 -65.541 428.913 -66.0237 427.626C-80.442 388.564 -64.2118 363.51 -45.4111 334.488L-45.4009 334.472C-37.3308 322.022 -28.9949 309.151 -21.9329 293.788C-20.2028 290.025 -18.3331 286.236 -16.5278 282.578L-16.5257 282.573L-16.5067 282.535L-16.502 282.525C-10.7394 270.853 -4.78126 258.783 -2.62265 246C-2.16908 243.307 -1.82167 240.533 -1.45272 237.586L-1.44457 237.521L-1.44299 237.508C0.0388654 225.62 1.70415 212.26 11.3975 205.399ZM31.5404 237.942C28.9716 237.861 26.6511 238.72 24.684 240.112L24.669 240.074C21.9591 241.992 19.9401 244.903 18.9062 247.718C17.5146 251.516 17.3057 255.446 17.1032 259.257L17.0997 259.324L17.0889 259.53C17.042 260.427 16.9957 261.312 16.9303 262.201C15.6569 279.662 7.82674 295.213 -0.461858 311.674L-0.467923 311.686C-4.91298 320.517 -9.51043 329.652 -12.9523 339.034C-17.0535 350.225 -24.5266 359.729 -31.756 368.923L-31.7716 368.943L-31.773 368.945C-44.9308 385.682 -58.546 403.001 -50.3174 429.789C-49.9139 431.121 -48.5116 431.856 -47.194 431.45C-45.8705 431.052 -45.1274 429.644 -45.5333 428.326C-52.988 404.038 -40.7781 388.505 -27.8445 372.052L-27.8313 372.035C-20.3504 362.525 -12.6287 352.698 -8.2458 340.751C-4.89924 331.631 -0.375596 322.635 4.01194 313.93L4.01858 313.917C12.1655 297.74 20.5917 281.008 21.9345 262.555C21.9856 261.824 22.0247 261.095 22.0639 260.364C22.0779 260.102 22.0919 259.841 22.1066 259.578L22.1073 259.564C22.2947 255.957 22.472 252.541 23.6103 249.448C24.8325 246.12 27.9053 242.794 31.3795 242.908C34.2702 242.993 36.9422 245.28 39.6434 247.815L77.6381 283.442C84.3534 289.727 91.2886 296.237 95.4301 304.442C97.0425 307.634 98.1914 310.996 99.4102 314.562L99.4237 314.602C100.539 317.892 101.702 321.283 103.25 324.525C106.479 331.283 111.234 337.071 115.831 342.666L115.846 342.685L116.115 343.013C118.459 345.873 120.874 348.819 123.005 351.83C127.332 357.943 133.962 369.803 129.732 380.686C127.861 385.502 123.974 389.479 120.79 392.406C103.066 408.7 81.6384 425.3 57.1188 424.878C55.7366 424.864 54.602 425.961 54.5739 427.341C54.5541 428.715 55.6512 429.849 57.0309 429.877C83.3105 430.328 105.721 413.057 124.169 396.091C127.751 392.808 132.148 388.288 134.392 382.509C139.468 369.446 131.988 355.885 127.083 348.955C124.77 345.704 122.206 342.581 119.725 339.559L119.706 339.536L119.635 339.449C115.048 333.864 110.712 328.584 107.76 322.398C106.36 319.464 105.309 316.402 104.197 313.162L104.149 313.021L104.119 312.935C102.905 309.381 101.65 305.71 99.8908 302.228C95.3528 293.237 87.7623 286.114 81.0609 279.831L43.0662 244.204L43.0589 244.197C40.4688 241.767 36.5593 238.098 31.5404 237.942Z" fill="url(#paint0_linear_79_642)" fill-opacity="0.4"/>
<defs>
<linearGradient id="paint0_linear_79_642" x1="509.776" y1="243.022" x2="-209.057" y2="80.8526" gradientUnits="userSpaceOnUse">
<stop stop-color="#E7BCFF"/>
<stop offset="1" stop-color="#E7BCFF" stop-opacity="0"/>
</linearGradient>
</defs>
</svg>
