<svg width="314" height="547" viewBox="0 0 314 547" fill="none" xmlns="http://www.w3.org/2000/svg">
<path fill-rule="evenodd" clip-rule="evenodd" d="M312.175 385.971C309.484 401.872 302.797 417.108 293.2 430.259L293.166 430.271C282.237 445.247 267.534 457.507 250.729 464.927C235.404 471.694 218.648 474.705 202.449 477.615L202.447 477.615C184.223 480.892 165.386 484.278 149.102 493.055C138.184 498.941 128.466 507.236 119.064 515.268L118.958 515.359C110.459 522.611 101.677 530.104 91.8742 535.969C46.2174 563.298 -19.3437 533.49 -61.6015 499.656C-62.6809 498.794 -62.8496 497.21 -61.9935 496.139C-61.1316 495.059 -59.5557 494.885 -58.4763 495.747C-34.8796 514.626 -8.38533 529.009 16.1554 536.247C44.8745 544.714 70.1699 543.131 89.3138 531.674C98.7905 526 107.455 518.606 115.828 511.458C125.426 503.26 135.352 494.781 146.738 488.644C163.724 479.499 182.965 476.035 201.573 472.692C217.487 469.834 233.943 466.876 248.719 460.353C278.794 447.08 301.751 417.558 307.221 385.142C312.692 352.725 300.682 317.307 276.635 294.906C274.941 293.325 273.13 291.744 271.362 290.2L270.949 289.84C263.421 283.293 255.635 276.523 252.145 266.869C248.129 255.731 250.986 244.199 253.767 233.043C255.926 224.368 258.147 215.405 256.986 206.919C255.069 192.955 243.493 179.827 226.012 171.787C217.522 167.886 208.305 165.199 199.382 162.599L199.287 162.571L199.086 162.512L199.085 162.512C191.934 160.423 184.553 158.266 177.467 155.474C151.543 145.246 150.234 129.262 150.451 124.604C150.88 115.484 156.949 108.016 162.305 101.439C162.531 101.163 162.753 100.887 162.975 100.611L162.983 100.601C163.219 100.309 163.454 100.017 163.691 99.7272C176.49 83.8505 181.422 69.3748 178.332 56.7461C175.085 43.4694 159.792 29.4621 136.846 28.4019C121.804 27.705 106.741 31.9502 92.1625 36.0586L92.1624 36.0586L92.1328 36.0669L91.1065 36.3546L91.1057 36.3548C88.0199 37.2199 84.8547 38.1072 81.7373 38.9291C64.9039 43.3694 43.1445 47.3841 24.0942 38.9164C15.7676 35.2138 8.68232 29.404 1.82828 23.7838L1.80224 23.7625C-5.03565 18.1533 -11.4954 12.8573 -19.1191 9.41066C-46.0081 -2.73495 -76.8158 12.949 -92.7848 23.3806C-138.122 52.9857 -171.352 100.166 -183.969 152.807C-184.282 154.152 -185.641 154.979 -186.979 154.659C-188.323 154.346 -189.151 152.987 -188.831 151.649C-175.92 97.7735 -141.91 49.4909 -95.5137 19.1979C-78.6939 8.21117 -46.1204 -8.26396 -17.0604 4.85937C-8.82914 8.57611 -1.80328 14.3348 4.97807 19.9026L5.05167 19.9629C11.935 25.6028 18.4346 30.9283 26.1367 34.3533C43.7647 42.1916 64.4401 38.3391 80.4821 34.101C83.9104 33.1862 87.408 32.2104 90.7937 31.252C105.758 27.0321 121.23 22.6755 137.089 23.4043C155.716 24.2589 178.094 34.6973 183.199 55.5564C186.673 69.7782 181.435 85.676 167.588 102.868C167.134 103.44 166.659 104.023 166.191 104.597C161.08 110.87 155.803 117.356 155.454 124.839C155.278 128.66 156.468 141.821 179.31 150.827C186.25 153.565 193.591 155.703 200.699 157.77C209.83 160.423 219.263 163.172 228.115 167.243C247.153 175.999 259.8 190.577 261.953 206.236C263.253 215.65 260.917 225.055 258.657 234.156L258.635 234.244C255.923 245.152 253.362 255.464 256.867 265.166C259.91 273.6 266.875 279.662 274.246 286.068L274.637 286.409C276.445 287.983 278.298 289.596 280.064 291.243C305.309 314.767 317.916 351.945 312.175 385.971ZM281.793 390.044C280.196 394.846 277.916 399.124 275.139 402.929L275.153 402.926C260.638 422.8 232.72 429.773 219.862 431.989C213.417 433.099 206.782 433.922 200.346 434.72L199.549 434.819L199.54 434.82L199.54 434.82C181.454 437.045 162.759 439.344 146.859 448.003C133.364 455.35 122.44 467.012 111.878 478.295L111.776 478.404L111.775 478.404C101.293 489.589 90.4523 501.155 76.873 508.891C60.0289 518.486 33.0426 519.094 0.862878 510.602C-28.5772 502.834 -59.2031 488.345 -83.1779 470.849C-84.2926 470.036 -84.5371 468.471 -83.7236 467.356C-82.9101 466.241 -81.3451 465.997 -80.2304 466.81C-56.7403 483.953 -26.7182 498.15 2.13976 505.765C33.043 513.92 58.7056 513.497 74.398 504.547C87.3525 497.157 97.9548 485.836 108.213 474.882L108.223 474.872L108.263 474.83C119.082 463.275 130.271 451.325 144.462 443.604C161.187 434.493 180.377 432.132 198.928 429.849L198.93 429.849C205.552 429.036 212.398 428.189 218.998 427.05C262.315 419.568 274.021 397.557 277.042 388.446C284.574 365.742 270.794 341.35 259.771 324.987C258.484 323.069 257.167 321.142 255.849 319.215C243.526 301.173 230.786 282.516 230.289 260.6C230.154 254.882 230.904 249.189 231.632 243.679L231.661 243.459L231.661 243.458C232.545 236.666 233.38 230.245 232.682 223.784C229.695 196.139 200.388 180.384 187.923 174.903C184.266 173.299 180.464 171.774 176.77 170.304C165.704 165.892 154.277 161.329 144.817 153.596C138.23 148.22 132.946 140.686 130.296 132.934C127.282 124.087 127.714 115.625 131.552 108.448C134.567 102.824 139.477 98.1995 144.225 93.729C151.557 86.8366 157.884 80.8814 156.647 72.6869C155.173 62.9333 142.547 58.0639 130.841 58.3109C116.351 58.6063 101.619 62.9333 87.3722 67.1198C66.3033 73.3097 44.515 79.705 23.1987 73.087C10.4839 69.1288 -0.968492 60.8479 -12.0493 52.8356L-12.0651 52.8242L-12.0828 52.8114C-28.7775 40.7394 -44.5473 29.3361 -62.7879 33.6595C-70.3849 35.4689 -77.2513 40.077 -83.5443 44.7817C-125.591 76.2559 -156.962 121.314 -171.867 171.679C-172.248 172.998 -173.646 173.76 -174.968 173.366C-176.295 172.979 -177.049 171.587 -176.654 170.265C-161.451 118.88 -129.443 72.8999 -86.5368 40.7905C-79.816 35.7542 -72.4219 30.8131 -63.9394 28.8081C-43.4752 23.9511 -26.0174 36.5761 -9.14151 48.7803L-9.13163 48.7875L-9.11547 48.7992C1.64209 56.5755 12.755 64.6087 24.6946 68.3231C44.575 74.4998 64.6796 68.5965 85.9816 62.3416L86.0043 62.3349C100.553 58.0664 115.606 53.6496 130.758 53.3356C144.219 53.0576 159.611 58.769 161.608 71.962C163.235 82.7437 155.324 90.1917 147.667 97.3924L147.573 97.4811C143.149 101.656 138.583 105.964 135.976 110.834C128.939 123.971 136.918 140.689 147.995 149.751C156.844 156.987 167.891 161.396 178.585 165.665L178.632 165.684C182.364 167.169 186.218 168.707 189.946 170.35C203.204 176.187 234.404 193.027 237.662 223.271C238.435 230.365 237.509 237.421 236.61 244.259L236.61 244.259L236.597 244.357C235.897 249.676 235.175 255.178 235.292 260.513C235.757 280.942 248.069 298.977 259.974 316.416L259.979 316.423C261.305 318.356 262.624 320.297 263.919 322.22C275.53 339.458 290.008 365.251 281.793 390.044ZM240.882 388.513C241.206 388.069 241.522 387.619 241.828 387.148C254.625 367.73 242.54 342.271 234.199 328.831C233.048 326.973 231.857 325.105 230.66 323.226L230.66 323.226L230.66 323.225L230.659 323.225L230.659 323.224L230.656 323.219L230.102 322.35C220.817 307.812 211.226 292.778 212.434 276.365C212.814 271.209 214.316 265.968 215.771 260.894L215.771 260.894L215.831 260.683C217.93 253.413 220.098 245.896 219.309 238.054C218.657 231.586 214.605 215.272 191.123 203.631C184.375 200.291 177.202 197.805 170.272 195.409C163.569 193.093 156.639 190.697 150.244 187.552C123.799 174.543 105.192 147.148 102.841 117.764C102.816 117.433 102.792 117.1 102.767 116.766C102.739 116.372 102.71 115.976 102.679 115.578C102.306 110.168 101.878 104.037 98.3524 99.199C91.2746 89.4792 77.5743 90.9872 66.5647 92.1991L66.5562 92.2L64.7406 92.3978C44.2856 94.5913 23.2017 90.1485 5.36009 79.8888C1.42193 77.6301 -2.5687 74.9922 -6.43351 72.4374L-6.73493 72.2382C-19.6417 63.6981 -32.9942 54.8699 -48.6158 56.0722C-60.1572 56.9591 -70.126 63.2399 -79.1697 69.8987C-114.822 96.1229 -157.319 135.798 -169.601 210.423C-169.825 211.782 -168.9 213.076 -167.535 213.292C-166.176 213.516 -164.888 212.599 -164.658 211.232C-152.685 138.387 -111.088 99.5904 -76.2009 73.9222C-67.7534 67.7073 -58.5131 61.848 -48.2306 61.0576C-34.3152 59.9857 -22.2631 67.9627 -9.50136 76.4095L-9.49661 76.4126C-5.47345 79.0763 -1.30709 81.8321 2.86061 84.2298C21.605 94.9997 43.77 99.6745 65.2597 97.3694L67.0892 97.1695L67.1148 97.1667C77.3468 96.0475 88.9342 94.78 94.2965 102.144C96.9721 105.816 97.3124 110.724 97.6718 115.907L97.6729 115.923C97.7246 116.667 97.7785 117.424 97.8362 118.159C100.319 149.262 120.022 178.261 148.016 192.03C154.638 195.289 161.676 197.727 168.48 200.085L168.62 200.133C175.413 202.479 182.427 204.911 188.882 208.111C203.628 215.419 213.136 226.802 214.314 238.555C215 245.415 213.072 252.127 211.029 259.239L211.012 259.296L211.005 259.321C209.452 264.702 207.849 270.255 207.43 275.995C206.103 294.055 216.144 309.79 225.852 325.004L225.869 325.03L226.136 325.448L226.138 325.452C227.421 327.463 228.694 329.458 229.935 331.451C237.652 343.879 248.909 367.284 237.645 384.381C227.216 400.216 205.551 400.388 184.607 400.554L184.606 400.554L183.66 400.562L183.657 400.562L183.656 400.562C179.48 400.599 175.198 400.637 171.137 400.826C150.805 401.747 130.902 407.884 113.576 418.563C102.555 425.352 92.5673 433.983 82.9076 442.334C68.4181 454.861 54.7216 466.691 37.6224 473.141C7.18187 484.624 -30.4257 479.091 -68.282 457.58C-69.483 456.901 -71.0136 457.319 -71.692 458.52C-72.3704 459.721 -71.9523 461.252 -70.7514 461.93C-31.575 484.194 7.53802 489.835 39.3917 477.824C57.286 471.073 71.9243 458.435 86.0818 446.212L86.1835 446.124L86.2862 446.035C95.7637 437.85 105.561 429.388 116.204 422.833C132.811 412.595 151.89 406.724 171.368 405.835C175.646 405.639 180.02 405.6 184.652 405.563L184.691 405.563C205.353 405.397 228.685 405.209 240.874 388.507L240.882 388.513ZM224.523 377.206C224.135 377.839 223.729 378.446 223.304 379.028L223.282 379.024C211.338 395.392 186.687 390.351 166.73 386.271L166.708 386.266C164.476 385.813 162.274 385.37 160.14 384.952C136.334 380.355 111.289 383.816 89.6238 394.708C76.9237 401.086 65.2503 410.064 53.9528 418.753L53.9517 418.754L53.8956 418.797C38.2239 430.857 22.0133 443.316 2.70276 449.217C-27.0729 458.313 -43.4915 454.551 -74.8835 445.879C-76.2085 445.506 -76.9885 444.132 -76.6239 442.801C-76.2512 441.476 -74.8772 440.696 -73.5464 441.061C-43.0979 449.466 -27.1968 453.122 1.25412 444.434C19.6806 438.809 34.8044 427.179 50.8118 414.87L50.8575 414.835C62.3509 405.99 74.2484 396.845 87.3872 390.241C110.036 378.866 136.215 375.242 161.098 380.043C162.828 380.378 164.604 380.739 166.407 381.105L166.41 381.105L166.424 381.108L166.443 381.112L167.065 381.238L167.718 381.371L167.806 381.389C187.916 385.503 210.661 390.157 220.256 374.587C226.935 363.739 221.699 349.098 214.577 339.011C211.901 335.213 208.804 331.517 205.813 327.948L205.723 327.84C199.96 320.949 194.005 313.828 190.374 305.304C185.653 294.236 185.153 281.725 184.669 269.623L184.666 269.546L184.664 269.495C184.019 253.333 183.41 238.06 173.187 227.31C167.104 220.916 158.368 217.345 150.658 214.193L150.64 214.185L150.636 214.184C123.795 203.212 87.0479 188.191 72.5752 156.659C71.065 153.376 69.8092 149.92 68.5921 146.57L68.4706 146.236L68.4577 146.2C65.657 138.471 63.0111 131.169 57.642 125.755C48.991 117.016 36.3267 115.845 22.9154 114.612L22.7383 114.596C14.3544 113.815 5.69359 113.009 -2.21003 110.228C-7.90325 108.224 -13.1793 105.192 -18.2822 102.259L-18.3078 102.244L-18.3138 102.241L-18.3141 102.24C-25.4903 98.1172 -32.2741 94.2195 -39.9353 93.0839C-55.2322 90.8216 -70.0428 100.514 -79.8518 108.001C-114.572 134.509 -147.141 167.143 -150.299 226.044C-150.369 227.429 -151.549 228.486 -152.928 228.408C-154.313 228.338 -155.371 227.158 -155.293 225.779C-152.021 164.857 -118.557 131.267 -82.8839 104.03C-72.3521 95.9938 -56.3706 85.596 -39.1979 88.1378C-30.601 89.4128 -23.0872 93.7311 -15.8255 97.9045L-15.8142 97.911L-15.6602 97.9994C-10.7869 100.796 -5.7573 103.682 -0.54956 105.51C6.83291 108.1 15.2418 108.876 23.3742 109.624L23.3784 109.624C37.0869 110.889 51.2592 112.197 61.1981 122.223C67.336 128.407 70.2978 136.578 73.1603 144.475L73.1766 144.52L73.3659 145.039C74.5319 148.235 75.7299 151.519 77.1281 154.559C90.7758 184.289 126.472 198.888 152.533 209.538C160.315 212.717 169.994 216.673 176.812 223.852C188.335 235.985 189.007 252.923 189.657 269.308L189.658 269.338L189.659 269.378C190.124 281.045 190.603 293.1 194.969 303.334C198.333 311.221 203.828 317.782 209.641 324.722L209.647 324.73C212.707 328.374 215.867 332.153 218.669 336.117C226.711 347.507 232.48 364.283 224.523 377.206ZM198.208 361.134C199.694 359.099 200.745 356.759 201.207 354.125C202.201 348.487 200.262 342.9 198.701 338.406L174.189 267.718C171.961 261.289 169.434 253.997 164.675 248.185C156.641 238.348 144.319 234.591 132.402 230.957L132.397 230.955C129.377 230.039 126.25 229.082 123.299 228.054C100.441 220.088 80.8374 204.371 68.0953 183.782C66.4769 181.165 64.9044 178.383 63.387 175.679L63.3583 175.628C58.0435 166.212 52.5506 156.481 43.2687 150.387C36.379 145.867 28.3381 144.01 20.5661 142.225L20.5081 142.212C12.9942 140.481 5.88917 138.845 -0.182349 134.982C-3.7584 132.706 -6.82529 129.75 -10.0705 126.614L-10.1719 126.517C-13.3085 123.492 -16.5513 120.365 -20.3456 117.878C-30.0798 111.505 -42.3295 109.919 -55.7704 113.307C-66.9047 116.112 -78.7327 122.311 -89.0711 130.761C-112.869 150.224 -140.506 188.536 -140.075 232.441C-140.067 233.821 -138.934 234.932 -137.548 234.916C-136.168 234.908 -135.057 233.775 -135.073 232.389C-135.48 190.249 -108.839 153.388 -85.8984 134.624C-69.0688 120.859 -42.5175 109.311 -23.0794 122.048C-19.6523 124.29 -16.6908 127.152 -13.5637 130.175L-13.5634 130.175L-13.54 130.198L-13.4442 130.29C-10.1884 133.427 -6.8264 136.666 -2.86762 139.187C3.93559 143.521 11.82 145.338 19.4355 147.083L19.4795 147.093C27.147 148.859 34.3834 150.525 40.5129 154.554C48.7823 159.983 53.7406 168.767 58.9933 178.072L59.0246 178.128L59.1558 178.36L59.1558 178.36L59.1559 178.36L59.156 178.361C60.659 181.024 62.2113 183.776 63.8451 186.399C77.182 207.955 97.7109 224.422 121.65 232.756C124.574 233.771 127.617 234.702 130.572 235.606L130.573 235.606L130.929 235.715L130.97 235.727C142.155 239.142 153.723 242.672 160.8 251.324C165.001 256.457 167.269 263.002 169.46 269.33L193.972 340.018C195.414 344.165 197.044 348.871 196.279 353.227C194.673 362.281 182.784 366.85 173.114 365.291C166.809 364.27 160.986 361.643 154.829 358.866L154.781 358.844L154.605 358.764C150.795 357.045 146.871 355.275 142.805 353.93C115.06 344.688 85.7995 355.843 66.1395 366.837C56.0762 372.467 46.3989 379.01 37.041 385.353L36.949 385.415L36.9485 385.415C25.1647 393.389 12.9817 401.633 0.0793258 407.96C-37.4534 426.362 -58.8525 435.294 -97.743 420.815C-99.0355 420.33 -100.471 420.991 -100.956 422.284C-101.441 423.576 -100.78 425.011 -99.488 425.497C-58.676 440.685 -36.5265 431.47 2.28207 412.439C15.4684 405.975 27.7816 397.646 39.6898 389.591L39.8413 389.489C49.116 383.209 58.7021 376.723 68.5748 371.201C87.3532 360.703 115.204 350.004 141.219 358.665C145.015 359.934 148.802 361.635 152.473 363.283L152.473 363.283L152.722 363.395C158.921 366.198 165.341 369.089 172.317 370.218C181.884 371.765 192.855 368.419 198.196 361.101L198.208 361.134ZM170.751 318.046C172.034 325.617 170.804 332.358 167.379 337.051L167.375 337.023C166.785 337.831 166.129 338.578 165.406 339.263C157.218 347.005 145.383 343.951 134.949 341.251L134.549 341.149L134.541 341.147C133.22 340.81 131.919 340.478 130.651 340.17C100.411 332.943 70.408 347.424 41.3822 361.433L41.3708 361.438L40.9082 361.661C33.259 365.35 25.3692 369.155 17.623 372.469C2.85245 378.799 -9.15849 385.843 -19.7462 392.056C-45.3718 407.102 -65.6162 418.981 -104.033 408.315C-105.364 407.95 -106.138 406.568 -105.773 405.237C-105.409 403.906 -104.027 403.132 -102.696 403.497C-66.3229 413.601 -47.849 402.759 -22.2775 387.751L-22.2727 387.748C-11.554 381.458 0.601932 374.334 15.6609 367.881C23.4559 364.545 31.4621 360.682 39.2019 356.946C69.0083 342.549 99.8345 327.671 131.817 335.314C132.98 335.591 134.157 335.894 135.356 336.202L135.371 336.206L135.378 336.208C135.65 336.278 135.924 336.348 136.198 336.419L136.209 336.422C145.841 338.909 155.792 341.479 161.97 335.642C167.19 330.711 166.394 322.269 165.819 318.866C163.039 302.489 150.544 287.787 127.608 273.922C124.092 271.801 120.421 269.691 116.876 267.661C102.082 259.18 86.7836 250.405 76.1432 236.673C71.0794 230.143 66.9828 222.474 63.0175 215.049C54.8653 199.79 47.1603 185.377 32.11 181.166C27.6131 179.904 22.8518 179.759 17.8193 179.606L17.819 179.606L17.7384 179.603C11.1092 179.408 4.25001 179.206 -2.04303 176.26C-10.3123 172.391 -15.4531 164.864 -20.4186 157.588L-20.4273 157.576C-24.6921 151.334 -28.718 145.441 -34.5272 141.721C-51.4481 130.896 -74.5837 143.785 -88.9224 160.346C-108.887 183.411 -122.235 212.728 -126.498 242.93C-126.687 244.291 -127.954 245.247 -129.323 245.053C-130.691 244.859 -131.64 243.597 -131.446 242.229C-127.043 211.088 -113.283 180.834 -92.6976 157.071C-76.9931 138.944 -51.2541 125.083 -31.828 137.514C-25.1555 141.789 -20.6388 148.39 -16.285 154.774C-11.4868 161.804 -6.95766 168.439 0.0839895 171.734C5.43335 174.241 11.4677 174.424 17.8616 174.618L17.8972 174.619L17.9071 174.619C23.0525 174.774 28.3555 174.933 33.4714 176.366C50.5702 181.151 59.1306 197.164 67.4141 212.658L67.4392 212.705C71.3042 219.945 75.3003 227.429 80.1036 233.621C90.1143 246.552 104.952 255.067 119.305 263.303L119.363 263.336L119.939 263.667C123.336 265.616 126.825 267.619 130.199 269.659C154.455 284.328 167.719 300.148 170.751 318.046ZM109.855 311.871C110.456 311.047 111.013 310.166 111.508 309.215C117.903 297.144 110.48 281.972 99.8508 273.212C95.5459 269.665 90.772 266.727 86.1484 263.882L86.0448 263.818C79.9332 260.064 74.1683 256.513 69.3591 251.703C63.5931 245.931 59.2885 238.307 55.1225 230.929L55.0609 230.82C48.5965 219.356 41.9071 207.504 29.5697 201.967C25.1373 199.983 20.3967 199.048 15.8266 198.152C11.036 197.219 6.51 196.33 2.42548 194.327C-3.22309 191.566 -7.59222 186.917 -12.219 181.993C-15.5922 178.405 -19.0769 174.698 -23.1605 171.693C-45.4424 155.321 -77.9222 165.799 -95.2384 184.879C-113.224 204.691 -120.052 231.67 -126.077 255.476L-126.086 255.512C-126.42 256.852 -125.615 258.208 -124.28 258.55C-122.945 258.893 -121.584 258.079 -121.241 256.744L-121.24 256.74C-115.36 233.501 -108.691 207.147 -91.542 188.244C-71.1737 165.796 -41.7251 164.273 -26.13 175.728C-22.4197 178.449 -19.1032 181.978 -15.8903 185.398L-15.8705 185.419C-11.1403 190.456 -6.24786 195.66 0.222033 198.822C4.90233 201.111 9.95975 202.103 14.8606 203.055L14.8958 203.062L14.8962 203.062C19.379 203.939 23.626 204.769 27.519 206.524C38.3636 211.393 44.361 222.021 50.7066 233.275L50.7435 233.34C55.0851 241.028 59.572 248.973 65.825 255.239C71.0127 260.441 77.27 264.294 83.3178 268.018L83.3181 268.018L83.4263 268.085C87.939 270.858 92.6029 273.729 96.6749 277.072C105.749 284.536 112.239 297.17 107.099 306.876C101.987 316.528 89.2942 317.924 77.0088 319.271C74.1167 319.587 71.1267 319.918 68.2962 320.353C54.7523 322.44 42.2608 328.378 30.177 334.13L30.1587 334.139C26.5009 335.882 22.7106 337.689 18.9741 339.337C3.25162 346.289 -9.84721 354.506 -22.5118 362.45L-22.5126 362.45L-22.68 362.555C-51.9901 380.954 -75.1481 395.486 -111.665 381.402C-112.952 380.909 -114.398 381.55 -114.899 382.83C-115.392 384.117 -114.751 385.563 -113.471 386.064C-74.6223 401.047 -49.3357 385.181 -20.0442 366.803L-20.0284 366.793C-7.46244 358.904 5.52817 350.756 20.9921 343.917C24.7797 342.242 28.5952 340.427 32.2792 338.675L32.2836 338.673L32.3223 338.654L32.3321 338.65C44.0869 333.057 56.2412 327.274 69.0549 325.301C71.7539 324.887 74.533 324.58 77.4847 324.253L77.5498 324.246L77.5625 324.245C89.4713 322.935 102.854 321.464 109.855 311.871ZM77.6067 291.259C77.6504 293.828 76.7584 296.136 75.3377 298.083L75.3759 298.098C73.4188 300.78 70.4784 302.757 67.6491 303.75C63.8309 305.086 59.8985 305.238 56.0853 305.385L56.0175 305.388L55.8114 305.396C54.9143 305.43 54.0283 305.463 53.139 305.516C35.6611 306.536 19.9985 314.14 3.41883 322.189L3.40671 322.195C-5.48763 326.512 -14.688 330.976 -24.1197 334.282C-35.369 338.22 -44.9801 345.555 -54.2779 352.65L-54.298 352.666L-54.2997 352.667C-71.2259 365.581 -88.7404 378.944 -115.406 370.328C-116.732 369.905 -117.447 368.492 -117.022 367.181C-116.605 365.863 -115.186 365.141 -113.874 365.565C-89.6965 373.371 -73.9885 361.388 -57.3493 348.694L-57.3323 348.681C-47.7155 341.339 -37.7776 333.76 -25.7676 329.551C-16.6008 326.337 -7.53945 321.944 1.22758 317.683L1.24079 317.677C17.5346 309.765 34.387 301.582 52.8575 300.507C53.589 300.466 54.3185 300.438 55.0498 300.409C55.3116 300.399 55.5736 300.389 55.836 300.378L55.8507 300.377C59.4598 300.242 62.8775 300.114 65.9872 299.021C69.3322 297.847 72.7029 294.823 72.6395 291.347C72.5957 288.456 70.3481 285.751 67.8521 283.013L32.7799 244.506C26.5924 237.701 20.184 230.672 12.0396 226.412C8.8713 224.754 5.52631 223.556 1.97794 222.286L1.93866 222.272C-1.33483 221.108 -4.70895 219.896 -7.92806 218.302C-14.6387 214.975 -20.3573 210.137 -25.8852 205.46L-25.9037 205.444L-26.2281 205.17C-29.0532 202.785 -31.9641 200.328 -34.9437 198.154C-40.9939 193.738 -52.7558 186.937 -63.6995 191.009C-68.5424 192.81 -72.5747 196.639 -75.5479 199.78C-92.0968 217.266 -109.005 238.451 -108.939 262.974C-108.945 264.356 -110.058 265.475 -111.438 265.483C-112.812 265.483 -113.931 264.37 -113.939 262.99C-114.009 236.706 -96.4147 214.548 -79.1831 196.348C-75.849 192.814 -71.2652 188.483 -65.4549 186.323C-52.3197 181.437 -38.8682 189.112 -32.0102 194.117C-28.793 196.477 -25.7078 199.086 -22.7214 201.611L-22.6992 201.63L-22.613 201.703C-17.0951 206.37 -11.8789 210.781 -5.73641 213.823C-2.82302 215.266 0.22382 216.361 3.44784 217.52L3.58734 217.57L3.67355 217.601C7.20968 218.866 10.8619 220.174 14.318 221.984C23.2417 226.652 30.2549 234.345 36.4402 241.136L71.5124 279.643L71.5191 279.651C73.9117 282.276 77.5231 286.238 77.6067 291.259Z" fill="url(#paint0_linear_96_1385)" fill-opacity="0.4"/>
<defs>
<linearGradient id="paint0_linear_96_1385" x1="79.4566" y1="-187" x2="231.193" y2="534.107" gradientUnits="userSpaceOnUse">
<stop stop-color="#E7BCFF"/>
<stop offset="1" stop-color="#E7BCFF" stop-opacity="0"/>
</linearGradient>
</defs>
</svg>
