<svg width="330" height="547" viewBox="0 0 330 547" fill="none" xmlns="http://www.w3.org/2000/svg">
<path fill-rule="evenodd" clip-rule="evenodd" d="M2.28212 385.971C4.97253 401.872 11.66 417.108 21.2569 430.259L21.2908 430.271C32.22 445.247 46.923 457.507 63.7275 464.927C79.0524 471.694 95.8084 474.705 112.008 477.615L112.01 477.615C130.234 480.892 149.07 484.278 165.355 493.055C176.273 498.941 185.991 507.236 195.393 515.268L195.499 515.359C203.998 522.611 212.78 530.104 222.583 535.969C268.239 563.298 333.8 533.49 376.058 499.656C377.138 498.794 377.306 497.21 376.45 496.139C375.588 495.059 374.012 494.885 372.933 495.747C349.336 514.626 322.842 529.009 298.301 536.247C269.582 544.714 244.287 543.131 225.143 531.674C215.666 526 207.002 518.606 198.629 511.458C189.031 503.26 179.105 494.781 167.718 488.644C150.732 479.499 131.492 476.035 112.884 472.692C96.9702 469.834 80.5135 466.876 65.7374 460.353C35.6623 447.08 12.7062 417.558 7.23537 385.142C1.76457 352.725 13.7745 317.307 37.8214 294.906C39.5156 293.325 41.3269 291.744 43.095 290.2L43.508 289.84C51.0363 283.293 58.8214 276.523 62.3119 266.869C66.3278 255.731 63.4703 244.199 60.6898 233.043C58.531 224.368 56.31 215.405 57.471 206.919C59.3876 192.955 70.9642 179.827 88.4448 171.787C96.9347 167.886 106.152 165.199 115.075 162.599L115.169 162.571L115.371 162.512L115.372 162.512C122.523 160.423 129.903 158.266 136.99 155.474C162.914 145.246 164.223 129.262 164.006 124.604C163.577 115.484 157.508 108.016 152.152 101.439C151.926 101.163 151.703 100.887 151.482 100.611L151.473 100.601C151.238 100.309 151.003 100.017 150.766 99.7272C137.966 83.8505 133.035 69.3748 136.124 56.7461C139.372 43.4694 154.665 29.4621 177.61 28.4019C192.653 27.705 207.716 31.9502 222.294 36.0586L222.294 36.0586L222.324 36.0669L223.35 36.3546L223.351 36.3548C226.437 37.2199 229.602 38.1072 232.719 38.9291C249.553 43.3694 271.312 47.3841 290.363 38.9164C298.689 35.2138 305.774 29.404 312.628 23.7838L312.655 23.7625C319.492 18.1533 325.952 12.8573 333.576 9.41066C360.465 -2.73495 391.273 12.949 407.242 23.3806C452.579 52.9857 485.809 100.166 498.426 152.807C498.738 154.152 500.098 154.979 501.436 154.659C502.78 154.346 503.608 152.987 503.287 151.649C490.376 97.7735 456.367 49.4909 409.97 19.1979C393.151 8.21117 360.577 -8.26396 331.517 4.85937C323.286 8.57611 316.26 14.3348 309.479 19.9026L309.405 19.9629C302.522 25.6028 296.022 30.9283 288.32 34.3533C270.692 42.1916 250.017 38.3391 233.975 34.101C230.546 33.1862 227.049 32.2104 223.663 31.252C208.699 27.0321 193.227 22.6755 177.368 23.4043C158.741 24.2589 136.363 34.6973 131.258 55.5564C127.783 69.7782 133.022 85.676 146.868 102.868C147.323 103.44 147.797 104.023 148.266 104.597C153.376 110.87 158.654 117.356 159.002 124.839C159.178 128.66 157.988 141.821 135.147 150.827C128.206 153.565 120.866 155.703 113.758 157.77C104.627 160.423 95.1939 163.172 86.342 167.243C67.3039 175.999 54.6563 190.577 52.5035 206.236C51.2041 215.65 53.5398 225.055 55.8 234.156L55.8217 234.244C58.5334 245.152 61.0948 255.464 57.5897 265.166C54.5473 273.6 47.5814 279.662 40.2111 286.068L39.8193 286.409C38.0121 287.983 36.1584 289.596 34.3929 291.243C9.14732 314.767 -3.45968 351.945 2.28212 385.971ZM32.6635 390.044C34.2609 394.846 36.5411 399.124 39.3176 402.929L39.3037 402.926C53.8192 422.8 81.7365 429.773 94.5946 431.989C101.04 433.099 107.675 433.922 114.111 434.72L114.907 434.819L114.917 434.82L114.917 434.82C133.003 437.045 151.698 439.344 167.598 448.003C181.093 455.35 192.017 467.012 202.579 478.295L202.681 478.404L202.682 478.404C213.164 489.589 224.004 501.155 237.584 508.891C254.428 518.486 281.414 519.094 313.594 510.602C343.034 502.834 373.66 488.345 397.635 470.849C398.749 470.036 398.994 468.471 398.18 467.356C397.367 466.241 395.802 465.997 394.687 466.81C371.197 483.953 341.175 498.15 312.317 505.765C281.414 513.92 255.751 513.497 240.059 504.547C227.104 497.157 216.502 485.836 206.243 474.882L206.234 474.872L206.194 474.83C195.375 463.275 184.186 451.325 169.995 443.604C153.27 434.493 134.08 432.132 115.529 429.849L115.526 429.849C108.904 429.036 102.059 428.189 95.4592 427.05C52.1413 419.568 40.4359 397.557 37.4148 388.446C29.8829 365.742 43.6629 341.35 54.6857 324.987C55.9728 323.069 57.2901 321.142 58.6074 319.215C70.9303 301.173 83.6712 282.516 84.1677 260.6C84.3024 254.882 83.5527 249.189 82.8247 243.679L82.796 243.459L82.7959 243.458C81.9122 236.666 81.0768 230.245 81.7746 223.784C84.7622 196.139 114.069 180.384 126.533 174.903C130.191 173.299 133.993 171.774 137.686 170.304C148.753 165.892 160.18 161.329 169.639 153.596C176.226 148.22 181.511 140.686 184.161 132.934C187.175 124.087 186.743 115.625 182.905 108.448C179.89 102.824 174.98 98.1995 170.232 93.729C162.899 86.8366 156.573 80.8814 157.81 72.6869C159.283 62.9333 171.91 58.0639 183.616 58.3109C198.105 58.6063 212.838 62.9333 227.085 67.1198C248.153 73.3097 269.942 79.705 291.258 73.087C303.973 69.1288 315.425 60.8479 326.506 52.8356L326.522 52.8242L326.54 52.8114C343.234 40.7394 359.004 29.3361 377.245 33.6595C384.842 35.4689 391.708 40.077 398.001 44.7817C440.047 76.2559 471.419 121.314 486.324 171.679C486.705 172.998 488.103 173.76 489.424 173.366C490.752 172.979 491.506 171.587 491.111 170.265C475.907 118.88 443.9 72.8999 400.994 40.7905C394.273 35.7542 386.879 30.8131 378.396 28.8081C357.932 23.9511 340.474 36.5761 323.598 48.7803L323.588 48.7875L323.572 48.7992C312.815 56.5755 301.702 64.6087 289.762 68.3231C269.882 74.4998 249.777 68.5965 228.475 62.3416L228.452 62.3349C213.904 58.0664 198.85 53.6496 183.699 53.3356C170.237 53.0576 154.846 58.769 152.849 71.962C151.222 82.7437 159.133 90.1917 166.79 97.3924L166.884 97.4811C171.308 101.656 175.873 105.964 178.481 110.834C185.518 123.971 177.539 140.689 166.461 149.751C157.613 156.987 146.566 161.396 135.872 165.665L135.825 165.684C132.093 167.169 128.238 168.707 124.511 170.35C111.253 176.187 80.0525 193.027 76.7949 223.271C76.0214 230.365 76.9482 237.421 77.8466 244.259L77.8466 244.259L77.8594 244.357C78.5599 249.676 79.2821 255.178 79.1644 260.513C78.6994 280.942 66.3878 298.977 54.4823 316.416L54.4776 316.423C53.1522 318.356 51.8327 320.297 50.5374 322.22C38.9272 339.458 24.4489 365.251 32.6635 390.044ZM73.575 388.513C73.2508 388.069 72.9347 387.619 72.6288 387.148C59.8315 367.73 71.9172 342.271 80.2576 328.831C81.409 326.973 82.5995 325.105 83.7966 323.226L83.7969 323.226L83.7972 323.225L83.7974 323.225L83.7977 323.224L83.8009 323.219L84.3547 322.35C93.6395 307.812 103.231 292.778 102.023 276.365C101.643 271.209 100.141 265.968 98.6861 260.894L98.686 260.894L98.6258 260.683C96.5266 253.413 94.3587 245.896 95.1473 238.054C95.7999 231.586 99.8514 215.272 123.334 203.631C130.082 200.291 137.255 197.805 144.185 195.409C150.888 193.093 157.818 190.697 164.213 187.552C190.657 174.543 209.265 147.148 211.615 117.764C211.641 117.433 211.665 117.1 211.689 116.766C211.718 116.372 211.747 115.976 211.778 115.578C212.151 110.168 212.579 104.037 216.104 99.199C223.182 89.4792 236.882 90.9872 247.892 92.1991L247.901 92.2L249.716 92.3978C270.171 94.5913 291.255 90.1485 309.097 79.8888C313.035 77.6301 317.025 74.9922 320.89 72.4374L321.192 72.2382C334.098 63.6981 347.451 54.8699 363.073 56.0722C374.614 56.9591 384.583 63.2399 393.626 69.8987C429.279 96.1229 471.776 135.798 484.058 210.423C484.282 211.782 483.357 213.076 481.992 213.292C480.633 213.516 479.345 212.599 479.115 211.232C467.142 138.387 425.545 99.5904 390.658 73.9222C382.21 67.7073 372.97 61.848 362.687 61.0576C348.772 59.9857 336.72 67.9627 323.958 76.4095L323.953 76.4126C319.93 79.0763 315.764 81.8321 311.596 84.2298C292.852 94.9997 270.687 99.6745 249.197 97.3694L247.368 97.1695L247.342 97.1667C237.11 96.0475 225.523 94.78 220.16 102.144C217.485 105.816 217.144 110.724 216.785 115.907L216.784 115.923C216.732 116.667 216.678 117.424 216.621 118.159C214.138 149.262 194.435 178.261 166.441 192.03C159.819 195.289 152.781 197.727 145.977 200.085L145.837 200.133C139.044 202.479 132.03 204.911 125.575 208.111C110.828 215.419 101.321 226.802 100.143 238.555C99.457 245.415 101.385 252.127 103.428 259.239L103.444 259.296L103.451 259.321C105.005 264.702 106.608 270.255 107.026 275.995C108.354 294.055 98.3131 309.79 88.6043 325.004L88.588 325.03L88.3209 325.448L88.3188 325.452C87.0357 327.463 85.7629 329.458 84.5217 331.451C76.8046 343.879 65.5478 367.284 76.8113 384.381C87.2411 400.216 108.906 400.388 129.849 400.554L129.85 400.554L130.797 400.562L130.8 400.562L130.801 400.562C134.977 400.599 139.259 400.637 143.32 400.826C163.652 401.747 183.555 407.884 200.881 418.563C211.901 425.352 221.889 433.983 231.549 442.334C246.039 454.861 259.735 466.691 276.834 473.141C307.275 484.624 344.882 479.091 382.739 457.58C383.94 456.901 385.47 457.319 386.149 458.52C386.827 459.721 386.409 461.252 385.208 461.93C346.032 484.194 306.919 489.835 275.065 477.824C257.171 471.073 242.532 458.435 228.375 446.212L228.273 446.124L228.171 446.035C218.693 437.85 208.896 429.388 198.253 422.833C181.645 412.595 162.567 406.724 143.089 405.835C138.811 405.639 134.437 405.6 129.805 405.563L129.766 405.563C109.104 405.397 85.772 405.209 73.5831 388.507L73.575 388.513ZM89.9342 377.206C90.3219 377.839 90.728 378.446 91.1525 379.028L91.1745 379.024C103.119 395.392 127.769 390.351 147.726 386.271L147.749 386.266C149.981 385.813 152.183 385.37 154.316 384.952C178.123 380.355 203.167 383.816 224.833 394.708C237.533 401.086 249.206 410.064 260.504 418.753L260.505 418.754L260.561 418.797C276.233 430.857 292.443 443.316 311.754 449.217C341.53 458.313 357.948 454.551 389.34 445.879C390.665 445.506 391.445 444.132 391.081 442.801C390.708 441.476 389.334 440.696 388.003 441.061C357.555 449.466 341.654 453.122 313.203 444.434C294.776 438.809 279.652 427.179 263.645 414.87L263.599 414.835C252.106 405.99 240.208 396.845 227.07 390.241C204.42 378.866 178.241 375.242 153.359 380.043C151.629 380.378 149.853 380.739 148.049 381.105L148.046 381.105L148.033 381.108L148.014 381.112L147.392 381.238L146.739 381.371L146.65 381.389C126.54 385.503 103.796 390.157 94.2008 374.587C87.522 363.739 92.7578 349.098 99.8802 339.011C102.556 335.213 105.653 331.517 108.644 327.948L108.734 327.84C114.497 320.949 120.452 313.828 124.083 305.304C128.804 294.236 129.304 281.725 129.788 269.623L129.791 269.546L129.793 269.495C130.437 253.333 131.047 238.06 141.27 227.31C147.353 220.916 156.089 217.345 163.798 214.193L163.817 214.185L163.821 214.184C190.662 203.212 227.409 188.191 241.882 156.659C243.392 153.376 244.648 149.92 245.865 146.57L245.986 146.236L245.999 146.2C248.8 138.471 251.446 131.169 256.815 125.755C265.466 117.016 278.13 115.845 291.541 114.612L291.718 114.596C300.102 113.815 308.763 113.009 316.667 110.228C322.36 108.224 327.636 105.192 332.739 102.259L332.765 102.244L332.771 102.241L332.771 102.24C339.947 98.1172 346.731 94.2195 354.392 93.0839C369.689 90.8216 384.5 100.514 394.309 108.001C429.029 134.509 461.597 167.143 464.756 226.044C464.826 227.429 466.006 228.486 467.385 228.408C468.77 228.338 469.828 227.158 469.75 225.779C466.478 164.857 433.014 131.267 397.341 104.03C386.809 95.9938 370.827 85.596 353.655 88.1378C345.058 89.4128 337.544 93.7311 330.282 97.9045L330.271 97.911L330.117 97.9994C325.244 100.796 320.214 103.682 315.006 105.51C307.624 108.1 299.215 108.876 291.083 109.624L291.078 109.624C277.37 110.889 263.198 112.197 253.259 122.223C247.121 128.407 244.159 136.578 241.296 144.475L241.28 144.52L241.091 145.039C239.925 148.235 238.727 151.519 237.329 154.559C223.681 184.289 187.985 198.888 161.924 209.538C154.141 212.717 144.463 216.673 137.645 223.852C126.122 235.985 125.45 252.923 124.8 269.308L124.799 269.338L124.797 269.378C124.333 281.045 123.854 293.1 119.488 303.334C116.124 311.221 110.629 317.782 104.816 324.722L104.809 324.73C101.749 328.374 98.5898 332.153 95.7877 336.117C87.7462 347.507 81.9764 364.283 89.9342 377.206ZM116.248 361.134C114.763 359.099 113.711 356.759 113.25 354.125C112.255 348.487 114.195 342.9 115.755 338.406L140.267 267.718C142.496 261.289 145.023 253.997 149.781 248.185C157.816 238.348 170.138 234.591 182.055 230.957L182.059 230.955C185.08 230.039 188.207 229.082 191.158 228.054C214.016 220.088 233.619 204.371 246.361 183.782C247.98 181.165 249.552 178.383 251.07 175.679L251.098 175.628C256.413 166.212 261.906 156.481 271.188 150.387C278.078 145.867 286.119 144.01 293.891 142.225L293.949 142.212C301.463 140.481 308.568 138.845 314.639 134.982C318.215 132.706 321.282 129.75 324.527 126.614L324.629 126.517C327.765 123.492 331.008 120.365 334.802 117.878C344.537 111.505 356.786 109.919 370.227 113.307C381.361 116.112 393.189 122.311 403.528 130.761C427.326 150.224 454.963 188.536 454.531 232.441C454.523 233.821 453.391 234.932 452.005 234.916C450.625 234.908 449.513 233.775 449.53 232.389C449.936 190.249 423.296 153.388 400.355 134.624C383.526 120.859 356.974 109.311 337.536 122.048C334.109 124.29 331.148 127.152 328.02 130.175L328.02 130.175L327.997 130.198L327.901 130.29C324.645 133.427 321.283 136.666 317.324 139.187C310.521 143.521 302.637 145.338 295.021 147.083L294.977 147.093C287.31 148.859 280.073 150.525 273.944 154.554C265.674 159.983 260.716 168.767 255.463 178.072L255.432 178.128L255.301 178.36L255.301 178.36L255.301 178.36L255.301 178.361C253.798 181.024 252.245 183.776 250.612 186.399C237.275 207.955 216.746 224.422 192.807 232.756C189.883 233.771 186.84 234.702 183.885 235.606L183.884 235.606L183.527 235.715L183.486 235.727C172.301 239.142 160.734 242.672 153.657 251.324C149.455 256.457 147.188 263.002 144.997 269.33L120.485 340.018C119.042 344.165 117.413 348.871 118.178 353.227C119.784 362.281 131.673 366.85 141.342 365.291C147.648 364.27 153.471 361.643 159.628 358.866L159.676 358.844L159.852 358.764C163.662 357.045 167.586 355.275 171.651 353.93C199.397 344.688 228.657 355.843 248.317 366.837C258.381 372.467 268.058 379.01 277.416 385.353L277.508 385.415L277.508 385.415C289.292 393.389 301.475 401.633 314.377 407.96C351.91 426.362 373.309 435.294 412.2 420.815C413.492 420.33 414.928 420.991 415.413 422.284C415.898 423.576 415.237 425.011 413.945 425.497C373.133 440.685 350.983 431.47 312.175 412.439C298.988 405.975 286.675 397.646 274.767 389.591L274.615 389.489C265.341 383.209 255.755 376.723 245.882 371.201C227.104 360.703 199.253 350.004 173.238 358.665C169.442 359.934 165.655 361.635 161.984 363.283L161.983 363.283L161.735 363.395C155.536 366.198 149.115 369.089 142.14 370.218C132.573 371.765 121.602 368.419 116.261 361.101L116.248 361.134ZM143.706 318.046C142.423 325.617 143.653 332.358 147.078 337.051L147.082 337.023C147.672 337.831 148.328 338.578 149.051 339.263C157.239 347.005 169.074 343.951 179.508 341.251L179.908 341.149L179.916 341.147C181.237 340.81 182.538 340.478 183.806 340.17C214.045 332.943 244.049 347.424 273.075 361.433L273.086 361.438L273.549 361.661C281.198 365.35 289.088 369.155 296.834 372.469C311.604 378.799 323.615 385.843 334.203 392.056C359.829 407.102 380.073 418.981 418.49 408.315C419.821 407.95 420.595 406.568 420.23 405.237C419.865 403.906 418.483 403.132 417.153 403.497C380.78 413.601 362.306 402.759 336.734 387.751L336.729 387.748C326.011 381.458 313.855 374.334 298.796 367.881C291.001 364.545 282.995 360.682 275.255 356.946C245.448 342.549 214.622 327.671 182.64 335.314C181.476 335.591 180.3 335.894 179.101 336.202L179.086 336.206L179.078 336.208C178.806 336.278 178.533 336.348 178.259 336.419L178.248 336.422C168.616 338.909 158.665 341.479 152.487 335.642C147.267 330.711 148.063 322.269 148.638 318.866C151.418 302.489 163.913 287.787 186.848 273.922C190.364 271.801 194.036 269.691 197.581 267.661C212.375 259.18 227.673 250.405 238.314 236.673C243.377 230.143 247.474 222.474 251.439 215.049C259.591 199.79 267.296 185.377 282.347 181.166C286.844 179.904 291.605 179.759 296.637 179.606L296.638 179.606L296.718 179.603C303.348 179.408 310.207 179.206 316.5 176.26C324.769 172.391 329.91 164.864 334.875 157.588L334.884 157.576C339.149 151.334 343.175 145.441 348.984 141.721C365.905 130.896 389.04 143.785 403.379 160.346C423.343 183.411 436.691 212.728 440.955 242.93C441.143 244.291 442.411 245.247 443.78 245.053C445.148 244.859 446.097 243.597 445.903 242.229C441.499 211.088 427.74 180.834 407.154 157.071C391.45 138.944 365.711 125.083 346.285 137.514C339.612 141.789 335.096 148.39 330.742 154.774C325.944 161.804 321.414 168.439 314.373 171.734C309.023 174.241 302.989 174.424 296.595 174.618L296.56 174.619L296.55 174.619C291.404 174.774 286.101 174.933 280.985 176.366C263.887 181.151 255.326 197.164 247.043 212.658L247.018 212.705C243.153 219.945 239.156 227.429 234.353 233.621C224.342 246.552 209.504 255.067 195.151 263.303L195.093 263.336L194.518 263.667C191.121 265.616 187.631 267.619 184.258 269.659C160.002 284.328 146.738 300.148 143.706 318.046ZM204.602 311.871C204.001 311.047 203.444 310.166 202.948 309.215C196.554 297.144 203.977 281.972 214.606 273.212C218.911 269.665 223.685 266.727 228.308 263.882L228.412 263.818C234.524 260.064 240.288 256.513 245.098 251.703C250.864 245.931 255.168 238.307 259.334 230.929L259.396 230.82C265.86 219.356 272.55 207.504 284.887 201.967C289.319 199.983 294.06 199.048 298.63 198.152C303.421 197.219 307.947 196.33 312.031 194.327C317.68 191.566 322.049 186.917 326.676 181.993C330.049 178.405 333.534 174.698 337.617 171.693C359.899 155.321 392.379 165.799 409.695 184.879C427.681 204.691 434.508 231.67 440.534 255.476L440.543 255.512C440.877 256.852 440.071 258.208 438.737 258.55C437.402 258.893 436.041 258.079 435.698 256.744L435.697 256.74C429.817 233.501 423.148 207.147 405.999 188.244C385.63 165.796 356.182 164.273 340.587 175.728C336.876 178.449 333.56 181.978 330.347 185.398L330.327 185.419C325.597 190.456 320.705 195.66 314.235 198.822C309.554 201.111 304.497 202.103 299.596 203.055L299.561 203.062L299.561 203.062C295.078 203.939 290.831 204.769 286.938 206.524C276.093 211.393 270.096 222.021 263.75 233.275L263.713 233.34C259.372 241.028 254.885 248.973 248.632 255.239C243.444 260.441 237.187 264.294 231.139 268.018L231.139 268.018L231.03 268.085C226.518 270.858 221.854 273.729 217.782 277.072C208.707 284.536 202.218 297.17 207.357 306.876C212.47 316.528 225.163 317.924 237.448 319.271C240.34 319.587 243.33 319.918 246.161 320.353C259.704 322.44 272.196 328.378 284.28 334.13L284.298 334.139C287.956 335.882 291.746 337.689 295.483 339.337C311.205 346.289 324.304 354.506 336.969 362.45L336.969 362.45L337.137 362.555C366.447 380.954 389.605 395.486 426.122 381.402C427.409 380.909 428.854 381.55 429.356 382.83C429.849 384.117 429.208 385.563 427.927 386.064C389.079 401.047 363.792 385.181 334.501 366.803L334.485 366.793C321.919 358.904 308.929 350.756 293.465 343.917C289.677 342.242 285.862 340.427 282.178 338.675L282.173 338.673L282.134 338.654L282.125 338.65C270.37 333.057 258.216 327.274 245.402 325.301C242.703 324.887 239.924 324.58 236.972 324.253L236.907 324.246L236.894 324.245C224.985 322.935 211.603 321.464 204.602 311.871ZM236.85 291.259C236.806 293.828 237.698 296.136 239.119 298.083L239.081 298.098C241.038 300.78 243.978 302.757 246.808 303.75C250.626 305.086 254.558 305.238 258.372 305.385L258.439 305.388L258.645 305.396C259.542 305.43 260.428 305.463 261.318 305.516C278.796 306.536 294.458 314.14 311.038 322.189L311.05 322.195C319.944 326.512 329.145 330.976 338.576 334.282C349.826 338.22 359.437 345.555 368.735 352.65L368.755 352.666L368.756 352.667C385.683 365.581 403.197 378.944 429.863 370.328C431.189 369.905 431.903 368.492 431.478 367.181C431.062 365.863 429.643 365.141 428.331 365.565C404.153 373.371 388.445 361.388 371.806 348.694L371.789 348.681C362.172 341.339 352.234 333.76 340.224 329.551C331.058 326.337 321.996 321.944 313.229 317.683L313.216 317.677C296.922 309.765 280.07 301.582 261.599 300.507C260.868 300.466 260.138 300.438 259.407 300.409C259.145 300.399 258.883 300.389 258.621 300.378L258.606 300.377C254.997 300.242 251.579 300.114 248.47 299.021C245.125 297.847 241.754 294.823 241.817 291.347C241.861 288.456 244.109 285.751 246.605 283.013L281.677 244.506C287.864 237.701 294.273 230.672 302.417 226.412C305.585 224.754 308.93 223.556 312.479 222.286L312.518 222.272C315.792 221.108 319.166 219.896 322.385 218.302C329.095 214.975 334.814 210.137 340.342 205.46L340.36 205.444L340.685 205.17C343.51 202.785 346.421 200.328 349.4 198.154C355.451 193.738 367.213 186.937 378.156 191.009C382.999 192.81 387.031 196.639 390.005 199.78C406.554 217.266 423.462 238.451 423.396 262.974C423.402 264.356 424.515 265.475 425.895 265.483C427.269 265.483 428.388 264.37 428.396 262.99C428.465 236.706 410.871 214.548 393.64 196.348C390.306 192.814 385.722 188.483 379.912 186.323C366.776 181.437 353.325 189.112 346.467 194.117C343.25 196.477 340.165 199.086 337.178 201.611L337.156 201.63L337.07 201.703C331.552 206.37 326.336 210.781 320.193 213.823C317.28 215.266 314.233 216.361 311.009 217.52L310.869 217.57L310.783 217.601C307.247 218.866 303.595 220.174 300.139 221.984C291.215 226.652 284.202 234.345 278.017 241.136L242.944 279.643L242.938 279.651C240.545 282.276 236.934 286.238 236.85 291.259Z" fill="url(#paint0_linear_79_622)" fill-opacity="0.4"/>
<defs>
<linearGradient id="paint0_linear_79_622" x1="235" y1="-187" x2="83.2633" y2="534.107" gradientUnits="userSpaceOnUse">
<stop stop-color="#E7BCFF"/>
<stop offset="1" stop-color="#E7BCFF" stop-opacity="0"/>
</linearGradient>
</defs>
</svg>
