<svg width="95" height="38" viewBox="0 0 95 38" fill="none" xmlns="http://www.w3.org/2000/svg">
<path d="M30.1 28H33.65V17.025H36.075V14.15H33.65V13.575C33.65 12.025 34.225 11.475 35.925 11.525V8.575C32.025 8.475 30.1 10.05 30.1 13.45V14.15H28.525V17.025H30.1V28ZM38.3432 28H41.8432V14.15H38.3432V28ZM40.1182 12.5C41.3432 12.5 42.2682 11.6 42.2682 10.45C42.2682 9.3 41.3432 8.4 40.1182 8.4C38.8682 8.4 37.9682 9.3 37.9682 10.45C37.9682 11.6 38.8682 12.5 40.1182 12.5ZM55.0012 28H58.5012V19.875C58.5012 16.05 56.2012 13.95 52.9762 13.95C51.2012 13.95 49.7012 14.7 48.8012 15.875V14.15H45.3012V28H48.8012V20.35C48.8012 18.125 50.0262 16.925 51.9262 16.925C53.7762 16.925 55.0012 18.125 55.0012 20.35V28ZM71.1295 14.15H61.0795V17.025H67.1045L61.0545 25.175V28H71.2045V25.125H65.0295L71.1295 16.975V14.15ZM87.2895 21.075C87.2895 16.7 84.1645 13.925 80.1645 13.925C76.1645 13.925 73.0395 16.7 73.0395 21.075C73.0395 25.425 76.0645 28.225 80.0645 28.225C84.0895 28.225 87.2895 25.425 87.2895 21.075ZM76.5895 21.075C76.5895 18.3 78.2645 16.975 80.1145 16.975C81.9645 16.975 83.6895 18.3 83.6895 21.075C83.6895 23.825 81.9145 25.175 80.0645 25.175C78.1895 25.175 76.5895 23.825 76.5895 21.075ZM93.5318 26.125C93.5318 24.975 92.6318 24.075 91.4068 24.075C90.1318 24.075 89.2318 24.975 89.2318 26.125C89.2318 27.275 90.1318 28.175 91.4068 28.175C92.6318 28.175 93.5318 27.275 93.5318 26.125Z" fill="#363062"/>
<path d="M17.7392 18.056H11.0595V24.7297H17.7392V18.056Z" fill="#9686FF"/>
<path d="M6.67976 31.7993L0 25.1545V7H17.7392V13.6737H6.67976V31.7993Z" fill="#9686FF"/>
</svg>
