<svg width="42" height="72" viewBox="0 0 42 72" fill="none" xmlns="http://www.w3.org/2000/svg">
<path d="M20.0521 51.8634C20.5152 50.8092 20.976 49.7361 21.4313 48.6427C22.1252 46.9764 22.7774 45.3354 23.3919 43.7181C26.753 44.8121 38.6237 48.3298 38.0549 43.2509C37.5091 38.3776 27.1718 41.7104 23.6676 42.9866C24.6654 40.3188 25.5531 37.7194 26.3306 35.1907C29.8141 35.8493 41.8947 37.7941 41.0876 32.9265C40.4156 28.8738 30.0352 32.9901 26.5415 34.4992C27.2844 32.0317 27.9203 29.6331 28.4498 27.305C31.5842 27.6502 42.5699 28.5392 41.1729 23.8586C40.0282 20.0222 31.5236 24.8152 28.608 26.5929C29.1958 23.9141 29.6403 21.3298 29.9402 18.8446C32.9129 18.5264 42.5809 17.1469 38.836 12.9307C36.2859 10.0593 32.0052 14.9893 30.0854 17.5395C30.3157 15.2771 30.4249 13.0975 30.4078 11.0073C30.4068 10.8821 30.3646 10.7618 30.2969 10.6529C32.122 8.10389 36.0629 1.76382 31.2086 0.396112C25.53 -1.2036 27.8651 7.06334 29.0061 10.3844C28.8806 10.492 28.8029 10.6425 28.8044 10.8194C28.8206 12.8409 28.7167 14.9484 28.4973 17.1362C27.5659 13.882 25.4496 8.21846 22.3229 9.8082C18.6423 11.6799 25.9231 17.1123 28.3127 18.7805C28.0154 21.1682 27.582 23.6502 27.0159 26.221C25.7613 23.4975 21.2778 14.4729 17.8576 16.6233C14.3213 18.8467 24.6044 25.317 26.9079 26.7124C26.3636 29.1232 25.7011 31.6132 24.9238 34.1778C23.2393 31.4674 17.4313 22.6571 14.3915 24.8564C10.2626 27.8439 21.9066 33.3836 24.7715 34.6749C23.9949 37.1991 23.1072 39.7958 22.1082 42.4626C20.1521 39.2128 13.9014 29.5081 10.9422 32.9375C7.91426 36.4459 18.7058 41.6815 21.8632 43.111C21.2528 44.7187 20.604 46.3503 19.9138 48.0078C19.4294 49.1702 18.9393 50.3113 18.4464 51.4294C16.5695 48.4778 8.91786 37.0081 5.82222 41.0466C2.64242 45.1954 15.29 50.6534 18.2557 51.8593C16.8813 54.955 15.4901 57.8641 14.1505 60.5259C12.3957 57.8776 4.93042 47.1132 1.48252 50.2028C-3.18309 54.3838 10.9024 59.8496 13.94 60.9497C12.0547 64.6754 10.322 67.8042 8.79147 70.5085L10.3142 71.1516C11.842 68.4461 13.5547 65.3506 15.4204 61.6633C18.3988 63.1365 29.8931 68.4009 29.8593 62.3345C29.8346 57.8353 19.1352 60.1548 15.7496 61.0049C17.0726 58.3681 18.4456 55.4882 19.799 52.4356C23.175 53.6179 36.6919 58.0261 34.6143 52.1267C33.3104 48.4238 23.2832 50.9437 20.0513 51.8625L20.0521 51.8634Z" fill="url(#paint0_linear_38_232)"/>
<defs>
<linearGradient id="paint0_linear_38_232" x1="24.1944" y1="-24.1901" x2="20.2394" y2="63.99" gradientUnits="userSpaceOnUse">
<stop stop-color="#E7BCFF"/>
<stop offset="1" stop-color="#E7BCFF" stop-opacity="0"/>
</linearGradient>
</defs>
</svg>
