<svg width="25" height="44" viewBox="0 0 25 44" fill="none" xmlns="http://www.w3.org/2000/svg">
<path d="M7.74752 9.65025C10.9854 7.04479 13.5222 14.3025 14.3633 17.1306C14.7891 15.3825 15.1632 13.6328 15.501 11.8625C13.9628 10.3224 8.57089 4.58026 12.1279 3.07586C14.9422 1.88556 15.6584 6.95902 15.8365 10.0356C16.0168 9.01271 16.1879 7.98183 16.3507 6.93778C16.3728 6.79541 16.4531 6.6783 16.5645 6.60362C16.2228 4.4741 15.8194 -0.0373949 18.7154 0.749079C21.3413 1.46208 18.6946 5.26107 17.3948 6.90783C17.4174 6.9809 17.4258 7.05823 17.4133 7.13723C17.1855 8.59636 16.943 10.031 16.6795 11.4513C18.2241 9.49125 21.9823 5.18532 23.3547 7.78277C24.887 10.6821 18.439 11.9564 16.5252 12.2663C16.1971 13.9733 15.8359 15.6622 15.4262 17.3486C17.4976 15.4821 23.152 10.8627 24.3698 14.8497C25.6716 19.1133 17.4897 18.4089 15.2304 18.1367C14.746 20.0618 14.1974 21.9883 13.5632 23.9412C15.7829 22.9058 23.6821 19.4882 23.689 23.2918C23.6961 27.2663 15.4345 24.9717 13.4264 24.3549C12.7533 26.3931 11.9868 28.4618 11.1042 30.5896C13.1748 29.6276 20.9729 26.3236 20.5802 31.3426C20.239 35.7052 12.6125 31.9008 10.931 31.0064C10.0366 33.1331 9.02264 35.3219 7.87199 37.5973C9.81914 37.1273 17.0315 35.6075 16.2946 39.0782C15.5444 42.6112 9.20102 38.8587 7.70863 37.9201C6.84488 39.6144 5.90363 41.3588 4.8758 43.1634L3.91651 42.6532C4.94633 40.8456 5.88832 39.099 6.75261 37.4028C4.85585 36.6411 -1.76357 33.7587 0.719924 31.5494C3.11531 29.4188 6.06024 35.0634 6.96551 36.9816C8.08504 34.7612 9.07275 32.6235 9.94571 30.546C8.09548 29.7577 0.249626 26.2049 2.61402 23.5902C4.99239 20.9597 9.04391 28.2353 10.0809 30.2196C10.9655 28.0916 11.732 26.0228 12.4044 23.9852C10.3711 22.9977 2.34659 18.8266 6.06193 16.1813C9.08153 14.0315 11.7697 20.9723 12.597 23.3961C13.1859 21.5684 13.7005 19.763 14.1571 17.9597C12.0312 16.8961 4.07546 12.6052 7.74734 9.65059L7.74752 9.65025Z" fill="url(#paint0_linear_42_247)"/>
<defs>
<linearGradient id="paint0_linear_42_247" x1="43.3116" y1="0.260928" x2="4.63164" y2="37.4716" gradientUnits="userSpaceOnUse">
<stop stop-color="#9686FF"/>
<stop offset="1" stop-color="#9686FF" stop-opacity="0"/>
</linearGradient>
</defs>
</svg>
