<svg width="48" height="65" viewBox="0 0 48 65" fill="none" xmlns="http://www.w3.org/2000/svg">
<path d="M15.9412 44.0559C16.4034 43.0012 16.8811 41.9355 17.3774 40.8602C18.1338 39.2214 18.8998 37.6303 19.674 36.0829C16.5931 34.3502 5.96688 27.9964 10.0896 24.9762C14.0454 22.0781 18.5921 31.9419 20.0255 35.3848C21.3132 32.8442 22.625 30.4309 23.9595 28.1466C21.1162 26.029 11.5053 18.4557 15.6339 15.7538C19.0713 13.5043 23.0706 23.9303 24.3256 27.5231C25.6384 25.3058 26.973 23.2137 28.3277 21.2477C25.9514 19.1748 17.8589 11.6924 22.2492 9.55126C25.8475 7.79613 28.0787 17.2999 28.7446 20.6491C30.318 18.4028 31.9188 16.3259 33.5446 14.4225C31.7659 12.0194 26.235 3.97075 31.8734 3.87185C35.7131 3.80428 34.9835 10.2924 34.4067 13.4319C35.9157 11.7306 37.4456 10.1745 38.9954 8.77182C39.0882 8.68779 39.2054 8.63737 39.3314 8.61348C39.9714 5.54446 41.9687 -1.64844 46.262 0.997815C51.2842 4.09352 43.6194 7.9726 40.403 9.38161C40.4087 9.54676 40.3506 9.70587 40.2194 9.82459C38.7208 11.1814 37.2402 12.6848 35.7787 14.3276C38.8042 12.8096 44.4049 10.5323 45.3521 13.9096C46.4668 17.8855 37.5393 16.2057 34.6937 15.5768C33.1379 17.4122 31.6049 19.4117 30.0963 21.569C32.95 20.6482 42.627 17.8372 43.3602 21.8101C44.1184 25.9179 32.3943 22.7315 29.8078 21.9812C28.4022 24.014 27.0185 26.1875 25.6575 28.496C28.7926 27.9005 39.2086 26.2092 39.6484 29.9353C40.2455 34.9966 28.2848 30.1786 25.3948 28.9447C24.063 31.2253 22.7532 33.6367 21.467 36.1776C25.183 35.4167 36.557 33.4456 36.037 37.9453C35.5053 42.5491 24.3456 38.1525 21.1558 36.7969C20.386 38.3346 19.6246 39.9168 18.8721 41.5471C18.3447 42.6906 17.8368 43.8238 17.3477 44.9436C20.7907 44.3263 34.4121 42.1911 33.5362 47.2036C32.636 52.3528 20.056 46.741 17.1606 45.375C15.8129 48.4825 14.6141 51.4761 13.5623 54.2642C16.6994 53.7623 29.6756 51.9676 29.7365 56.5968C29.8187 62.8611 16.2593 56.1965 13.3931 54.706C11.9278 58.6159 10.7984 62.0096 9.84465 64.967L8.34036 64.2818C9.29689 61.3256 10.4153 57.9693 11.8655 54.0997C8.76467 52.9054 -2.89206 48.0112 1.59505 43.9286C4.92281 40.9004 10.4603 50.3446 12.1271 53.4117C13.1717 50.6527 14.3614 47.6924 15.6915 44.6296C12.5355 42.9456 0.139346 35.9833 5.88746 33.5178C9.49531 31.9702 14.4302 41.0553 15.9423 44.0558L15.9412 44.0559Z" fill="url(#paint0_linear_42_248)"/>
<defs>
<linearGradient id="paint0_linear_42_248" x1="69.1043" y1="-10.4875" x2="6.89041" y2="52.1288" gradientUnits="userSpaceOnUse">
<stop stop-color="#E7BCFF"/>
<stop offset="1" stop-color="#E7BCFF" stop-opacity="0"/>
</linearGradient>
</defs>
</svg>
