<svg width="22" height="44" viewBox="0 0 22 44" fill="none" xmlns="http://www.w3.org/2000/svg">
<path d="M0.248741 13.0633C1.88388 9.24254 7.53177 14.4589 9.60243 16.5608C9.15752 14.8175 8.66608 13.0971 8.13301 11.3755C6.05173 10.7381 -1.40518 8.20051 1.02876 5.20193C2.95452 2.82944 5.96928 6.97239 7.57136 9.60501C7.25013 8.61724 6.91706 7.62677 6.57052 6.62853C6.52317 6.49246 6.53909 6.35135 6.60236 6.23312C5.3007 4.51345 2.82594 0.719777 5.75213 0.05416C8.40526 -0.549431 7.85259 4.04747 7.4783 6.11178C7.53258 6.16566 7.57626 6.23002 7.60238 6.30561C8.08647 7.70081 8.54608 9.08128 8.98037 10.459C9.42365 8.00319 10.7196 2.43674 13.1511 4.08547C15.8654 5.9257 10.771 10.0787 9.22691 11.251C9.73876 12.9122 10.2131 14.5729 10.6433 16.2542C11.5955 13.6336 14.4185 6.8999 17.3659 9.84807C20.5174 13.0009 12.9629 16.2212 10.8404 17.0419C11.3168 18.969 11.7372 20.9275 12.0943 22.9495C13.5678 20.993 18.9369 14.2663 20.7292 17.6211C22.6019 21.1267 14.2303 22.9805 12.1678 23.3791C12.5307 25.4945 12.8254 27.6809 13.0454 29.974C14.4217 28.1523 19.7549 21.5733 21.7652 26.1888C23.5125 30.2008 14.9928 30.4233 13.0882 30.4233C13.2972 32.721 13.4299 35.1295 13.4825 37.6788C14.9809 36.3495 20.6349 31.6208 21.6141 35.031C22.6109 38.5026 15.2483 38.1684 13.4899 38.0405C13.5229 39.9419 13.5111 41.9241 13.4511 44H12.3645C12.4249 41.9206 12.4364 39.9361 12.4029 38.0327C10.3706 38.251 3.17289 38.8146 4.32802 35.6978C5.44233 32.6919 10.6931 36.2925 12.3931 37.5609C12.3388 35.0748 12.207 32.7237 12.0021 30.4795C9.99835 30.6524 1.40306 31.2002 2.26267 27.7814C3.12718 24.342 10.1208 28.8629 11.9682 30.1279C11.7498 27.8337 11.4551 25.6473 11.0919 23.5326C8.83302 23.6155 -0.210451 23.7012 1.82755 19.6211C3.48392 16.305 9.1167 21.1705 10.9853 22.922C10.6469 21.0318 10.2535 19.1962 9.80978 17.3897C7.4334 17.449 -1.60559 17.3966 0.248741 13.0637V13.0633Z" fill="url(#paint0_linear_38_231)"/>
<defs>
<linearGradient id="paint0_linear_38_231" x1="27.2384" y1="-11.9271" x2="10.5626" y2="39.0894" gradientUnits="userSpaceOnUse">
<stop stop-color="#9686FF"/>
<stop offset="1" stop-color="#9686FF" stop-opacity="0"/>
</linearGradient>
</defs>
</svg>
