<svg version="1.2" xmlns="http://www.w3.org/2000/svg" viewBox="0 0 582 428" width="582" height="428">
	<title>pre-budg-svg</title>
	<defs>
		<linearGradient id="g1" x1="313" y1="-5" x2="313" y2="311" gradientUnits="userSpaceOnUse">
			<stop offset="0" stop-color="#ffffff"/>
			<stop offset="1" stop-color="#ffffff" stop-opacity="0"/>
		</linearGradient>
		<radialGradient id="g2" cx="95.6" cy="316.3" r="660.4" gradientUnits="userSpaceOnUse">
			<stop offset=".2" stop-color="#9686ff" stop-opacity=".1"/>
			<stop offset="1" stop-color="#e7bcff" stop-opacity=".6"/>
		</radialGradient>
		<linearGradient id="g3" x1="72.2" y1="-19" x2="12.4" y2="265.7" gradientUnits="userSpaceOnUse">
			<stop offset="0" stop-color="#e7bcff"/>
			<stop offset="1" stop-color="#e7bcff" stop-opacity="0"/>
		</linearGradient>
		<linearGradient id="g4" x1="316" y1="-153.5" x2="316" y2="413.5" gradientUnits="userSpaceOnUse">
			<stop offset="0" stop-color="#ffffff" stop-opacity=".6"/>
			<stop offset="1" stop-color="#ffffff" stop-opacity="0"/>
		</linearGradient>
		<linearGradient id="g5" x1="167" y1="46" x2="130.8" y2="127" gradientUnits="userSpaceOnUse">
			<stop offset="0" stop-color="#9686ff"/>
			<stop offset="1" stop-color="#e7bcff"/>
		</linearGradient>
		<linearGradient id="g6" x1="99.8" y1="79.2" x2="103.8" y2="101.2" gradientUnits="userSpaceOnUse">
			<stop offset="0" stop-color="#ffffff"/>
			<stop offset="1" stop-color="#ffffff" stop-opacity="0"/>
		</linearGradient>
		<linearGradient id="g7" x1="177.3" y1="85.3" x2="181.4" y2="107.9" gradientUnits="userSpaceOnUse">
			<stop offset="0" stop-color="#ffffff"/>
			<stop offset="1" stop-color="#ffffff" stop-opacity="0"/>
		</linearGradient>
		<linearGradient id="g8" x1="168.2" y1="86.9" x2="172.3" y2="109.5" gradientUnits="userSpaceOnUse">
			<stop offset="0" stop-color="#ffffff"/>
			<stop offset="1" stop-color="#ffffff" stop-opacity="0"/>
		</linearGradient>
		<linearGradient id="g9" x1="402.5" y1="41" x2="402.5" y2="409.1" gradientUnits="userSpaceOnUse">
			<stop offset="0" stop-color="#ffffff"/>
			<stop offset="1" stop-color="#ffffff" stop-opacity="0"/>
		</linearGradient>
		<linearGradient id="g10" x1="582" y1="48.1" x2="374.5" y2="76.5" gradientUnits="userSpaceOnUse">
			<stop offset="0" stop-color="#ffffff"/>
			<stop offset="1" stop-color="#ffffff" stop-opacity="0"/>
		</linearGradient>
		<linearGradient id="g11" x1="582" y1="64.1" x2="374.5" y2="92.5" gradientUnits="userSpaceOnUse">
			<stop offset="0" stop-color="#ffffff"/>
			<stop offset="1" stop-color="#ffffff" stop-opacity="0"/>
		</linearGradient>
		<linearGradient id="g12" x1="582" y1="80.1" x2="374.5" y2="108.5" gradientUnits="userSpaceOnUse">
			<stop offset="0" stop-color="#ffffff"/>
			<stop offset="1" stop-color="#ffffff" stop-opacity="0"/>
		</linearGradient>
		<linearGradient id="g13" x1="295.7" y1="87.7" x2="295.7" y2="212" gradientUnits="userSpaceOnUse">
			<stop offset="0" stop-color="#9686ff"/>
			<stop offset="1" stop-color="#e7bcff" stop-opacity="0"/>
		</linearGradient>
		<linearGradient id="g14" x1="295.5" y1="53" x2="295.5" y2="194" gradientUnits="userSpaceOnUse">
			<stop offset="0" stop-color="#9686ff"/>
			<stop offset="1" stop-color="#e7bcff" stop-opacity="0"/>
		</linearGradient>
		<linearGradient id="g15" x1="162.5" y1="139.5" x2="18" y2="285.1" gradientUnits="userSpaceOnUse">
			<stop offset="0" stop-color="#9686ff"/>
			<stop offset="1" stop-color="#9686ff" stop-opacity="0"/>
		</linearGradient>
		<linearGradient id="g16" x1="545" y1="131" x2="532.1" y2="247.3" gradientUnits="userSpaceOnUse">
			<stop offset="0" stop-color="#9686ff"/>
			<stop offset="1" stop-color="#9686ff" stop-opacity="0"/>
		</linearGradient>
		<radialGradient id="g17" cx="487" cy="270.7" r="116.5" gradientUnits="userSpaceOnUse">
			<stop offset="0" stop-color="#ff71e0"/>
			<stop offset="1" stop-color="#9686ff"/>
		</radialGradient>
		<clipPath clipPathUnits="userSpaceOnUse" id="cp1">
			<path d="m508.74 372.23c-38.57 0-69.74-31.34-69.74-70.12 0-38.77 31.17-70.11 69.74-70.11 38.57 0 69.74 31.34 69.74 70.11 0 38.78-31.17 70.12-69.74 70.12z"/>
		</clipPath>
		<filter x="-50%" y="-50%" width="200%" height="200%" id="f1"> <feGaussianBlur stdDeviation="17.5"/> </filter>
		<filter x="-50%" y="-50%" width="200%" height="200%" id="f2"> <feGaussianBlur stdDeviation="7.5"/> </filter>
	</defs>
	<style>
		.s0 { opacity: .3;fill: url(#g1) } 
		.s1 { opacity: 0;mix-blend-mode: soft-light;fill: url(#g2) } 
		.s2 { fill: url(#g3) } 
		.s3 { fill: url(#g4) } 
		.s4 { fill: url(#g5) } 
		.s5 { opacity: .1;fill: #ffffff } 
		.s6 { fill: url(#g6) } 
		.s7 { fill: url(#g7) } 
		.s8 { fill: url(#g8) } 
		.s9 { opacity: .6;fill: url(#g9) } 
		.s10 { fill: url(#g10) } 
		.s11 { fill: url(#g11) } 
		.s12 { fill: url(#g12) } 
		.s13 { mix-blend-mode: multiply;fill: url(#g13) } 
		.s14 { mix-blend-mode: multiply;fill: url(#g14) } 
		.s15 { fill: url(#g15) } 
		.s16 { fill: url(#g16) } 
		.s17 { fill: none;stroke: #ffffff;stroke-width: 4 } 
		.s18 { fill: #ffffff } 
		.s19 { fill: #9686ff } 
		.s20 { fill: url(#g17) } 
		.s21 { opacity: .7;filter: url(#f1);fill: #fff9f7 } 
		.s22 { filter: url(#f2);fill: #fff9f7 } 
	</style>
	<g id="Layer">
		<path id="Layer" class="s0" d="m108 11c0-8.8 7.2-16 16-16h378c8.8 0 16 7.2 16 16v284c0 8.8-7.2 16-16 16h-378c-8.8 0-16-7.2-16-16z"/>
	</g>
	<g id="Layer">
		<path id="Layer" class="s1" d="m495 339c0 168.4-251.8 305-562.5 305-310.7 0-402-108.6-402-277 0-168.4 108.5-38.5 402-128.5 293.5-90 562.5-67.9 562.5 100.5z"/>
	</g>
	<path id="Layer" class="s2" d="m18.2 226.1q3.1-4.7 6.2-9.7 4.7-7.6 9-15c10.4 5.4 47.1 23.1 47.9 6.3 0.9-16.1-34.5-10.8-46.6-8.5q7-12.2 12.8-23.9c11 4 49.2 16.7 49.2 0.5 0-13.6-36-5.7-48.1-2.7q5.6-11.4 10-22.4c10 2.8 45.3 11.6 43.2-4.4-1.7-13.1-31.9-2-42.3 2.2q5-12.6 8.5-24.5c9.8 0.6 42 1.2 32-14.5-6.7-10.7-23.3 3.1-30.9 10.4q3-10.9 4.6-21.1 0-0.6-0.2-1.2c7.3-7.3 23.5-25.8 8.4-32.9-17.6-8.2-14.4 19.9-12.5 31.3-0.4 0.3-0.8 0.8-0.9 1.3q-1.5 9.9-4.3 20.4c-1.3-11.1-5.2-30.6-16.2-27.1-13 4.1 7.8 25.7 14.7 32.4q-3.4 11.4-8.2 23.5c-2.6-9.6-12.4-41.3-24.6-36.1-12.7 5.3 17.3 31.8 24 37.6q-4.6 11.3-10.4 23.2c-4-9.7-18.2-41.4-29.3-35.9-15 7.5 19.9 31.7 28.5 37.4q-5.8 11.7-12.8 24c-4.6-11.7-19.8-46.5-31.2-37-11.7 9.8 20.6 32.6 30.1 38.9q-4.3 7.4-9 14.9-3.3 5.3-6.6 10.4c-4.5-10.6-23.3-52-35.5-40.5-12.5 11.8 25.7 36.3 34.7 41.8-6.1 9.3-12.2 18-18 25.9-4.3-9.5-22.8-48.5-35.7-40.3-17.4 11.1 25.5 36.4 34.8 41.6-8.1 11.1-15.4 20.4-21.8 28.4l4.6 2.9c6.4-8 13.6-17.2 21.6-28.2 8.9 6.4 43.5 29.6 46.6 9.9 2.4-14.6-33.7-12.8-45.1-11.8 5.7-7.9 11.7-16.5 17.7-25.7 10.3 5.6 51.9 27.1 48.3 6.8-2.2-12.7-36.2-9.8-47.2-8.6z"/>
	<path id="Layer" class="s3" d="m119 18c0-6.1 4.9-11 11-11h366c6.1 0 11 4.9 11 11v270c0 6.1-4.9 11-11 11h-366c-6.1 0-11-4.9-11-11z"/>
	<path id="Layer" class="s4" d="m86 76c0-7.2 5.8-13 13-13h84c7.2 0 13 5.8 13 13v39c0 7.2-5.8 13-13 13h-84c-7.2 0-13-5.8-13-13z"/>
	<g id="Layer">
		<path id="Layer" class="s5" d="m78.3 75.5c-1.3-7 3.4-13.8 10.5-15.1l82.7-15.1c7.1-1.3 13.9 3.4 15.1 10.5l7.1 38.5c1.2 7.1-3.4 13.8-10.5 15.1l-82.7 15.1c-7.1 1.3-13.9-3.4-15.2-10.5z"/>
	</g>
	<g id="Layer">
		<path id="Layer" class="s6" d="m94.3 89.9c-0.5-2.7 1.3-5.3 4-5.8l4.5-0.8c2.7-0.5 5.3 1.3 5.8 4l0.9 5c0.5 2.7-1.3 5.3-4 5.8l-4.5 0.8c-2.7 0.5-5.3-1.3-5.8-4z"/>
	</g>
	<path id="Layer" class="s7" d="m178.6 102.8c-2.9 0.6-5.8-1.4-6.3-4.4-0.5-2.9 1.4-5.8 4.4-6.3 2.9-0.6 5.8 1.4 6.3 4.4 0.5 3-1.4 5.8-4.4 6.3z"/>
	<path id="Layer" fill-rule="evenodd" class="s8" d="m173.8 103.1c-1.4-1-2.5-2.6-2.8-4.4-0.4-1.9 0.1-3.7 1.1-5.2-0.8-0.2-1.7-0.3-2.6-0.1-2.9 0.5-4.9 3.4-4.3 6.3 0.5 3 3.3 5 6.3 4.4 0.9-0.1 1.7-0.5 2.3-1z"/>
	<g id="Layer">
		<path id="Layer" class="s9" d="m337 57c0-8.8 7.2-16 16-16h99c8.8 0 16 7.2 16 16v191c0 8.8-7.2 16-16 16h-99c-8.8 0-16-7.2-16-16z"/>
	</g>
	<g id="Layer">
		<path id="Layer" class="s10" d="m403 90c0-2.8 2.2-5 5-5h76c2.8 0 5 2.2 5 5 0 2.8-2.2 5-5 5h-76c-2.8 0-5-2.2-5-5z"/>
	</g>
	<g id="Layer">
		<path id="Layer" class="s11" d="m403 106c0-2.8 2.2-5 5-5h76c2.8 0 5 2.2 5 5 0 2.8-2.2 5-5 5h-76c-2.8 0-5-2.2-5-5z"/>
	</g>
	<g id="Layer">
		<path id="Layer" class="s12" d="m403 122c0-2.8 2.2-5 5-5h76c2.8 0 5 2.2 5 5 0 2.8-2.2 5-5 5h-76c-2.8 0-5-2.2-5-5z"/>
	</g>
	<g id="Layer">
		<path id="Layer" class="s13" d="m430 212.1c-6.3-25.9-21-24-29.9-9.1-5.3 8.8-8.1-13.7-15.9-16.5-7-2.5-11.5-16.4-17.8-22.4-12.7-12-23.3 26.8-36.9 21.3-5.3-2.1-10.3-8.7-15.8-6-5 2.4-8.9 11.3-13.9 13.5-5.7 2.7-11.4-3.1-17.1-3q-2.1 0.1-4 0.9c-4.2 1.6-8.6 0.6-12.4-2.2-1.4-1-2.9-1.7-4.4-1.7-5.7 0-10.7 6.3-16 7.4-13.6 2.8-13.8-25.9-26.5-19.7-6.4 3.1-17.3 23.1-24.3 24.4-7.7 1.4-14.4-4.5-20.9-8.6-14.9-9.5-19.1 7.6-24.9 21.7z"/>
	</g>
	<g id="Layer">
		<path id="Layer" class="s14" d="m429.9 194.1c-6-34.2-18.8-11.2-29.8-9.1-11.3 2.1-14.4-40.3-25.5-33.3-11.6 7.4-15 45.8-28.6 27.8-4.8-6.4-9.1-12.5-14.7-8.3-5 3.9-8.7 14.5-13.8 17.7-4.8 3.1-8.5-14.6-13.4-15.2-5.4-0.6-4.1 10.5-9.1 10.1-6.6-0.5-5.1-5.5-9.6-11.5-2.8-3.7-5.8-6.2-8.8-6-4.8 0.5-5.5 7.3-8.5 8.6-4.6 1.9-7.2-5-8.8-11.6-2.9-12.2-7-5.9-8.1-3.2-8.1 20.3-11.2-13.7-13.8-18.5-9.4-18-13 22.3-18 30.3-8.4 13.1-19.8-7.5-32.9-1.7-8.1 3.5-16 12.8-23.1 2-5.5-8.3-14.4 21.9-14.4 21.9z"/>
	</g>
	<path id="Layer" class="s15" d="m106.7 268.1c4.5-12.9-20.8-12.8-30.5-12.3 4.9-3.2 9.9-6.3 15.1-9.3 6.4 3.1 30.2 13.5 31 0.8 0.6-10.1-16-6.7-25.7-3.9q4.4-2.5 9-5c0.4-0.2 0.7-0.6 0.8-1 7-1.3 21.5-5 15.8-13.1-5.1-7.4-14 5-17.6 10.9q-0.4 0-0.8 0.2-6.4 3.4-12.6 7c4.4-7 13.6-23.4 4.1-24.8-10.7-1.5-7.6 19.9-6.4 26.2-5 2.9-9.8 5.8-14.6 9 3.5-8.5 11.6-31.2-2.1-30.5-14.7 0.6-3.5 25.2-0.1 32-5.5 3.6-10.8 7.4-16.2 11.5 0.8-8 2.7-36.3-9.2-32.1-12.3 4.3 3.9 27.5 8.1 33-5.6 4.3-11.2 9-16.8 14.1 0.7-7.5 2.3-35.4-12.8-28.6-13.2 5.9 7 25.4 11.7 29.6-5.7 5.1-11.3 10.7-17.1 16.8-0.7-6.6-4-30.7-13.9-24.6-10.2 6.3 8.5 21.8 13 25.4q-6.4 6.8-13.1 14.6l2.6 2.4q6.7-7.8 13.2-14.6c4.5 5.1 20.7 22.4 24.8 12.3 4-9.8-16.8-12.7-23.7-13.4 5.6-5.9 11.2-11.4 16.7-16.4 4.5 4.9 24.1 25.4 29.7 15.1 5.5-10.2-21.6-14.8-28.9-15.8 5.7-5.1 11.2-9.8 16.8-14.1 5.3 5.2 27.1 25.5 31.3 11.1 3.3-11.8-21.2-12.5-29.6-12.4 5-3.8 10-7.4 15.1-10.8 5.7 5.4 27.8 25.4 32.9 10.7z"/>
	<path id="Layer" class="s16" d="m581.7 176.9c-4.9-12.8-24.2 3.6-31.3 10.2 1.7-5.6 3.5-11.2 5.5-16.8 6.9-1.9 31.8-9.2 24.2-19.4-6-8.1-16.5 5.2-22.1 13.6q1.8-4.8 3.7-9.7c0.2-0.4 0.1-0.9-0.1-1.3 4.5-5.5 13.2-17.6 3.6-20.2-8.6-2.3-7.4 12.9-6.4 19.7q-0.3 0.3-0.5 0.6-2.6 6.8-5.1 13.5c-1.1-8.1-4.6-26.6-12.9-21.5-9.1 5.7 7.1 20.1 12 24.1-1.9 5.4-3.6 10.8-5.3 16.3-2.8-8.8-11.2-31.3-21.3-22-10.8 10 13.7 21.6 20.6 24.6-1.9 6.3-3.5 12.6-4.9 19.3-4.6-6.7-21.4-29.5-27.8-18.7-6.6 11.3 20.7 18.5 27.5 20.1-1.5 6.9-2.8 14-3.8 21.6-4.3-6.2-21-28.6-28.2-13.6-6.3 12.9 21.7 14.8 28 15-1 7.6-1.7 15.5-2.2 23.9-4.8-4.6-22.8-20.9-26.5-9.8-3.7 11.3 20.6 11.1 26.4 11q-0.5 9.3-0.6 19.6l3.5 0.1q0.1-10.2 0.7-19.6c6.6 1 30.3 3.8 26.9-6.7-3.3-10-21.1 1.2-26.8 5.1 0.5-8.2 1.2-15.9 2.2-23.2 6.6 0.8 34.8 3.7 32.4-7.7-2.4-11.4-26 2.6-32.3 6.5 1.1-7.5 2.3-14.7 3.8-21.6 7.4 0.6 37.2 2 31-11.7-5-11.1-24.2 4.2-30.6 9.7 1.4-6.2 2.9-12.2 4.6-18.1 7.8 0.6 37.6 1.6 32.1-12.9z"/>
	<path id="Layer" class="s17" d="m576 84c0 6.7-5.4 12.1-12 12.1-6.6 0-12-5.4-12-12.1 0-6.6 5.4-12 12-12 6.6 0 12 5.4 12 12z"/>
	<path id="Layer" class="s18" d="m7.5 279c-3.6 0-6.5-2.9-6.5-6.5 0-3.6 2.9-6.5 6.5-6.5 3.6 0 6.5 2.9 6.5 6.5 0 3.6-2.9 6.5-6.5 6.5z"/>
	<path id="Layer" class="s19" d="m18 234c-7.2 0-13-5.8-13-13 0-7.2 5.8-13 13-13 7.2 0 13 5.8 13 13 0 7.2-5.8 13-13 13z"/>
	<g id="Layer">
		<path id="Layer" class="s20" d="m508.7 372.2c-38.5 0-69.7-31.3-69.7-70.1 0-38.8 31.2-70.1 69.7-70.1 38.6 0 69.8 31.3 69.8 70.1 0 38.8-31.2 70.1-69.8 70.1z"/>
	</g>
	<g id="Clip-Path" clip-path="url(#cp1)">
		<g id="Layer">
			<g id="Layer">
				<path id="Layer" class="s21" d="m448.4 283.1c6.4-23.3 30.8-38.7 38.6-42.3 39-18.4 55 12.1 52.1 25.5-7.1 33.6-44.8 49.5-59.7 52.6-17.5 3.7-38.9-6.6-31-35.8z"/>
			</g>
			<g id="Layer">
				<path id="Layer" class="s22" d="m468.5 275.8c3-10.9 14-19.1 17.9-19.8 14.1-2.8 19.6 4.6 20.2 10.9 1.2 14-15.6 25.7-24.3 25.7-5 0-17.5-3.1-13.8-16.8z"/>
			</g>
		</g>
	</g>
</svg>