<svg width="169" height="152" viewBox="0 0 169 152" fill="none" xmlns="http://www.w3.org/2000/svg">
<g filter="url(#filter0_i_67_639)">
<path d="M87 0H72C48.4298 0 36.6447 0 29.3223 7.32233C22 14.6447 22 26.4298 22 50V65C22 88.5702 22 100.355 29.3223 107.678C36.6447 115 48.4298 115 72 115H87C110.57 115 122.355 115 129.678 107.678C137 100.355 137 88.5702 137 65V50C137 26.4298 137 14.6447 129.678 7.32233C122.355 0 110.57 0 87 0Z" fill="url(#paint0_radial_67_639)"/>
</g>
<path d="M11.2489 42.0633C12.884 38.2425 18.5319 43.4589 20.6025 45.5608C20.1576 43.8175 19.6662 42.0971 19.1331 40.3755C17.0519 39.7381 9.59495 37.2005 12.0289 34.2019C13.9546 31.8294 16.9694 35.9724 18.5715 38.605C18.2503 37.6172 17.9172 36.6268 17.5706 35.6285C17.5233 35.4925 17.5392 35.3514 17.6025 35.2331C16.3008 33.5134 13.8261 29.7198 16.7523 29.0542C19.4054 28.4506 18.8527 33.0475 18.4784 35.1118C18.5327 35.1657 18.5764 35.23 18.6025 35.3056C19.0866 36.7008 19.5462 38.0813 19.9805 39.459C20.4238 37.0032 21.7197 31.4367 24.1512 33.0855C26.8656 34.9257 21.7711 39.0787 20.227 40.251C20.7389 41.9122 21.2132 43.5729 21.6434 45.2542C22.5957 42.6336 25.4186 35.8999 28.366 38.8481C31.5175 42.0009 23.963 45.2212 21.8405 46.0419C22.3169 47.969 22.7373 49.9275 23.0944 51.9495C24.5679 49.993 29.9371 43.2663 31.7293 46.6211C33.602 50.1267 25.2304 51.9805 23.1679 52.3791C23.5308 54.4945 23.8255 56.6809 24.0455 58.974C25.4218 57.1523 30.755 50.5733 32.7653 55.1888C34.5127 59.2008 25.9929 59.4233 24.0883 59.4233C24.2973 61.721 24.43 64.1295 24.4826 66.6788C25.981 65.3495 31.635 60.6208 32.6143 64.031C33.611 67.5026 26.2484 67.1684 24.49 67.0405C24.523 68.9419 24.5112 70.9241 24.4512 73H23.3647C23.4251 70.9206 23.4365 68.9361 23.403 67.0327C21.3707 67.251 14.173 67.8146 15.3281 64.6978C16.4425 61.6919 21.6932 65.2925 23.3932 66.5609C23.3389 64.0748 23.2071 61.7237 23.0022 59.4795C20.9985 59.6524 12.4032 60.2002 13.2628 56.7814C14.1273 53.342 21.1209 57.8629 22.9683 59.1279C22.7499 56.8337 22.4552 54.6473 22.092 52.5326C19.8331 52.6155 10.7897 52.7012 12.8277 48.6211C14.484 45.305 20.1168 50.1705 21.9854 51.922C21.6471 50.0318 21.2536 48.1962 20.8099 46.3897C18.4335 46.449 9.39454 46.3966 11.2489 42.0637V42.0633Z" fill="url(#paint1_linear_67_639)"/>
<path d="M147.172 85.7193C148.544 81.7962 140.856 81.834 137.909 81.9877C139.414 81.0015 140.938 80.0636 142.493 79.1529C144.459 80.0871 151.674 83.247 151.902 79.3916C152.082 76.3412 147.061 77.3639 144.102 78.2254C145.006 77.7133 145.92 77.2072 146.849 76.7044C146.976 76.6359 147.06 76.5211 147.093 76.3911C149.214 76.0006 153.6 74.8712 151.89 72.4052C150.34 70.1693 147.645 73.9345 146.528 75.7104C146.452 75.7136 146.376 75.7316 146.306 75.7697C145.007 76.4726 143.736 77.1811 142.486 77.9047C143.816 75.7933 146.617 70.811 143.71 70.3868C140.465 69.9129 141.421 76.4156 141.77 78.3228C140.271 79.2032 138.8 80.1086 137.348 81.059C138.414 78.4825 140.875 71.6083 136.71 71.7948C132.257 71.9945 135.658 79.4692 136.671 81.5072C135.019 82.6078 133.387 83.7693 131.759 85.0204C131.992 82.5822 132.569 73.9949 128.983 75.261C125.235 76.5841 130.162 83.6018 131.415 85.2878C129.719 86.604 128.026 88.0186 126.316 89.5622C126.53 87.2891 127.034 78.835 122.436 80.8843C118.439 82.6656 124.576 88.5795 125.981 89.8648C124.277 91.4194 122.553 93.1072 120.794 94.9529C120.585 92.9607 119.604 85.6555 116.58 87.5112C113.502 89.4003 119.161 94.1225 120.544 95.2148C119.237 96.5957 117.908 98.0663 116.551 99.6387L117.353 100.372C118.712 98.7968 120.043 97.3247 121.352 95.9426C122.704 97.4752 127.635 102.749 128.886 99.6691C130.093 96.6989 123.788 95.8124 121.677 95.6011C123.395 93.8032 125.079 92.1571 126.745 90.6393C128.107 92.1192 134.08 98.3241 135.753 95.2211C137.436 92.0996 129.224 90.716 127.007 90.4027C128.717 88.8571 130.41 87.4426 132.105 86.1272C133.716 87.7129 140.332 93.8792 141.581 89.4929C142.597 85.9281 135.157 85.7172 132.596 85.7486C134.121 84.582 135.65 83.493 137.197 82.4594C138.91 84.1069 145.616 90.1684 147.172 85.7195L147.172 85.7193Z" fill="url(#paint2_linear_67_639)"/>
<path d="M128.776 80.453C129.403 79.4876 130.032 78.5031 130.658 77.4977C131.612 75.9655 132.521 74.4515 133.389 72.9548C136.529 74.5778 147.675 79.9683 147.934 74.8642C148.183 69.9668 137.443 71.5846 133.779 72.2776C135.195 69.8061 136.491 67.3845 137.667 65.0146C140.998 66.2277 152.606 70.1 152.596 65.1659C152.588 61.0578 141.679 63.4419 137.987 64.3664C139.119 62.0515 140.134 59.7872 141.033 57.5753C144.071 58.4226 154.768 61.076 154.146 56.2311C153.637 52.2601 144.469 55.6152 141.305 56.8981C142.318 54.3496 143.174 51.8712 143.872 49.4671C146.857 49.6337 156.621 49.8353 153.607 45.0691C151.554 41.8232 146.533 45.9963 144.226 48.2027C144.819 46.0072 145.279 43.874 145.6 41.8085C145.62 41.6848 145.597 41.5592 145.548 41.4408C147.761 39.2204 152.675 33.6008 148.106 31.4664C142.761 28.9697 143.729 37.5054 144.318 40.9672C144.177 41.0531 144.075 41.1891 144.048 41.3639C143.738 43.3614 143.294 45.4244 142.724 47.548C142.331 44.186 141.158 38.2548 137.816 39.3182C133.881 40.5703 140.188 47.1082 142.276 49.1408C141.597 51.449 140.768 53.8283 139.794 56.2737C138.996 53.3832 136.03 43.7526 132.307 45.3218C128.458 46.9442 137.56 54.9918 139.608 56.7413C138.681 59.0324 137.624 61.3824 136.443 63.7876C135.218 60.8406 130.911 51.2072 127.556 52.8862C122.998 55.1669 133.594 62.5162 136.212 64.2536C135.038 66.6191 133.742 69.0381 132.325 71.5083C130.92 67.985 126.32 57.3975 122.845 60.3034C119.29 63.2761 129.093 70.1875 131.978 72.1086C131.116 73.5964 130.212 75.1017 129.263 76.6258C128.597 77.6947 127.929 78.7415 127.262 79.7652C125.886 76.549 120.19 63.9932 116.482 67.4781C112.673 71.0583 124.272 78.4892 127.004 80.1586C125.147 82.9914 123.304 85.6373 121.552 88.0476C120.248 85.1504 114.621 73.3207 110.719 75.8123C105.439 79.184 118.455 86.8551 121.275 88.4317C118.813 91.8036 116.597 94.6112 114.649 97.0325L116.048 97.9133C117.993 95.4904 120.184 92.7125 122.621 89.3753C125.322 91.3106 135.814 98.364 136.761 92.3719C137.464 87.9279 126.531 88.4872 123.052 88.7788C124.784 86.3906 126.605 83.7705 128.434 80.9769C131.574 82.6893 144.201 89.2248 143.104 83.0671C142.416 79.2021 132.113 80.0678 128.775 80.4521L128.776 80.453Z" fill="url(#paint3_linear_67_639)"/>
<g style="mix-blend-mode:multiply" filter="url(#filter1_f_67_639)">
<ellipse cx="78.5" cy="97" rx="48.5" ry="34" fill="url(#paint4_linear_67_639)"/>
</g>
<circle cx="123.5" cy="76.5" r="2.5" fill="white"/>
<circle cx="15.5" cy="17.5" r="4.5" fill="url(#paint5_linear_67_639)"/>
<g filter="url(#filter2_bi_67_639)">
<circle cx="79.5" cy="57.5" r="36.5" fill="url(#paint6_linear_67_639)" fill-opacity="0.3"/>
</g>
<path d="M88.3177 53.7088C88.0789 51.2408 87.6459 48.9107 87.0401 46.8331C87.1663 46.8 87.2944 46.767 87.4187 46.7379C90.91 45.9185 93.5042 46.2952 94.5372 47.769C95.5236 49.1787 94.9314 51.2214 94.2595 52.6874C94.0362 53.1748 94.2498 53.7515 94.7372 53.9748C95.2246 54.1981 95.8013 53.9826 96.0246 53.4972C97.6226 50.0039 96.9624 47.8486 96.1275 46.6564C94.5935 44.466 91.343 43.8233 86.976 44.8486C86.7954 44.8913 86.6129 44.9379 86.4303 44.9864C86.3643 44.8097 86.2983 44.633 86.2303 44.4602C84.5624 40.2932 82.1721 38 79.4983 38C76.8245 38 74.4342 40.2932 72.7681 44.4602C71.7274 47.0622 71.0147 50.2505 70.6788 53.7108C69.4924 54.7263 68.3953 55.771 67.407 56.8273C66.8594 56.1535 66.3603 55.4797 65.9254 54.8137C63.9623 51.8137 63.4283 49.2467 64.4594 47.7729C65.0846 46.8816 66.2302 46.3923 67.8691 46.3224C68.405 46.2991 68.8205 45.8466 68.7972 45.3107C68.7739 44.7748 68.3157 44.3612 67.7856 44.3826C65.5448 44.4796 63.8438 45.2661 62.8691 46.6602C61.3351 48.8505 61.8438 52.1243 64.3001 55.8778C64.8264 56.6816 65.4322 57.4933 66.104 58.303C65.4302 59.1127 64.8244 59.9244 64.3001 60.7283C61.8438 64.4817 61.3351 67.7555 62.8691 69.9458C63.9254 71.4545 65.7992 72.2293 68.2904 72.2293C69.4147 72.2293 70.6633 72.072 72.0206 71.7536C74.3584 71.206 76.9118 70.2118 79.4983 68.8623C81.2206 69.7594 82.9255 70.4992 84.5643 71.0545C84.5177 71.1769 84.4731 71.3011 84.4245 71.4196C83.0925 74.7497 81.2963 76.6584 79.4963 76.6584C77.9701 76.6584 76.7565 75.3283 76.005 74.2138C75.706 73.7691 75.1021 73.6507 74.6575 73.9497C74.2128 74.2487 74.0944 74.8526 74.3934 75.2973C76.2303 78.0274 78.1818 78.6002 79.4963 78.6002C82.1701 78.6002 84.5604 76.307 86.2265 72.14C86.2944 71.9672 86.3604 71.7904 86.4265 71.6138C86.609 71.6604 86.7915 71.7089 86.9721 71.7516C88.3294 72.0701 89.5799 72.2273 90.7022 72.2273C93.1935 72.2273 95.0673 71.4526 96.1236 69.9438C97.6576 67.7535 97.1488 64.4797 94.6925 60.7263C93.1585 58.3807 90.9566 55.969 88.3138 53.7108L88.3177 53.7088ZM90.3119 58.2991C89.7469 58.9108 89.143 59.5185 88.5041 60.1185C88.5274 59.5166 88.5391 58.9108 88.5391 58.2991C88.5391 57.6875 88.5274 57.0797 88.5041 56.4778C89.1449 57.0797 89.7488 57.6875 90.3119 58.2991ZM72.4031 58.2991C72.4031 57.0681 72.4516 55.8583 72.5429 54.6777C73.4555 53.9243 74.4206 53.1904 75.4283 52.4855C76.772 51.5438 78.139 50.6933 79.4963 49.9418C80.8633 50.6971 82.2342 51.5515 83.5682 52.4855C84.576 53.1904 85.541 53.9243 86.4536 54.6777C86.5468 55.8583 86.5934 57.0681 86.5934 58.2991C86.5934 59.5302 86.5449 60.7399 86.4536 61.9186C85.5352 62.6758 84.5701 63.4098 83.5682 64.1127C82.2226 65.0545 80.8575 65.9069 79.4983 66.6584C78.139 65.9069 76.772 65.0545 75.4283 64.1127C74.4225 63.4079 73.4594 62.6758 72.5468 61.9244C72.4516 60.738 72.4031 59.5244 72.4031 58.2991ZM86.1566 51.969C85.6769 51.6059 85.1857 51.2467 84.6847 50.8952C83.6478 50.169 82.6012 49.4952 81.5546 48.8777C82.7895 48.2855 84.0051 47.7845 85.1818 47.3865C85.5934 48.8001 85.9216 50.3399 86.1566 51.969ZM79.4983 39.9418C81.2983 39.9418 83.0944 41.8505 84.4264 45.1806C84.475 45.2991 84.5197 45.4233 84.5663 45.5457C82.9294 46.101 81.2245 46.8408 79.5041 47.736C77.7856 46.8389 76.0827 46.103 74.4342 45.5457C74.4808 45.4233 74.5254 45.301 74.574 45.1806C75.906 41.8505 77.7021 39.9418 79.5022 39.9418H79.4983ZM73.8167 47.3884C74.9895 47.7865 76.205 48.2874 77.4419 48.8816C76.3934 49.501 75.3468 50.1729 74.3138 50.8971C73.8128 51.2486 73.3215 51.6059 72.8419 51.9709C73.0769 50.3418 73.405 48.802 73.8167 47.3903V47.3884ZM70.4943 56.4797C70.471 57.0816 70.4594 57.6894 70.4594 58.3011C70.4594 58.9127 70.471 59.5205 70.4924 60.1224C69.8516 59.5205 69.2497 58.9127 68.6846 58.3011C69.2497 57.6894 69.8536 57.0816 70.4943 56.4797ZM64.4594 68.8312C63.4263 67.3574 63.9603 64.7904 65.9254 61.7904C66.3623 61.1244 66.8594 60.4506 67.407 59.7768C68.3953 60.8331 69.4905 61.8778 70.6769 62.8914C70.9138 65.3574 71.3448 67.6778 71.9565 69.7691C71.8303 69.8001 71.7021 69.8351 71.5778 69.8642C68.0866 70.6836 65.4924 70.3069 64.4594 68.8332V68.8312ZM73.8186 69.2137C73.4089 67.806 73.0808 66.2642 72.8458 64.6351C73.3254 64.9982 73.8147 65.3555 74.3138 65.705C75.3487 66.4293 76.3953 67.1031 77.4458 67.7225C76.2109 68.3147 74.9953 68.8157 73.8186 69.2137ZM81.5507 67.7225C82.6012 67.1031 83.6478 66.4293 84.6828 65.705C85.1818 65.3555 85.6731 64.9962 86.1546 64.6312C85.9197 66.2603 85.5915 67.8021 85.1798 69.2137C84.0031 68.8157 82.7857 68.3147 81.5507 67.7225ZM94.5372 68.8312C93.5042 70.305 90.9119 70.6817 87.4187 69.8623C87.2944 69.8332 87.1663 69.7982 87.0401 69.7671C87.6459 67.6895 88.0789 65.3613 88.3177 62.8933C89.5022 61.8797 90.6012 60.8351 91.5915 59.7768C92.1391 60.4506 92.6362 61.1244 93.0731 61.7904C95.0362 64.7904 95.5702 67.3574 94.5391 68.8312H94.5372Z" fill="url(#paint7_linear_67_639)"/>
<path d="M77.5468 61.1283C77.7293 61.3108 77.9759 61.4118 78.2342 61.4118C78.4924 61.4118 78.7391 61.3088 78.9216 61.1283L83.207 56.8428C83.5857 56.4642 83.5857 55.8486 83.207 55.47C82.8284 55.0913 82.2129 55.0913 81.8342 55.47L78.2361 59.0681L77.1682 58.0001C76.7895 57.6215 76.174 57.6215 75.7953 58.0001C75.4167 58.3787 75.4167 58.9943 75.7953 59.3729L77.5488 61.1263L77.5468 61.1283Z" fill="url(#paint8_linear_67_639)"/>
<defs>
<filter id="filter0_i_67_639" x="22" y="0" width="115" height="115" filterUnits="userSpaceOnUse" color-interpolation-filters="sRGB">
<feFlood flood-opacity="0" result="BackgroundImageFix"/>
<feBlend mode="normal" in="SourceGraphic" in2="BackgroundImageFix" result="shape"/>
<feColorMatrix in="SourceAlpha" type="matrix" values="0 0 0 0 0 0 0 0 0 0 0 0 0 0 0 0 0 0 127 0" result="hardAlpha"/>
<feOffset/>
<feGaussianBlur stdDeviation="15"/>
<feComposite in2="hardAlpha" operator="arithmetic" k2="-1" k3="1"/>
<feColorMatrix type="matrix" values="0 0 0 0 0.967262 0 0 0 0 0.908333 0 0 0 0 1 0 0 0 1 0"/>
<feBlend mode="normal" in2="shape" result="effect1_innerShadow_67_639"/>
</filter>
<filter id="filter1_f_67_639" x="0" y="33" width="157" height="119" filterUnits="userSpaceOnUse" color-interpolation-filters="sRGB">
<feFlood flood-opacity="0" result="BackgroundImageFix"/>
<feBlend mode="normal" in="SourceGraphic" in2="BackgroundImageFix" result="shape"/>
<feGaussianBlur stdDeviation="15" result="effect1_foregroundBlur_67_639"/>
</filter>
<filter id="filter2_bi_67_639" x="23" y="1" width="113" height="113" filterUnits="userSpaceOnUse" color-interpolation-filters="sRGB">
<feFlood flood-opacity="0" result="BackgroundImageFix"/>
<feGaussianBlur in="BackgroundImageFix" stdDeviation="10"/>
<feComposite in2="SourceAlpha" operator="in" result="effect1_backgroundBlur_67_639"/>
<feBlend mode="normal" in="SourceGraphic" in2="effect1_backgroundBlur_67_639" result="shape"/>
<feColorMatrix in="SourceAlpha" type="matrix" values="0 0 0 0 0 0 0 0 0 0 0 0 0 0 0 0 0 0 127 0" result="hardAlpha"/>
<feOffset/>
<feGaussianBlur stdDeviation="5.5"/>
<feComposite in2="hardAlpha" operator="arithmetic" k2="-1" k3="1"/>
<feColorMatrix type="matrix" values="0 0 0 0 1 0 0 0 0 1 0 0 0 0 1 0 0 0 0.44 0"/>
<feBlend mode="normal" in2="shape" result="effect2_innerShadow_67_639"/>
</filter>
<radialGradient id="paint0_radial_67_639" cx="0" cy="0" r="1" gradientUnits="userSpaceOnUse" gradientTransform="translate(92.988 -33.2262) rotate(106.179) scale(210.772 210.802)">
<stop stop-color="#9686FF"/>
<stop offset="1" stop-color="#E7BCFF"/>
</radialGradient>
<linearGradient id="paint1_linear_67_639" x1="38.2385" y1="17.0729" x2="21.5628" y2="68.0894" gradientUnits="userSpaceOnUse">
<stop stop-color="#9686FF"/>
<stop offset="1" stop-color="#9686FF" stop-opacity="0"/>
</linearGradient>
<linearGradient id="paint2_linear_67_639" x1="164.099" y1="46.69" x2="120.261" y2="90.8813" gradientUnits="userSpaceOnUse">
<stop stop-color="#9686FF"/>
<stop offset="1" stop-color="#9686FF" stop-opacity="0"/>
</linearGradient>
<linearGradient id="paint3_linear_67_639" x1="145.159" y1="6.06962" x2="127" y2="92.4504" gradientUnits="userSpaceOnUse">
<stop stop-color="#E7BCFF"/>
<stop offset="1" stop-color="#E7BCFF" stop-opacity="0"/>
</linearGradient>
<linearGradient id="paint4_linear_67_639" x1="30" y1="22.661" x2="82.7554" y2="178.271" gradientUnits="userSpaceOnUse">
<stop stop-color="white"/>
<stop offset="1" stop-color="#9686FF"/>
</linearGradient>
<linearGradient id="paint5_linear_67_639" x1="8.85699" y1="10.5604" x2="13.8995" y2="30.3986" gradientUnits="userSpaceOnUse">
<stop stop-color="#E7BCFF"/>
<stop offset="1" stop-color="#E7BCFF" stop-opacity="0"/>
</linearGradient>
<linearGradient id="paint6_linear_67_639" x1="43" y1="-22.3051" x2="116" y2="128.644" gradientUnits="userSpaceOnUse">
<stop stop-color="white"/>
<stop offset="1" stop-color="white" stop-opacity="0"/>
</linearGradient>
<linearGradient id="paint7_linear_67_639" x1="79.5" y1="32.5" x2="79.5" y2="87.5" gradientUnits="userSpaceOnUse">
<stop stop-color="white"/>
<stop offset="1" stop-color="white" stop-opacity="0"/>
</linearGradient>
<linearGradient id="paint8_linear_67_639" x1="79.5" y1="51.5" x2="79.5" y2="65" gradientUnits="userSpaceOnUse">
<stop stop-color="white"/>
<stop offset="1" stop-color="white" stop-opacity="0"/>
</linearGradient>
</defs>
</svg>
