<svg width="169" height="161" viewBox="0 0 169 161" fill="none" xmlns="http://www.w3.org/2000/svg">
<g filter="url(#filter0_i_67_685)">
<path d="M99.0001 0H84.0001C60.4298 0 48.6447 0 41.3224 7.32233C34.0001 14.6447 34.0001 26.4298 34.0001 50V65C34.0001 88.5702 34.0001 100.355 41.3224 107.678C48.6447 115 60.4298 115 84.0001 115H99.0001C122.57 115 134.355 115 141.678 107.678C149 100.355 149 88.5702 149 65V50C149 26.4298 149 14.6447 141.678 7.32233C134.355 0 122.57 0 99.0001 0Z" fill="url(#paint0_radial_67_685)"/>
</g>
<path d="M37.6035 39.7473C40.1009 36.4254 44.3452 42.8359 45.8562 45.3702C45.839 43.5711 45.771 41.7831 45.663 39.9841C43.7931 38.8698 37.1543 34.6306 40.2319 32.2973C42.6669 30.4513 44.6092 35.1926 45.5388 38.1308C45.4618 37.095 45.374 36.0537 45.275 35.0017C45.2613 34.8583 45.3104 34.725 45.4 34.6252C44.5449 32.6452 43.044 28.3716 46.0445 28.4214C48.7651 28.4665 47.1344 32.7999 46.2796 34.7158C46.3195 34.7811 46.3466 34.854 46.354 34.9336C46.4922 36.4039 46.6101 37.8541 46.7041 39.2956C47.719 37.0158 50.3023 31.9176 52.2716 34.0976C54.4701 36.5309 48.5338 39.3524 46.7551 40.1235C46.8569 41.8587 46.9224 43.5846 46.9401 45.32C48.4887 43.0013 52.8329 37.1328 54.9941 40.6977C57.3048 44.5099 49.201 45.84 46.9442 46.132C46.9483 48.1171 46.8906 50.1194 46.7563 52.1683C48.653 50.6186 55.4686 45.3628 56.4111 49.0477C57.3958 52.8983 48.8235 52.7067 46.7254 52.603C46.5745 54.744 46.3404 56.9378 46.0084 59.2173C47.7787 57.7755 54.5243 52.6546 55.3785 57.6159C56.121 61.9284 47.793 60.1171 45.9431 59.6639C45.5994 61.9453 45.1551 64.3162 44.5996 66.8048C46.3713 65.8702 52.9881 62.6228 53.1277 66.1681C53.2697 69.7771 46.1981 67.7005 44.5206 67.1578C44.1003 69.0126 43.6171 70.9349 43.0648 72.937L42.0095 72.6784C42.563 70.6731 43.0463 68.7484 43.4667 66.8916C41.4409 66.62 34.3158 65.4547 36.1794 62.7023C37.977 60.0479 42.2201 64.7945 43.5695 66.4311C44.1084 64.0035 44.5398 61.6885 44.8748 59.46C42.8875 59.1511 34.4088 57.6378 36.0572 54.5218C37.7154 51.3869 43.4323 57.4422 44.9256 59.1104C45.2594 56.8302 45.4935 54.6365 45.6439 52.4961C43.4302 52.0391 34.6261 49.9703 37.5765 46.4923C39.9744 43.6657 44.2875 49.7319 45.6857 51.8777C45.8068 49.9612 45.8615 48.0847 45.8604 46.2245C43.5382 45.7166 34.7713 43.5149 37.6034 39.7477L37.6035 39.7473Z" fill="url(#paint1_linear_67_685)"/>
<path d="M159.172 85.7191C160.544 81.7961 152.856 81.8339 149.909 81.9876C151.414 81.0014 152.938 80.0634 154.493 79.1527C156.459 80.087 163.674 83.2468 163.902 79.3915C164.082 76.3411 159.061 77.3638 156.102 78.2253C157.006 77.7132 157.92 77.207 158.85 76.7043C158.976 76.6358 159.06 76.5209 159.093 76.391C161.214 76.0004 165.6 74.8711 163.89 72.4051C162.34 70.1692 159.645 73.9344 158.528 75.7103C158.452 75.7134 158.376 75.7315 158.306 75.7696C157.007 76.4725 155.736 77.181 154.486 77.9046C155.816 75.7932 158.617 70.8109 155.71 70.3866C152.465 69.9128 153.421 76.4155 153.77 78.3227C152.271 79.2031 150.8 80.1085 149.348 81.0588C150.414 78.4824 152.875 71.6082 148.71 71.7947C144.257 71.9944 147.659 79.4691 148.671 81.5071C147.019 82.6077 145.387 83.7692 143.759 85.0203C143.992 82.5821 144.569 73.9947 140.983 75.2608C137.235 76.584 142.162 83.6017 143.415 85.2877C141.719 86.6039 140.026 88.0185 138.316 89.5621C138.53 87.289 139.035 78.8349 134.436 80.8842C130.439 82.6655 136.576 88.5794 137.982 89.8647C136.277 91.4192 134.553 93.1071 132.794 94.9527C132.585 92.9606 131.604 85.6554 128.58 87.5111C125.502 89.4002 131.161 94.1224 132.545 95.2147C131.237 96.5955 129.908 98.0662 128.551 99.6386L129.353 100.372C130.712 98.7966 132.043 97.3245 133.352 95.9425C134.704 97.4751 139.635 102.749 140.886 99.669C142.093 96.6988 135.788 95.8123 133.678 95.601C135.395 93.803 137.079 92.157 138.745 90.6392C140.107 92.119 146.08 98.324 147.753 95.221C149.436 92.0995 141.224 90.7159 139.007 90.4026C140.717 88.857 142.41 87.4425 144.105 86.1271C145.716 87.7127 152.332 93.8791 153.581 89.4928C154.597 85.9279 147.157 85.717 144.596 85.7484C146.121 84.5819 147.65 83.4929 149.197 82.4592C150.91 84.1068 157.616 90.1683 159.172 85.7194L159.172 85.7191Z" fill="url(#paint2_linear_67_685)"/>
<circle cx="159.5" cy="58.5" r="4.5" fill="url(#paint3_linear_67_685)"/>
<path d="M39.6906 74.453C39.0631 73.4876 38.4348 72.5031 37.8088 71.4977C36.8547 69.9655 35.9457 68.4515 35.0778 66.9548C31.9378 68.5778 20.7919 73.9683 20.5323 68.8642C20.283 63.9668 31.0231 65.5846 34.6875 66.2776C33.2716 63.8061 31.9753 61.3845 30.7993 59.0146C27.468 60.2277 15.8607 64.1 15.8704 59.1659C15.8783 55.0578 26.7876 57.4419 30.4793 58.3664C29.3474 56.0515 28.332 53.7872 27.4331 51.5753C24.3957 52.4226 13.6982 55.076 14.3202 50.2311C14.8297 46.2601 23.9973 49.6152 27.1619 50.8981C26.1487 48.3496 25.2923 45.8712 24.5946 43.4671C21.6095 43.6337 11.8457 43.8353 14.8598 39.0691C16.9122 35.8232 21.9335 39.9963 24.2403 42.2027C23.6473 40.0072 23.1871 37.874 22.8661 35.8085C22.8469 35.6848 22.8691 35.5592 22.9183 35.4408C20.7051 33.2204 15.7911 27.6008 20.3605 25.4664C25.7057 22.9697 24.7378 31.5054 24.1488 34.9672C24.2899 35.0531 24.391 35.1891 24.4181 35.3639C24.7289 37.3614 25.1721 39.4244 25.7423 41.548C26.1354 38.186 27.3083 32.2548 30.6509 33.3182C34.5856 34.5703 28.2788 41.1082 26.1903 43.1408C26.8697 45.449 27.6987 47.8283 28.6729 50.2737C29.4707 47.3832 32.4364 37.7526 36.1591 39.3218C40.0084 40.9442 30.9066 48.9918 28.8589 50.7413C29.7858 53.0324 30.8421 55.3824 32.0238 57.7876C33.248 54.8406 37.5553 45.2072 40.9106 46.8862C45.4682 49.1669 34.8729 56.5162 32.2545 58.2536C33.4289 60.6191 34.7248 63.0381 36.1417 65.5083C37.5467 61.985 42.1463 51.3975 45.621 54.3034C49.1763 57.2761 39.3731 64.1875 36.4883 66.1086C37.3506 67.5964 38.2546 69.1017 39.2037 70.6258C39.8697 71.6947 40.5377 72.7415 41.2049 73.7652C42.58 70.549 48.2768 57.9932 51.9845 61.4781C55.7932 65.0583 44.1944 72.4892 41.4627 74.1586C43.3194 76.9914 45.1626 79.6373 46.9149 82.0476C48.2185 79.1504 53.8454 67.3207 57.7474 69.8123C63.0275 73.184 50.011 80.8551 47.1912 82.4317C49.6539 85.8036 51.8696 88.6112 53.8172 91.0325L52.4185 91.9133C50.4734 89.4904 48.2828 86.7125 45.8456 83.3753C43.1445 85.3106 32.6524 92.364 31.7051 86.3719C31.0021 81.9279 41.9357 82.4872 45.4143 82.7788C43.6824 80.3906 41.8619 77.7705 40.0328 74.9769C36.8923 76.6893 24.2658 83.2248 25.3624 77.0671C26.0506 73.2021 36.3532 74.0678 39.6911 74.4521L39.6906 74.453Z" fill="url(#paint4_linear_67_685)"/>
<g style="mix-blend-mode:multiply" filter="url(#filter1_f_67_685)">
<ellipse cx="90.5001" cy="96.9999" rx="48.5" ry="34" fill="url(#paint5_linear_67_685)"/>
</g>
<g filter="url(#filter2_bi_67_685)">
<circle cx="91.5001" cy="57.4999" r="36.5" fill="url(#paint6_linear_67_685)" fill-opacity="0.3"/>
</g>
<circle cx="22.5" cy="92.5" r="4.5" fill="#E7BCFF"/>
<circle cx="40" cy="78" r="3" fill="white"/>
<path fill-rule="evenodd" clip-rule="evenodd" d="M115.949 56.7017H120.926C121.519 56.7017 122 57.183 122 57.7761C122 58.3692 121.519 58.8505 120.926 58.8505H109.012C108.477 67.5212 101.519 74.4771 92.8506 75.0122V76.4777C92.8506 77.0708 92.3692 77.5522 91.7761 77.5522C91.1831 77.5522 90.7017 77.0708 90.7017 76.4777V75.0122C82.0332 74.4771 75.0751 67.5191 74.54 58.8505H73.0745C72.4814 58.8505 72.0001 58.3692 72.0001 57.7761C72.0001 57.183 72.4814 56.7017 73.0745 56.7017H74.54C75.0751 48.0309 82.031 41.075 90.7017 40.54V39.0744C90.7017 38.4813 91.1831 38 91.7761 38C92.3692 38 92.8506 38.4813 92.8506 39.0744V40.8859C92.8506 41.0063 92.8248 41.1223 92.7883 41.2319C92.8248 41.3394 92.8506 41.4554 92.8506 41.5779C92.8506 42.171 92.3692 42.6523 91.7761 42.6523C83.4364 42.6523 76.6524 49.4363 76.6524 57.7761C76.6524 66.1159 83.7974 72.902 91.774 72.902C99.7506 72.902 106.3 66.6918 106.855 58.8527H102.34C101.798 64.2077 97.2665 68.4001 91.7719 68.4001C85.914 68.4001 81.15 63.6361 81.15 57.7782C81.15 51.9204 85.914 47.1564 91.7719 47.1564C97.2665 47.1564 101.801 51.3488 102.34 56.7038H112.908L117.726 51.886C118.145 51.467 118.826 51.467 119.245 51.886C119.664 52.3051 119.664 52.9862 119.245 53.4053L115.949 56.7017ZM83.3031 57.7761C83.3031 62.4477 87.1045 66.2491 91.7761 66.2491C96.0846 66.2491 99.6475 63.0172 100.178 58.8505H95.6291C95.1585 60.5374 93.6113 61.7794 91.7761 61.7794C89.5693 61.7794 87.7728 59.983 87.7728 57.7761C87.7728 55.5692 89.5693 53.7727 91.7761 53.7727C93.6113 53.7727 95.1585 55.0148 95.6291 56.7017H100.178C99.6475 52.535 96.0846 49.3031 91.7761 49.3031C87.1045 49.3031 83.3031 53.1044 83.3031 57.7761ZM113.604 60.6964C114.023 60.2774 114.705 60.2774 115.124 60.6964H115.126L119.25 64.8201C119.669 65.2391 119.669 65.9203 119.25 66.3393C119.039 66.5478 118.764 66.6531 118.489 66.6531C118.214 66.6531 117.939 66.5499 117.728 66.3393L113.604 62.2157C113.185 61.7966 113.185 61.1154 113.604 60.6964Z" fill="url(#paint7_linear_67_685)"/>
<defs>
<filter id="filter0_i_67_685" x="34.0001" y="0" width="115" height="115" filterUnits="userSpaceOnUse" color-interpolation-filters="sRGB">
<feFlood flood-opacity="0" result="BackgroundImageFix"/>
<feBlend mode="normal" in="SourceGraphic" in2="BackgroundImageFix" result="shape"/>
<feColorMatrix in="SourceAlpha" type="matrix" values="0 0 0 0 0 0 0 0 0 0 0 0 0 0 0 0 0 0 127 0" result="hardAlpha"/>
<feOffset/>
<feGaussianBlur stdDeviation="15"/>
<feComposite in2="hardAlpha" operator="arithmetic" k2="-1" k3="1"/>
<feColorMatrix type="matrix" values="0 0 0 0 0.967262 0 0 0 0 0.908333 0 0 0 0 1 0 0 0 1 0"/>
<feBlend mode="normal" in2="shape" result="effect1_innerShadow_67_685"/>
</filter>
<filter id="filter1_f_67_685" x="12.0001" y="32.9999" width="157" height="128" filterUnits="userSpaceOnUse" color-interpolation-filters="sRGB">
<feFlood flood-opacity="0" result="BackgroundImageFix"/>
<feBlend mode="normal" in="SourceGraphic" in2="BackgroundImageFix" result="shape"/>
<feGaussianBlur stdDeviation="15" result="effect1_foregroundBlur_67_685"/>
</filter>
<filter id="filter2_bi_67_685" x="35.0001" y="0.999878" width="113" height="113" filterUnits="userSpaceOnUse" color-interpolation-filters="sRGB">
<feFlood flood-opacity="0" result="BackgroundImageFix"/>
<feGaussianBlur in="BackgroundImageFix" stdDeviation="10"/>
<feComposite in2="SourceAlpha" operator="in" result="effect1_backgroundBlur_67_685"/>
<feBlend mode="normal" in="SourceGraphic" in2="effect1_backgroundBlur_67_685" result="shape"/>
<feColorMatrix in="SourceAlpha" type="matrix" values="0 0 0 0 0 0 0 0 0 0 0 0 0 0 0 0 0 0 127 0" result="hardAlpha"/>
<feOffset/>
<feGaussianBlur stdDeviation="5.5"/>
<feComposite in2="hardAlpha" operator="arithmetic" k2="-1" k3="1"/>
<feColorMatrix type="matrix" values="0 0 0 0 1 0 0 0 0 1 0 0 0 0 1 0 0 0 0.44 0"/>
<feBlend mode="normal" in2="shape" result="effect2_innerShadow_67_685"/>
</filter>
<radialGradient id="paint0_radial_67_685" cx="0" cy="0" r="1" gradientUnits="userSpaceOnUse" gradientTransform="translate(104.988 -33.2262) rotate(106.179) scale(210.772 210.802)">
<stop stop-color="#9686FF"/>
<stop offset="1" stop-color="#E7BCFF"/>
</radialGradient>
<linearGradient id="paint1_linear_67_685" x1="69.7647" y1="21.8973" x2="41.4279" y2="67.4801" gradientUnits="userSpaceOnUse">
<stop stop-color="#9686FF"/>
<stop offset="1" stop-color="#9686FF" stop-opacity="0"/>
</linearGradient>
<linearGradient id="paint2_linear_67_685" x1="176.099" y1="46.6898" x2="132.261" y2="90.8811" gradientUnits="userSpaceOnUse">
<stop stop-color="#9686FF"/>
<stop offset="1" stop-color="#9686FF" stop-opacity="0"/>
</linearGradient>
<linearGradient id="paint3_linear_67_685" x1="152.857" y1="51.5604" x2="157.9" y2="71.3986" gradientUnits="userSpaceOnUse">
<stop stop-color="#E7BCFF"/>
<stop offset="1" stop-color="#E7BCFF" stop-opacity="0"/>
</linearGradient>
<linearGradient id="paint4_linear_67_685" x1="23.3077" y1="0.0696224" x2="41.4661" y2="86.4504" gradientUnits="userSpaceOnUse">
<stop stop-color="#E7BCFF"/>
<stop offset="1" stop-color="#E7BCFF" stop-opacity="0"/>
</linearGradient>
<linearGradient id="paint5_linear_67_685" x1="42.0001" y1="22.6609" x2="94.7555" y2="178.271" gradientUnits="userSpaceOnUse">
<stop stop-color="white"/>
<stop offset="1" stop-color="#9686FF"/>
</linearGradient>
<linearGradient id="paint6_linear_67_685" x1="55.0001" y1="-22.3052" x2="128" y2="128.644" gradientUnits="userSpaceOnUse">
<stop stop-color="white"/>
<stop offset="1" stop-color="white" stop-opacity="0"/>
</linearGradient>
<linearGradient id="paint7_linear_67_685" x1="97.0001" y1="32.642" x2="97.0001" y2="86.2223" gradientUnits="userSpaceOnUse">
<stop stop-color="white"/>
<stop offset="1" stop-color="white" stop-opacity="0"/>
</linearGradient>
</defs>
</svg>
