<svg version="1.2" xmlns="http://www.w3.org/2000/svg" viewBox="0 0 142 161" width="142" height="161">
	<title>solution-img-3-svg</title>
	<defs>
		<radialGradient id="g1" cx="79" cy="-33.2" r="210.8" gradientUnits="userSpaceOnUse">
			<stop offset="0" stop-color="#9686ff"/>
			<stop offset="1" stop-color="#e7bcff"/>
		</radialGradient>
		<linearGradient id="g2" x1="132.9" y1="47.7" x2="110.8" y2="96.6" gradientUnits="userSpaceOnUse">
			<stop offset="0" stop-color="#e7bcff"/>
			<stop offset="1" stop-color="#e7bcff" stop-opacity="0"/>
		</linearGradient>
		<linearGradient id="g3" x1="-14.7" y1="1.6" x2="17.5" y2="88.9" gradientUnits="userSpaceOnUse">
			<stop offset="0" stop-color="#9686ff"/>
			<stop offset="1" stop-color="#9686ff" stop-opacity="0"/>
		</linearGradient>
		<linearGradient id="g4" x1="159" y1="-17.1" x2="99.8" y2="68" gradientUnits="userSpaceOnUse">
			<stop offset="0" stop-color="#9686ff"/>
			<stop offset="1" stop-color="#9686ff" stop-opacity="0"/>
		</linearGradient>
		<filter x="-50%" y="-50%" width="200%" height="200%" id="f1"> <feGaussianBlur stdDeviation="15"/> </filter>
		<linearGradient id="g5" x1="16" y1="22.7" x2="68.8" y2="178.3" gradientUnits="userSpaceOnUse">
			<stop offset="0" stop-color="#ffffff"/>
			<stop offset="1" stop-color="#9686ff"/>
		</linearGradient>
		<linearGradient id="g6" x1="29" y1="-22.3" x2="102" y2="128.6" gradientUnits="userSpaceOnUse">
			<stop offset="0" stop-color="#ffffff"/>
			<stop offset="1" stop-color="#ffffff" stop-opacity="0"/>
		</linearGradient>
		<linearGradient id="g7" x1="65" y1="33" x2="65" y2="83.1" gradientUnits="userSpaceOnUse">
			<stop offset="0" stop-color="#ffffff"/>
			<stop offset="1" stop-color="#ffffff" stop-opacity="0"/>
		</linearGradient>
	</defs>
	<style>
		.s0 { fill: url(#g1) } 
		.s1 { fill: url(#g2) } 
		.s2 { fill: url(#g3) } 
		.s3 { fill: url(#g4) } 
		.s4 { mix-blend-mode: multiply;filter: url(#f1);fill: url(#g5) } 
		.s5 { opacity: .3;fill: url(#g6) } 
		.s6 { fill: url(#g7) } 
	</style>
	<g id="Layer">
		<path id="Layer" class="s0" d="m73 0h-15c-23.6 0-35.4 0-42.7 7.3-7.3 7.3-7.3 19.1-7.3 42.7v15c0 23.6 0 35.4 7.3 42.7 7.3 7.3 19.1 7.3 42.7 7.3h15c23.6 0 35.4 0 42.7-7.3 7.3-7.3 7.3-19.1 7.3-42.7v-15c0-23.6 0-35.4-7.3-42.7-7.3-7.3-19.1-7.3-42.7-7.3z"/>
	</g>
	<path id="Layer" class="s1" d="m135.9 84.3c1.4-3.9-6.3-3.9-9.2-3.7q2.2-1.5 4.5-2.8c2 0.9 9.2 4 9.5 0.2 0.1-3.1-4.9-2-7.8-1.2q1.3-0.7 2.7-1.5 0.2-0.1 0.2-0.3c2.2-0.4 6.6-1.5 4.8-4-1.5-2.2-4.2 1.5-5.3 3.3q-0.1 0-0.2 0.1-2 1-3.9 2.1c1.4-2.1 4.2-7.1 1.3-7.5-3.3-0.5-2.3 6-2 7.9q-2.2 1.3-4.4 2.8c1.1-2.6 3.5-9.5-0.6-9.3-4.5 0.2-1.1 7.7-0.1 9.7q-2.4 1.7-4.9 3.5c0.2-2.4 0.8-11-2.8-9.7-3.7 1.3 1.2 8.3 2.5 10q-2.6 2-5.1 4.3c0.2-2.3 0.7-10.8-3.9-8.7-4 1.8 2.1 7.7 3.5 9q-2.5 2.3-5.1 5.1c-0.3-2-1.2-9.3-4.3-7.5-3 1.9 2.6 6.6 4 7.7q-2 2.1-4 4.4l0.8 0.8q2-2.4 4-4.5c1.4 1.6 6.3 6.8 7.5 3.8 1.2-3-5.1-3.9-7.2-4.1q2.6-2.7 5.1-5c1.4 1.5 7.3 7.7 9 4.6 1.7-3.1-6.5-4.5-8.7-4.8q2.5-2.3 5.1-4.3c1.6 1.6 8.2 7.8 9.4 3.4 1.1-3.6-6.4-3.8-8.9-3.8q2.2-1.7 4.6-3.2c1.7 1.6 8.4 7.7 9.9 3.2z"/>
	<path id="Layer" class="s2" d="m27.5 49.2c-4.4-4.4-9.2 6.1-10.9 10.2q-0.6-4-0.9-8c2.5-2.1 11.3-9.9 6.2-12.6-4-2.2-5.8 5.3-6.5 9.8q-0.2-2.3-0.3-4.7 0-0.3-0.3-0.5c0.8-3.1 2.1-9.8-2.3-9-4 0.7-0.6 6.7 1.1 9.3q-0.1 0.2-0.1 0.4 0.2 3.3 0.5 6.5c-2-3.1-7-10.1-9.4-6.4-2.7 4.1 6.7 6.9 9.5 7.6q0.4 3.9 0.9 7.7c-2.8-3-10.6-10.7-12.9-4.9-2.6 6.1 9.7 6.2 13.1 6.1q0.7 4.4 1.6 8.9c-3.1-1.8-14.4-8-14.9-2.4-0.6 5.9 12 3.7 15.1 3.1q1.1 4.6 2.6 9.6c-3-1.8-14.1-7.8-14.2-0.3-0.2 6.6 11.7 2 14.4 0.9q1.5 4.9 3.6 10.3c-2.8-1-13.4-4.3-12.8 1 0.7 5.3 10.6 0.6 13-0.5q1.5 3.9 3.5 8.2l1.5-0.7q-2-4.2-3.5-8.2c2.9-0.8 13.2-4.2 9.8-7.8-3.3-3.5-8.5 4.4-10.1 7.2q-2-5.2-3.5-10c2.9-0.9 15-5.1 11.9-9.3-3.2-4.3-10.2 6-12.1 8.8q-1.5-5-2.5-9.6c3.1-1.2 15.7-6.3 10.5-10.8-4.2-3.6-9.2 6.4-10.7 9.9q-1-4.2-1.6-8.4c3.3-1.2 15.8-6.5 10.7-11.4z"/>
	<path id="Layer" class="s3" d="m112.8 68.5q0.9-1.5 1.9-3 1.4-2.3 2.7-4.5c3.1 1.6 14.3 7 14.5 1.9 0.3-4.9-10.5-3.3-14.1-2.6q2.1-3.7 3.9-7.3c3.3 1.2 14.9 5.1 14.9 0.2 0-4.1-10.9-1.8-14.6-0.8q1.7-3.5 3-6.8c3.1 0.8 13.8 3.5 13.1-1.4-0.5-3.9-9.6-0.6-12.8 0.7q1.5-3.8 2.6-7.4c3 0.1 12.7 0.3 9.7-4.4-2-3.3-7.1 0.9-9.4 3.1q0.9-3.3 1.4-6.4 0-0.2-0.1-0.4c2.3-2.2 7.2-7.8 2.6-9.9-5.3-2.5-4.4 6-3.8 9.5q-0.2 0.1-0.3 0.4-0.4 3-1.3 6.1c-0.4-3.3-1.5-9.2-4.9-8.2-3.9 1.3 2.4 7.8 4.5 9.8q-1 3.5-2.5 7.2c-0.8-2.9-3.8-12.5-7.5-11-3.8 1.6 5.3 9.7 7.3 11.4q-1.4 3.5-3.2 7.1c-1.2-3-5.5-12.6-8.8-10.9-4.6 2.3 6 9.6 8.6 11.4q-1.7 3.5-3.9 7.2c-1.4-3.5-6-14.1-9.5-11.2-3.5 3 6.3 9.9 9.2 11.8q-1.3 2.2-2.7 4.5-1 1.6-2 3.2c-1.4-3.3-7.1-15.8-10.8-12.3-3.8 3.6 7.8 11 10.5 12.7-1.9 2.8-3.7 5.4-5.4 7.8-1.4-2.8-7-14.7-10.9-12.2-5.3 3.4 7.8 11.1 10.6 12.6-2.5 3.4-4.7 6.2-6.7 8.6l1.4 0.9c2-2.4 4.2-5.2 6.6-8.5 2.7 1.9 13.2 9 14.2 3 0.7-4.5-10.3-3.9-13.7-3.6 1.7-2.4 3.5-5 5.3-7.8 3.2 1.7 15.8 8.2 14.7 2.1-0.7-3.9-11-3-14.3-2.6z"/>
	<g id="Layer">
		<path id="Layer" class="s4" d="m64.5 131c-26.8 0-48.5-15.2-48.5-34 0-18.8 21.7-34 48.5-34 26.8 0 48.5 15.2 48.5 34 0 18.8-21.7 34-48.5 34z"/>
	</g>
	<g id="Layer">
		<path id="Layer" class="s5" d="m65.5 94c-20.2 0-36.5-16.3-36.5-36.5 0-20.2 16.3-36.5 36.5-36.5 20.2 0 36.5 16.3 36.5 36.5 0 20.2-16.3 36.5-36.5 36.5z"/>
	</g>
	<path id="Layer" fill-rule="evenodd" class="s6" d="m82.5 73.6c-0.9 0.9-2.2 1.4-3.5 1.4-1.2 0-2.5-0.5-3.5-1.4l-7.7-7.7c-1.5 0.6-3 0.9-4.6 0.9-3.2 0-6.2-1.2-8.4-3.5-2.3-2.2-3.5-5.1-3.5-8.3 0-3.1 1.2-6.1 3.5-8.3 4.6-4.6 12.2-4.6 16.8 0 4.7 4.6 4.7 12 0 16.6q-0.8 0.8-1.6 1.4l2.1 2.1q0.9-0.6 1.6-1.4c5.8-5.7 5.8-15.1 0-20.8-5.8-5.7-15.2-5.7-21 0-5.8 5.7-5.8 15.1 0 20.8 3.1 3.1 7.5 4.7 12 4.2 0.7 0 1.2 0.4 1.3 1.1 0.1 0.6-0.4 1.2-1.1 1.2q-0.8 0.1-1.7 0.1c-4.6 0-8.9-1.7-12.2-5-6.7-6.6-6.7-17.4 0-24 6.7-6.7 17.7-6.7 24.4 0 5.4 5.3 6.4 13.3 3.2 19.7l3.9 3.9c2 1.9 2 5 0 7zm-19.3-9.2c2.6 0 4.9-1 6.7-2.7 3.7-3.7 3.7-9.7 0-13.3-1.8-1.9-4.3-2.8-6.7-2.8-2.4 0-4.9 0.9-6.7 2.8-1.8 1.7-2.8 4.1-2.8 6.6 0 2.5 1 4.9 2.8 6.7 1.8 1.7 4.2 2.7 6.7 2.7zm17.6 3.9l-3.5-3.5q-0.8 1.2-1.9 2.2-0.8 0.8-1.6 1.5l3.4 3.4c1 1 2.6 1 3.6 0 1-1 1-2.6 0-3.6z"/>
</svg>