<svg version="1.2" xmlns="http://www.w3.org/2000/svg" viewBox="0 0 143 152" width="143" height="152">
	<title>solution-img-1-svg</title>
	<defs>
		<radialGradient id="g1" cx="82" cy="-33.2" r="210.8" gradientUnits="userSpaceOnUse">
			<stop offset="0" stop-color="#9686ff"/>
			<stop offset="1" stop-color="#e7bcff"/>
		</radialGradient>
		<linearGradient id="g2" x1="27.2" y1="17.1" x2="10.6" y2="68.1" gradientUnits="userSpaceOnUse">
			<stop offset="0" stop-color="#9686ff"/>
			<stop offset="1" stop-color="#9686ff" stop-opacity="0"/>
		</linearGradient>
		<linearGradient id="g3" x1="153.1" y1="46.7" x2="109.3" y2="90.9" gradientUnits="userSpaceOnUse">
			<stop offset="0" stop-color="#9686ff"/>
			<stop offset="1" stop-color="#9686ff" stop-opacity="0"/>
		</linearGradient>
		<linearGradient id="g4" x1="134.2" y1="6.1" x2="116" y2="92.5" gradientUnits="userSpaceOnUse">
			<stop offset="0" stop-color="#e7bcff"/>
			<stop offset="1" stop-color="#e7bcff" stop-opacity="0"/>
		</linearGradient>
		<filter x="-50%" y="-50%" width="200%" height="200%" id="f1"> <feGaussianBlur stdDeviation="15"/> </filter>
		<linearGradient id="g5" x1="19" y1="22.7" x2="71.8" y2="178.3" gradientUnits="userSpaceOnUse">
			<stop offset="0" stop-color="#ffffff"/>
			<stop offset="1" stop-color="#9686ff"/>
		</linearGradient>
		<linearGradient id="g6" x1="-2.1" y1="10.6" x2="2.9" y2="30.4" gradientUnits="userSpaceOnUse">
			<stop offset="0" stop-color="#e7bcff"/>
			<stop offset="1" stop-color="#e7bcff" stop-opacity="0"/>
		</linearGradient>
		<linearGradient id="g7" x1="32" y1="-22.3" x2="105" y2="128.6" gradientUnits="userSpaceOnUse">
			<stop offset="0" stop-color="#ffffff"/>
			<stop offset="1" stop-color="#ffffff" stop-opacity="0"/>
		</linearGradient>
		<linearGradient id="g8" x1="68.5" y1="32.5" x2="68.5" y2="87.5" gradientUnits="userSpaceOnUse">
			<stop offset="0" stop-color="#ffffff"/>
			<stop offset="1" stop-color="#ffffff" stop-opacity="0"/>
		</linearGradient>
		<linearGradient id="g9" x1="68.5" y1="51.5" x2="68.5" y2="65" gradientUnits="userSpaceOnUse">
			<stop offset="0" stop-color="#ffffff"/>
			<stop offset="1" stop-color="#ffffff" stop-opacity="0"/>
		</linearGradient>
	</defs>
	<style>
		.s0 { fill: url(#g1) } 
		.s1 { fill: url(#g2) } 
		.s2 { fill: url(#g3) } 
		.s3 { fill: url(#g4) } 
		.s4 { mix-blend-mode: multiply;filter: url(#f1);fill: url(#g5) } 
		.s5 { fill: #ffffff } 
		.s6 { fill: url(#g6) } 
		.s7 { opacity: .3;fill: url(#g7) } 
		.s8 { fill: url(#g8) } 
		.s9 { fill: url(#g9) } 
	</style>
	<g id="Layer">
		<path id="Layer" class="s0" d="m76 0h-15c-23.6 0-35.4 0-42.7 7.3-7.3 7.3-7.3 19.1-7.3 42.7v15c0 23.6 0 35.4 7.3 42.7 7.3 7.3 19.1 7.3 42.7 7.3h15c23.6 0 35.4 0 42.7-7.3 7.3-7.3 7.3-19.1 7.3-42.7v-15c0-23.6 0-35.4-7.3-42.7-7.3-7.3-19.1-7.3-42.7-7.3z"/>
	</g>
	<path id="Layer" class="s1" d="m0.2 42.1c1.7-3.9 7.3 1.4 9.4 3.5q-0.7-2.6-1.5-5.2c-2-0.7-9.5-3.2-7.1-6.2 2-2.4 5 1.8 6.6 4.4q-0.5-1.5-1-3-0.1-0.2 0-0.4c-1.3-1.7-3.8-5.5-0.8-6.1 2.6-0.6 2.1 3.9 1.7 6q0.1 0.1 0.1 0.2 0.7 2.1 1.4 4.2c0.4-2.5 1.7-8.1 4.2-6.4 2.7 1.8-2.4 6-4 7.2q0.8 2.4 1.4 5c1-2.7 3.8-9.4 6.8-6.5 3.1 3.2-4.4 6.4-6.6 7.2q0.8 2.9 1.3 5.9c1.5-1.9 6.8-8.6 8.6-5.3 1.9 3.5-6.5 5.4-8.5 5.8q0.5 3.1 0.8 6.6c1.4-1.8 6.8-8.4 8.8-3.8 1.7 4-6.8 4.2-8.7 4.2q0.3 3.5 0.4 7.3c1.5-1.4 7.1-6.1 8.1-2.7 1 3.5-6.4 3.2-8.1 3q0 2.9 0 6h-1.1q0.1-3.1 0-6c-2 0.3-9.2 0.8-8.1-2.3 1.1-3 6.4 0.6 8.1 1.9q-0.1-3.8-0.4-7.1c-2 0.2-10.6 0.7-9.7-2.7 0.8-3.5 7.8 1.1 9.7 2.3q-0.4-3.4-0.9-6.6c-2.3 0.1-11.3 0.2-9.3-3.9 1.7-3.3 7.3 1.6 9.2 3.3q-0.5-2.8-1.2-5.5c-2.4 0-11.4 0-9.6-4.3z"/>
	<path id="Layer" class="s2" d="m136.2 85.7c1.3-3.9-6.3-3.9-9.3-3.7q2.3-1.5 4.6-2.8c2 0.9 9.2 4 9.4 0.2 0.2-3.1-4.8-2-7.8-1.2q1.4-0.7 2.7-1.5 0.2-0.1 0.3-0.3c2.1-0.4 6.5-1.5 4.8-4-1.6-2.2-4.3 1.5-5.4 3.3q-0.1 0-0.2 0.1-1.9 1-3.8 2.1c1.3-2.1 4.1-7.1 1.2-7.5-3.2-0.5-2.3 6-1.9 7.9q-2.3 1.3-4.5 2.8c1.1-2.6 3.6-9.5-0.6-9.3-4.4 0.2-1 7.7 0 9.7q-2.5 1.7-4.9 3.5c0.2-2.4 0.8-11-2.8-9.7-3.8 1.3 1.2 8.3 2.4 10q-2.5 2-5.1 4.3c0.2-2.3 0.7-10.8-3.9-8.7-4 1.8 2.2 7.7 3.6 9q-2.6 2.3-5.2 5.1c-0.2-2-1.2-9.3-4.2-7.5-3.1 1.9 2.6 6.6 3.9 7.7q-1.9 2.1-3.9 4.4l0.8 0.8q2-2.4 4-4.5c1.3 1.6 6.2 6.8 7.5 3.8 1.2-3-5.1-3.9-7.2-4.1q2.5-2.7 5-5c1.4 1.5 7.4 7.7 9.1 4.6 1.6-3.1-6.6-4.5-8.8-4.8q2.6-2.3 5.1-4.3c1.6 1.6 8.2 7.8 9.5 3.4 1-3.6-6.4-3.8-9-3.8q2.3-1.7 4.6-3.2c1.7 1.6 8.4 7.7 10 3.2z"/>
	<path id="Layer" class="s3" d="m117.8 80.5q0.9-1.5 1.9-3 1.4-2.3 2.7-4.5c3.1 1.6 14.3 7 14.5 1.9 0.3-4.9-10.5-3.3-14.1-2.6q2.1-3.7 3.9-7.3c3.3 1.2 14.9 5.1 14.9 0.2 0-4.1-10.9-1.8-14.6-0.8q1.7-3.5 3-6.8c3.1 0.8 13.8 3.5 13.1-1.4-0.5-3.9-9.6-0.6-12.8 0.7q1.5-3.8 2.6-7.4c3 0.1 12.7 0.3 9.7-4.4-2-3.3-7.1 0.9-9.4 3.1q0.9-3.3 1.4-6.4 0-0.2-0.1-0.4c2.3-2.2 7.2-7.8 2.6-9.9-5.3-2.5-4.4 6-3.8 9.5q-0.2 0.1-0.3 0.4-0.4 3-1.3 6.1c-0.4-3.3-1.5-9.2-4.9-8.2-3.9 1.3 2.4 7.8 4.5 9.8q-1 3.5-2.5 7.2c-0.8-2.9-3.8-12.5-7.5-11-3.8 1.6 5.3 9.7 7.3 11.4q-1.4 3.5-3.2 7.1c-1.2-3-5.5-12.6-8.8-10.9-4.6 2.3 6 9.6 8.6 11.4q-1.7 3.5-3.9 7.2c-1.4-3.5-6-14.1-9.5-11.2-3.5 3 6.3 9.9 9.2 11.8q-1.3 2.2-2.7 4.5-1 1.6-2 3.2c-1.4-3.3-7.1-15.8-10.8-12.3-3.8 3.6 7.8 11 10.5 12.7-1.9 2.8-3.7 5.4-5.4 7.8-1.4-2.8-7-14.7-10.9-12.2-5.3 3.4 7.8 11.1 10.6 12.6-2.5 3.4-4.7 6.2-6.7 8.6l1.4 0.9c2-2.4 4.2-5.2 6.6-8.5 2.7 1.9 13.2 9 14.2 3 0.7-4.5-10.3-3.9-13.7-3.6 1.7-2.4 3.5-5 5.3-7.8 3.2 1.7 15.8 8.2 14.7 2.1-0.7-3.9-11-3-14.3-2.6z"/>
	<g id="Layer">
		<path id="Layer" class="s4" d="m67.5 131c-26.8 0-48.5-15.2-48.5-34 0-18.8 21.7-34 48.5-34 26.8 0 48.5 15.2 48.5 34 0 18.8-21.7 34-48.5 34z"/>
	</g>
	<path id="Layer" class="s5" d="m112.5 79c-1.4 0-2.5-1.1-2.5-2.5 0-1.4 1.1-2.5 2.5-2.5 1.4 0 2.5 1.1 2.5 2.5 0 1.4-1.1 2.5-2.5 2.5z"/>
	<path id="Layer" class="s6" d="m4.5 22c-2.5 0-4.5-2-4.5-4.5 0-2.5 2-4.5 4.5-4.5 2.5 0 4.5 2 4.5 4.5 0 2.5-2 4.5-4.5 4.5z"/>
	<g id="Layer">
		<path id="Layer" class="s7" d="m68.5 94c-20.2 0-36.5-16.3-36.5-36.5 0-20.2 16.3-36.5 36.5-36.5 20.2 0 36.5 16.3 36.5 36.5 0 20.2-16.3 36.5-36.5 36.5z"/>
	</g>
	<path id="Layer" fill-rule="evenodd" class="s8" d="m77.3 53.7c2.7 2.3 4.9 4.7 6.4 7 2.4 3.8 3 7.1 1.4 9.2-1 1.6-2.9 2.3-5.4 2.3q-1.7 0-3.7-0.4-0.3-0.1-0.6-0.2-0.1 0.3-0.2 0.5c-1.6 4.2-4 6.5-6.7 6.5-1.3 0-3.3-0.6-5.1-3.3-0.3-0.4-0.2-1.1 0.3-1.4 0.4-0.2 1-0.1 1.3 0.3 0.8 1.1 2 2.5 3.5 2.5 1.8 0 3.6-2 4.9-5.3q0.1-0.2 0.2-0.3-2.5-0.9-5.1-2.2c-2.6 1.3-5.1 2.3-7.5 2.9q-2 0.4-3.7 0.4c-2.5 0-4.4-0.7-5.4-2.3-1.6-2.1-1.1-5.4 1.4-9.2q0.8-1.2 1.8-2.4-1-1.2-1.8-2.4c-2.5-3.8-3-7-1.4-9.2 0.9-1.4 2.6-2.2 4.9-2.3 0.5 0 1 0.4 1 0.9 0 0.5-0.4 1-0.9 1q-2.5 0.1-3.4 1.5c-1.1 1.4-0.5 4 1.4 7q0.7 1 1.5 2 1.5-1.6 3.3-3.1c0.3-3.4 1-6.6 2.1-9.2 1.6-4.2 4-6.5 6.7-6.5 2.7 0 5.1 2.3 6.7 6.5q0.1 0.2 0.2 0.5 0.3-0.1 0.6-0.2c4.3-1 7.6-0.3 9.1 1.9 0.9 1.1 1.5 3.3-0.1 6.8-0.2 0.5-0.8 0.7-1.3 0.5-0.5-0.2-0.7-0.8-0.4-1.3 0.6-1.5 1.2-3.5 0.2-4.9-1-1.5-3.6-1.9-7.1-1.1q-0.2 0.1-0.4 0.1c0.6 2.1 1.1 4.4 1.3 6.9zm0.2 2.8q0 0.9 0 1.8 0 0.9 0 1.8 1-0.9 1.8-1.8-0.8-0.9-1.8-1.8zm-15.9 5.4q1.3 1.2 2.8 2.2 2.1 1.4 4.1 2.6 2-1.2 4.1-2.6 1.5-1 2.9-2.2 0.1-1.8 0.1-3.6 0-1.9-0.1-3.6-1.4-1.2-2.9-2.2-2-1.4-4.1-2.6-2 1.2-4.1 2.6-1.5 1-2.9 2.2-0.1 1.7-0.1 3.6 0 1.8 0.2 3.6zm12.6-14.5q-1.8 0.6-3.6 1.5 1.5 0.9 3.1 2 0.7 0.5 1.5 1.1-0.4-2.5-1-4.6zm-5.7-7.5q0 0 0 0 0 0 0 0zm0 0c-1.8 0-3.6 1.9-4.9 5.3q-0.1 0.2-0.2 0.3 2.5 0.9 5.1 2.2 2.6-1.3 5.1-2.2-0.1-0.1-0.2-0.3c-1.3-3.4-3.1-5.3-4.9-5.3zm-5.7 7.5q-0.6 2.1-1 4.6 0.8-0.6 1.5-1.1 1.6-1.1 3.1-2-1.8-0.9-3.6-1.5zm-5.1 10.9q0.8 0.9 1.8 1.8 0-0.9 0-1.8 0-0.9 0-1.8-1 0.9-1.8 1.8zm-4.2 10.5c1 1.5 3.6 1.9 7.1 1.1q0.2-0.1 0.4-0.1c-0.6-2.1-1.1-4.4-1.3-6.9q-1.8-1.5-3.3-3.1-0.8 1-1.5 2c-1.9 3-2.5 5.6-1.4 7zm13-1.1q-1.6-0.9-3.2-2-0.7-0.5-1.4-1.1 0.3 2.5 0.9 4.6 1.8-0.6 3.7-1.5zm7.7 1.5q0.6-2.1 1-4.6-0.8 0.6-1.5 1.1-1.6 1.1-3.1 2 1.8 0.9 3.6 1.5zm9.3-0.4c1.1-1.4 0.5-4-1.4-7q-0.7-1-1.5-2-1.5 1.6-3.3 3.1c-0.2 2.5-0.6 4.8-1.3 6.9q0.2 0 0.4 0.1c3.5 0.8 6.1 0.4 7.1-1.1z"/>
	<path id="Layer" class="s9" d="m66.5 61.1q0.3 0.3 0.7 0.3 0.4 0 0.7-0.3l4.3-4.3c0.4-0.3 0.4-1 0-1.3-0.4-0.4-1-0.4-1.4 0l-3.6 3.6-1-1.1c-0.4-0.4-1-0.4-1.4 0-0.4 0.4-0.4 1 0 1.4l1.7 1.7z"/>
</svg>