<svg width="167" height="161" viewBox="0 0 167 161" fill="none" xmlns="http://www.w3.org/2000/svg">
<g filter="url(#filter0_i_67_699)">
<path d="M87 0H72C48.4298 0 36.6447 0 29.3223 7.32233C22 14.6447 22 26.4298 22 50V65C22 88.5702 22 100.355 29.3223 107.678C36.6447 115 48.4298 115 72 115H87C110.57 115 122.355 115 129.678 107.678C137 100.355 137 88.5702 137 65V50C137 26.4298 137 14.6447 129.678 7.32233C122.355 0 110.57 0 87 0Z" fill="url(#paint0_radial_67_699)"/>
</g>
<path d="M149.929 84.3191C151.301 80.3961 143.613 80.4339 140.666 80.5875C142.171 79.6013 143.695 78.6634 145.25 77.7527C147.216 78.687 154.431 81.8468 154.659 77.9915C154.839 74.9411 149.818 75.9637 146.859 76.8253C147.763 76.3131 148.677 75.807 149.607 75.3042C149.733 75.2358 149.817 75.1209 149.85 74.991C151.971 74.6004 156.358 73.471 154.647 71.0051C153.097 68.7691 150.403 72.5343 149.286 74.3103C149.209 74.3134 149.134 74.3314 149.063 74.3696C147.764 75.0724 146.494 75.781 145.243 76.5046C146.574 74.3932 149.374 69.4109 146.467 68.9866C143.222 68.5127 144.179 75.0155 144.527 76.9226C143.028 77.803 141.557 78.7085 140.105 79.6588C141.171 77.0823 143.632 70.2082 139.468 70.3946C135.014 70.5944 138.416 78.069 139.428 80.1071C137.776 81.2077 136.144 82.3692 134.516 83.6203C134.749 81.182 135.327 72.5947 131.74 73.8608C127.992 75.1839 132.919 82.2017 134.172 83.8877C132.476 85.2039 130.783 86.6184 129.074 88.1621C129.287 85.8889 129.792 77.4348 125.193 79.4841C121.196 81.2654 127.333 87.1794 128.739 88.4647C127.034 90.0192 125.311 91.707 123.551 93.5527C123.343 91.5605 122.362 84.2553 119.338 86.1111C116.259 88.0001 121.918 92.7223 123.302 93.8146C121.994 95.1955 120.665 96.6662 119.308 98.2386L120.11 98.9719C121.469 97.3966 122.8 95.9245 124.109 94.5425C125.462 96.0751 130.393 101.349 131.644 98.269C132.85 95.2987 126.545 94.4122 124.435 94.2009C126.153 92.403 127.837 90.757 129.502 89.2392C130.864 90.719 136.837 96.9239 138.51 93.8209C140.193 90.6995 131.982 89.3159 129.765 89.0026C131.474 87.457 133.167 86.0424 134.862 84.7271C136.473 86.3127 143.089 92.4791 144.339 88.0928C145.354 84.5279 137.914 84.317 135.353 84.3484C136.878 83.1819 138.407 82.0929 139.954 81.0592C141.668 82.7067 148.373 88.7682 149.929 84.3194L149.929 84.3191Z" fill="url(#paint1_linear_67_699)"/>
<path d="M41.5263 49.1773C37.0759 44.8411 32.2729 55.2842 30.6207 59.3745C30.2343 56.7124 29.9252 54.0552 29.673 51.3725C32.1805 49.2981 41.0185 41.5147 35.9372 38.772C31.9169 36.602 30.1329 44.052 29.4322 48.6059C29.3087 47.0579 29.2 45.4993 29.1055 43.9223C29.0927 43.7073 28.9898 43.5216 28.8345 43.3947C29.6445 40.2735 30.8835 33.6158 26.4617 34.3764C22.4526 35.066 25.854 41.095 27.5556 43.73C27.5116 43.8355 27.4883 43.9494 27.4956 44.0688C27.6281 46.2728 27.7859 48.4424 27.9772 50.5937C25.9556 47.4577 20.9715 40.5169 18.5611 44.1886C15.8701 48.2871 25.2868 51.0965 28.0914 51.8286C28.3382 54.4156 28.6367 56.9806 29.0078 59.5486C26.189 56.4773 18.4268 48.8015 16.05 54.5633C13.5089 60.7248 25.7865 60.8345 29.1877 60.7493C29.6362 63.6831 30.1799 66.6281 30.8475 69.6246C27.6902 67.7693 16.417 61.5645 15.8683 67.2247C15.2951 73.1393 27.9165 70.8934 30.9926 70.2598C31.7059 73.3886 32.554 76.5762 33.5664 79.868C30.6207 78.1432 19.4818 72.1217 19.3558 79.6475C19.2462 86.189 31.1358 81.6061 33.7651 80.5129C34.7954 83.8049 35.9947 87.2062 37.3852 90.7557C34.5536 89.7806 24.0339 86.4977 24.6395 91.7678C25.256 97.1325 35.2285 92.4452 37.5827 91.2593C38.6284 93.9033 39.7825 96.6329 41.0568 99.4644L42.5569 98.8408C41.2799 96.0047 40.1251 93.2717 39.0788 90.6247C42.0098 89.7595 52.27 86.4064 48.8863 82.7665C45.6227 79.2563 40.4405 87.2409 38.8216 89.9678C37.4695 86.5045 36.302 83.1829 35.2968 79.9671C38.1623 79.0557 50.3428 74.8784 47.1938 70.6521C44.0262 66.4001 36.9661 76.6556 35.1418 79.4622C34.1264 76.1697 33.2783 72.9821 32.5661 69.8542C35.7321 68.6722 48.2661 63.5997 43.1107 59.1367C38.9207 55.5094 33.9371 65.4596 32.3627 68.9501C31.7449 66.1463 31.2345 63.3864 30.8101 60.6378C34.1249 59.3557 46.5735 54.0953 41.5266 49.1779L41.5263 49.1773Z" fill="url(#paint2_linear_67_699)"/>
<path d="M126.776 68.453C127.403 67.4876 128.032 66.5031 128.658 65.4977C129.612 63.9655 130.521 62.4515 131.389 60.9548C134.529 62.5778 145.674 67.9683 145.934 62.8642C146.183 57.9668 135.443 59.5846 131.779 60.2776C133.195 57.8061 134.491 55.3845 135.667 53.0146C138.998 54.2277 150.606 58.1 150.596 53.1659C150.588 49.0578 139.679 51.4419 135.987 52.3664C137.119 50.0515 138.134 47.7872 139.033 45.5753C142.071 46.4226 152.768 49.076 152.146 44.2311C151.637 40.2601 142.469 43.6152 139.305 44.8981C140.318 42.3496 141.174 39.8712 141.872 37.4671C144.857 37.6337 154.621 37.8353 151.607 33.0691C149.554 29.8232 144.533 33.9963 142.226 36.2027C142.819 34.0072 143.279 31.874 143.6 29.8085C143.62 29.6848 143.597 29.5592 143.548 29.4408C145.761 27.2204 150.675 21.6008 146.106 19.4664C140.761 16.9697 141.729 25.5054 142.318 28.9672C142.177 29.0531 142.075 29.1891 142.048 29.3639C141.738 31.3614 141.294 33.4244 140.724 35.548C140.331 32.186 139.158 26.2548 135.816 27.3182C131.881 28.5703 138.188 35.1082 140.276 37.1408C139.597 39.449 138.768 41.8283 137.793 44.2737C136.996 41.3832 134.03 31.7526 130.307 33.3218C126.458 34.9442 135.56 42.9918 137.607 44.7413C136.681 47.0324 135.624 49.3824 134.443 51.7876C133.218 48.8406 128.911 39.2072 125.556 40.8862C120.998 43.1669 131.594 50.5162 134.212 52.2536C133.037 54.6191 131.742 57.0381 130.325 59.5083C128.92 55.985 124.32 45.3975 120.845 48.3034C117.29 51.2761 127.093 58.1875 129.978 60.1086C129.116 61.5964 128.212 63.1017 127.263 64.6258C126.597 65.6947 125.929 66.7415 125.262 67.7652C123.886 64.549 118.19 51.9932 114.482 55.4781C110.673 59.0583 122.272 66.4892 125.004 68.1586C123.147 70.9914 121.304 73.6373 119.551 76.0476C118.248 73.1504 112.621 61.3207 108.719 63.8123C103.439 67.184 116.455 74.8551 119.275 76.4317C116.813 79.8036 114.597 82.6112 112.649 85.0325L114.048 85.9133C115.993 83.4904 118.184 80.7125 120.621 77.3753C123.322 79.3106 133.814 86.364 134.761 80.3719C135.464 75.9279 124.531 76.4872 121.052 76.7788C122.784 74.3906 124.605 71.7705 126.434 68.9769C129.574 70.6893 142.201 77.2248 141.104 71.0671C140.416 67.2021 130.113 68.0678 126.775 68.4521L126.776 68.453Z" fill="url(#paint3_linear_67_699)"/>
<g style="mix-blend-mode:multiply" filter="url(#filter1_f_67_699)">
<ellipse cx="78.5" cy="96.9999" rx="48.5" ry="34" fill="url(#paint4_linear_67_699)"/>
</g>
<g filter="url(#filter2_bi_67_699)">
<circle cx="79.5" cy="57.4999" r="36.5" fill="url(#paint5_linear_67_699)" fill-opacity="0.3"/>
</g>
<path d="M96.5448 66.6074L92.5726 62.6839C95.8313 56.302 94.7708 48.3001 89.3837 42.9759C82.6709 36.3414 71.7473 36.3414 65.0346 42.9759C58.3218 49.6103 58.3218 60.4065 65.0346 67.041C68.2837 70.2522 72.6391 72.0175 77.1923 72.0175C77.7756 72.0175 78.3613 71.9889 78.947 71.9293C79.5857 71.865 80.0533 71.3028 79.9882 70.6691C79.9232 70.0378 79.3519 69.5757 78.7132 69.64C74.2348 70.0855 69.848 68.5442 66.6784 65.4116C60.8768 59.6752 60.8768 50.3393 66.6808 44.6005C72.4873 38.8618 81.9334 38.8641 87.7374 44.6005C93.5415 50.3369 93.5439 59.6752 87.7374 65.4116C87.2216 65.9214 86.6697 66.3883 86.0888 66.8147L83.958 64.7088C84.551 64.3038 85.1126 63.8465 85.6332 63.3319C90.2779 58.7414 90.2779 51.2707 85.6332 46.6802C80.9885 42.0897 73.4297 42.0897 68.785 46.6802C66.5386 48.9004 65.2997 51.8568 65.2997 55.0061C65.2997 58.1553 66.5362 61.1117 68.785 63.3319C71.0315 65.5521 74.0251 66.7766 77.2091 66.7766C78.7927 66.7766 80.3305 66.474 81.7502 65.8952L89.5066 73.5611C90.4756 74.5188 91.7506 75 93.0257 75C94.3008 75 95.5734 74.5212 96.5448 73.5611C98.4851 71.6435 98.4851 68.5251 96.5448 66.6074ZM70.4915 61.6501C68.7007 59.8801 67.7124 57.5193 67.7124 55.0084C67.7124 52.4976 68.6983 50.1368 70.4915 48.3668C72.3451 46.5349 74.7771 45.6201 77.2115 45.6201C79.646 45.6201 82.078 46.5349 83.9315 48.3668C87.6362 52.0283 87.6362 57.9886 83.9315 61.6501C82.1407 63.42 79.7544 64.3967 77.2115 64.3967C74.6686 64.3967 72.2824 63.4224 70.4915 61.6501ZM94.8407 71.8793C93.8404 72.8679 92.2134 72.8679 91.2131 71.8793L87.7519 68.4584C88.3231 68.0201 88.8727 67.5484 89.3861 67.041C90.0996 66.3359 90.7335 65.5807 91.2951 64.7898L94.8407 68.2941C95.841 69.2827 95.841 70.8907 94.8407 71.8793Z" fill="url(#paint6_linear_67_699)"/>
<defs>
<filter id="filter0_i_67_699" x="22" y="0" width="115" height="115" filterUnits="userSpaceOnUse" color-interpolation-filters="sRGB">
<feFlood flood-opacity="0" result="BackgroundImageFix"/>
<feBlend mode="normal" in="SourceGraphic" in2="BackgroundImageFix" result="shape"/>
<feColorMatrix in="SourceAlpha" type="matrix" values="0 0 0 0 0 0 0 0 0 0 0 0 0 0 0 0 0 0 127 0" result="hardAlpha"/>
<feOffset/>
<feGaussianBlur stdDeviation="15"/>
<feComposite in2="hardAlpha" operator="arithmetic" k2="-1" k3="1"/>
<feColorMatrix type="matrix" values="0 0 0 0 0.967262 0 0 0 0 0.908333 0 0 0 0 1 0 0 0 1 0"/>
<feBlend mode="normal" in2="shape" result="effect1_innerShadow_67_699"/>
</filter>
<filter id="filter1_f_67_699" x="0" y="32.9999" width="157" height="128" filterUnits="userSpaceOnUse" color-interpolation-filters="sRGB">
<feFlood flood-opacity="0" result="BackgroundImageFix"/>
<feBlend mode="normal" in="SourceGraphic" in2="BackgroundImageFix" result="shape"/>
<feGaussianBlur stdDeviation="15" result="effect1_foregroundBlur_67_699"/>
</filter>
<filter id="filter2_bi_67_699" x="23" y="0.999878" width="113" height="113" filterUnits="userSpaceOnUse" color-interpolation-filters="sRGB">
<feFlood flood-opacity="0" result="BackgroundImageFix"/>
<feGaussianBlur in="BackgroundImageFix" stdDeviation="10"/>
<feComposite in2="SourceAlpha" operator="in" result="effect1_backgroundBlur_67_699"/>
<feBlend mode="normal" in="SourceGraphic" in2="effect1_backgroundBlur_67_699" result="shape"/>
<feColorMatrix in="SourceAlpha" type="matrix" values="0 0 0 0 0 0 0 0 0 0 0 0 0 0 0 0 0 0 127 0" result="hardAlpha"/>
<feOffset/>
<feGaussianBlur stdDeviation="5.5"/>
<feComposite in2="hardAlpha" operator="arithmetic" k2="-1" k3="1"/>
<feColorMatrix type="matrix" values="0 0 0 0 1 0 0 0 0 1 0 0 0 0 1 0 0 0 0.44 0"/>
<feBlend mode="normal" in2="shape" result="effect2_innerShadow_67_699"/>
</filter>
<radialGradient id="paint0_radial_67_699" cx="0" cy="0" r="1" gradientUnits="userSpaceOnUse" gradientTransform="translate(92.988 -33.2262) rotate(106.179) scale(210.772 210.802)">
<stop stop-color="#9686FF"/>
<stop offset="1" stop-color="#E7BCFF"/>
</radialGradient>
<linearGradient id="paint1_linear_67_699" x1="146.878" y1="47.6632" x2="124.754" y2="96.5642" gradientUnits="userSpaceOnUse">
<stop stop-color="#E7BCFF"/>
<stop offset="1" stop-color="#E7BCFF" stop-opacity="0"/>
</linearGradient>
<linearGradient id="paint2_linear_67_699" x1="-0.68018" y1="1.59435" x2="31.5309" y2="88.9069" gradientUnits="userSpaceOnUse">
<stop stop-color="#9686FF"/>
<stop offset="1" stop-color="#9686FF" stop-opacity="0"/>
</linearGradient>
<linearGradient id="paint3_linear_67_699" x1="173.047" y1="-17.1206" x2="113.79" y2="68.03" gradientUnits="userSpaceOnUse">
<stop stop-color="#9686FF"/>
<stop offset="1" stop-color="#9686FF" stop-opacity="0"/>
</linearGradient>
<linearGradient id="paint4_linear_67_699" x1="30" y1="22.6609" x2="82.7554" y2="178.271" gradientUnits="userSpaceOnUse">
<stop stop-color="white"/>
<stop offset="1" stop-color="#9686FF"/>
</linearGradient>
<linearGradient id="paint5_linear_67_699" x1="43" y1="-22.3052" x2="116" y2="128.644" gradientUnits="userSpaceOnUse">
<stop stop-color="white"/>
<stop offset="1" stop-color="white" stop-opacity="0"/>
</linearGradient>
<linearGradient id="paint6_linear_67_699" x1="79" y1="32.9877" x2="79" y2="83.1106" gradientUnits="userSpaceOnUse">
<stop stop-color="white"/>
<stop offset="1" stop-color="white" stop-opacity="0"/>
</linearGradient>
</defs>
</svg>
