<svg version="1.2" xmlns="http://www.w3.org/2000/svg" viewBox="0 0 152 161" width="152" height="161">
	<title>solution-img-2-svg</title>
	<defs>
		<radialGradient id="g1" cx="92" cy="-33.2" r="210.8" gradientUnits="userSpaceOnUse">
			<stop offset="0" stop-color="#9686ff"/>
			<stop offset="1" stop-color="#e7bcff"/>
		</radialGradient>
		<linearGradient id="g2" x1="56.8" y1="21.9" x2="28.4" y2="67.5" gradientUnits="userSpaceOnUse">
			<stop offset="0" stop-color="#9686ff"/>
			<stop offset="1" stop-color="#9686ff" stop-opacity="0"/>
		</linearGradient>
		<linearGradient id="g3" x1="163.1" y1="46.7" x2="119.3" y2="90.9" gradientUnits="userSpaceOnUse">
			<stop offset="0" stop-color="#9686ff"/>
			<stop offset="1" stop-color="#9686ff" stop-opacity="0"/>
		</linearGradient>
		<linearGradient id="g4" x1="139.9" y1="51.6" x2="144.9" y2="71.4" gradientUnits="userSpaceOnUse">
			<stop offset="0" stop-color="#e7bcff"/>
			<stop offset="1" stop-color="#e7bcff" stop-opacity="0"/>
		</linearGradient>
		<linearGradient id="g5" x1="10.3" y1=".1" x2="28.5" y2="86.5" gradientUnits="userSpaceOnUse">
			<stop offset="0" stop-color="#e7bcff"/>
			<stop offset="1" stop-color="#e7bcff" stop-opacity="0"/>
		</linearGradient>
		<filter x="-50%" y="-50%" width="200%" height="200%" id="f1"> <feGaussianBlur stdDeviation="15"/> </filter>
		<linearGradient id="g6" x1="29" y1="22.7" x2="81.8" y2="178.3" gradientUnits="userSpaceOnUse">
			<stop offset="0" stop-color="#ffffff"/>
			<stop offset="1" stop-color="#9686ff"/>
		</linearGradient>
		<linearGradient id="g7" x1="42" y1="-22.3" x2="115" y2="128.6" gradientUnits="userSpaceOnUse">
			<stop offset="0" stop-color="#ffffff"/>
			<stop offset="1" stop-color="#ffffff" stop-opacity="0"/>
		</linearGradient>
		<linearGradient id="g8" x1="84" y1="32.6" x2="84" y2="86.2" gradientUnits="userSpaceOnUse">
			<stop offset="0" stop-color="#ffffff"/>
			<stop offset="1" stop-color="#ffffff" stop-opacity="0"/>
		</linearGradient>
	</defs>
	<style>
		.s0 { fill: url(#g1) } 
		.s1 { fill: url(#g2) } 
		.s2 { fill: url(#g3) } 
		.s3 { fill: url(#g4) } 
		.s4 { fill: url(#g5) } 
		.s5 { mix-blend-mode: multiply;filter: url(#f1);fill: url(#g6) } 
		.s6 { opacity: .3;fill: url(#g7) } 
		.s7 { fill: #e7bcff } 
		.s8 { fill: #ffffff } 
		.s9 { fill: url(#g8) } 
	</style>
	<g id="Layer">
		<path id="Layer" class="s0" d="m86 0h-15c-23.6 0-35.4 0-42.7 7.3-7.3 7.3-7.3 19.1-7.3 42.7v15c0 23.6 0 35.4 7.3 42.7 7.3 7.3 19.1 7.3 42.7 7.3h15c23.6 0 35.4 0 42.7-7.3 7.3-7.3 7.3-19.1 7.3-42.7v-15c0-23.6 0-35.4-7.3-42.7-7.3-7.3-19.1-7.3-42.7-7.3z"/>
	</g>
	<path id="Layer" class="s1" d="m24.6 39.7c2.5-3.3 6.7 3.1 8.3 5.7q-0.1-2.7-0.2-5.4c-1.9-1.1-8.5-5.4-5.5-7.7 2.5-1.8 4.4 2.9 5.3 5.8q-0.1-1.5-0.2-3.1 0-0.2 0.1-0.4c-0.9-2-2.4-6.2 0.6-6.2 2.8 0.1 1.1 4.4 0.3 6.3q0 0.1 0.1 0.2 0.2 2.2 0.3 4.4c1-2.3 3.6-7.4 5.6-5.2 2.2 2.4-3.8 5.3-5.5 6q0.1 2.6 0.1 5.2c1.6-2.3 5.9-8.2 8.1-4.6 2.3 3.8-5.8 5.1-8.1 5.4q0.1 3-0.1 6.1c1.9-1.6 8.7-6.8 9.6-3.2 1 3.9-7.6 3.7-9.7 3.6q-0.2 3.2-0.7 6.6c1.8-1.4 8.5-6.5 9.4-1.6 0.7 4.3-7.6 2.5-9.5 2.1q-0.5 3.4-1.3 7.1c1.8-0.9 8.4-4.2 8.5-0.6 0.2 3.6-6.9 1.5-8.6 1q-0.6 2.7-1.4 5.7l-1.1-0.2q0.8-3 1.5-5.8c-2.1-0.3-9.2-1.4-7.3-4.2 1.8-2.7 6 2.1 7.4 3.7q0.8-3.6 1.3-6.9c-2-0.3-10.5-1.9-8.8-5 1.6-3.1 7.3 2.9 8.8 4.6q0.5-3.4 0.7-6.6c-2.2-0.5-11-2.5-8-6 2.4-2.8 6.7 3.2 8.1 5.4q0.2-2.9 0.2-5.7c-2.4-0.5-11.1-2.7-8.3-6.5z"/>
	<path id="Layer" class="s2" d="m146.2 85.7c1.3-3.9-6.3-3.9-9.3-3.7q2.3-1.5 4.6-2.8c2 0.9 9.2 4 9.4 0.2 0.2-3.1-4.8-2-7.8-1.2q1.4-0.7 2.8-1.5 0.1-0.1 0.2-0.3c2.1-0.4 6.5-1.5 4.8-4-1.6-2.2-4.3 1.5-5.4 3.3q-0.1 0-0.2 0.1-1.9 1-3.8 2.1c1.3-2.1 4.1-7.1 1.2-7.5-3.2-0.5-2.3 6-1.9 7.9q-2.3 1.3-4.5 2.8c1.1-2.6 3.6-9.5-0.6-9.3-4.4 0.2-1 7.7 0 9.7q-2.5 1.7-4.9 3.5c0.2-2.4 0.8-11-2.8-9.7-3.8 1.3 1.2 8.3 2.4 10q-2.5 2-5.1 4.3c0.2-2.3 0.7-10.8-3.9-8.7-4 1.8 2.2 7.7 3.6 9q-2.6 2.3-5.2 5.1c-0.2-2-1.2-9.3-4.2-7.5-3.1 1.9 2.6 6.6 3.9 7.7q-1.9 2.1-3.9 4.4l0.8 0.8q2-2.4 4-4.5c1.3 1.6 6.2 6.8 7.5 3.8 1.2-3-5.1-3.9-7.2-4.1q2.5-2.7 5-5c1.4 1.5 7.4 7.7 9.1 4.6 1.6-3.1-6.6-4.5-8.8-4.8q2.6-2.3 5.1-4.3c1.6 1.6 8.2 7.8 9.5 3.4 1-3.6-6.4-3.8-9-3.8q2.3-1.7 4.6-3.2c1.7 1.6 8.4 7.7 10 3.2z"/>
	<path id="Layer" class="s3" d="m146.5 63c-2.5 0-4.5-2-4.5-4.5 0-2.5 2-4.5 4.5-4.5 2.5 0 4.5 2 4.5 4.5 0 2.5-2 4.5-4.5 4.5z"/>
	<path id="Layer" class="s4" d="m26.7 74.5q-1-1.5-1.9-3-1.4-2.3-2.7-4.5c-3.2 1.6-14.3 7-14.6 1.9-0.2-4.9 10.5-3.3 14.2-2.6q-2.1-3.7-3.9-7.3c-3.3 1.2-14.9 5.1-14.9 0.2 0-4.1 10.9-1.8 14.6-0.8q-1.7-3.5-3.1-6.8c-3 0.8-13.7 3.5-13.1-1.4 0.5-3.9 9.7-0.6 12.9 0.7q-1.6-3.8-2.6-7.4c-3 0.1-12.8 0.3-9.7-4.4 2-3.3 7 0.9 9.3 3.1q-0.9-3.3-1.3-6.4-0.1-0.2 0-0.4c-2.2-2.2-7.1-7.8-2.5-9.9 5.3-2.5 4.3 6 3.7 9.5q0.3 0.1 0.3 0.4 0.5 3 1.3 6.1c0.4-3.3 1.6-9.2 5-8.2 3.9 1.3-2.4 7.8-4.5 9.8q1 3.5 2.5 7.2c0.8-2.9 3.7-12.5 7.5-11 3.8 1.6-5.3 9.7-7.3 11.4q1.4 3.5 3.1 7.1c1.2-3 5.6-12.6 8.9-10.9 4.6 2.3-6 9.6-8.6 11.4q1.7 3.5 3.8 7.2c1.4-3.5 6-14.1 9.5-11.2 3.6 3-6.2 9.9-9.1 11.8q1.3 2.2 2.7 4.5 1 1.6 2 3.2c1.4-3.3 7.1-15.8 10.8-12.3 3.8 3.6-7.8 11-10.5 12.7 1.8 2.8 3.7 5.4 5.4 7.8 1.3-2.8 6.9-14.7 10.8-12.2 5.3 3.4-7.7 11.1-10.5 12.6 2.5 3.4 4.7 6.2 6.6 8.6l-1.4 0.9c-1.9-2.4-4.1-5.2-6.6-8.5-2.7 1.9-13.1 9-14.1 3-0.7-4.5 10.2-3.9 13.7-3.6-1.7-2.4-3.5-5-5.4-7.8-3.1 1.7-15.7 8.2-14.6 2.1 0.7-3.9 11-3 14.3-2.6z"/>
	<g id="Layer">
		<path id="Layer" class="s5" d="m77.5 131c-26.8 0-48.5-15.2-48.5-34 0-18.8 21.7-34 48.5-34 26.8 0 48.5 15.2 48.5 34 0 18.8-21.7 34-48.5 34z"/>
	</g>
	<g id="Layer">
		<path id="Layer" class="s6" d="m78.5 94c-20.2 0-36.5-16.3-36.5-36.5 0-20.2 16.3-36.5 36.5-36.5 20.2 0 36.5 16.3 36.5 36.5 0 20.2-16.3 36.5-36.5 36.5z"/>
	</g>
	<path id="Layer" class="s7" d="m9.5 97c-2.5 0-4.5-2-4.5-4.5 0-2.5 2-4.5 4.5-4.5 2.5 0 4.5 2 4.5 4.5 0 2.5-2 4.5-4.5 4.5z"/>
	<path id="Layer" class="s8" d="m27 81c-1.7 0-3-1.3-3-3 0-1.7 1.3-3 3-3 1.7 0 3 1.3 3 3 0 1.7-1.3 3-3 3z"/>
	<path id="Layer" fill-rule="evenodd" class="s9" d="m102.9 56.7h5c0.6 0 1.1 0.5 1.1 1.1 0 0.6-0.5 1.1-1.1 1.1h-11.9c-0.5 8.6-7.5 15.6-16.1 16.1v1.5c0 0.6-0.5 1.1-1.1 1.1-0.6 0-1.1-0.5-1.1-1.1v-1.5c-8.7-0.5-15.6-7.5-16.2-16.1h-1.4c-0.6 0-1.1-0.5-1.1-1.1 0-0.6 0.5-1.1 1.1-1.1h1.4c0.6-8.7 7.5-15.6 16.2-16.2v-1.4c0-0.6 0.5-1.1 1.1-1.1 0.6 0 1.1 0.5 1.1 1.1v1.8q-0.1 0.2-0.1 0.3 0 0.2 0.1 0.4c0 0.6-0.5 1.1-1.1 1.1-8.4 0-15.1 6.7-15.1 15.1 0 8.3 7.1 15.1 15.1 15.1 8 0 14.5-6.2 15.1-14h-4.6c-0.5 5.3-5 9.5-10.5 9.5-5.9 0-10.6-4.8-10.6-10.6 0-5.9 4.7-10.6 10.6-10.6 5.5 0 10 4.1 10.5 9.5h10.6l4.8-4.8c0.4-0.4 1.1-0.4 1.5 0 0.5 0.4 0.5 1.1 0 1.5zm-32.6 1.1c0 4.7 3.8 8.5 8.5 8.5 4.3 0 7.8-3.3 8.4-7.4h-4.6c-0.4 1.6-2 2.9-3.8 2.9-2.2 0-4-1.8-4-4 0-2.2 1.8-4 4-4 1.8 0 3.4 1.2 3.8 2.9h4.6c-0.6-4.2-4.1-7.4-8.4-7.4-4.7 0-8.5 3.8-8.5 8.5zm30.3 2.9c0.4-0.4 1.1-0.4 1.5 0l4.1 4.1c0.5 0.4 0.5 1.1 0 1.5-0.2 0.3-0.4 0.4-0.7 0.4-0.3 0-0.6-0.1-0.8-0.4l-4.1-4.1c-0.4-0.4-0.4-1.1 0-1.5z"/>
</svg>